<?xml version="1.0"?>
<svg xmlns="http://www.w3.org/2000/svg" xmlns:xlink="http://www.w3.org/1999/xlink" viewBox="0 0 512 512" width="512" height="512"><defs><linearGradient id="linear-gradient" x1="-8.927" y1="481.956" x2="452.847" y2="20.182" gradientUnits="userSpaceOnUse"><stop offset="0" stop-color="#003f8a"/><stop offset="0.518" stop-color="#00d7df"/><stop offset="1" stop-color="#006df0"/></linearGradient><linearGradient id="linear-gradient-2" x1="-6.243" y1="484.64" x2="455.531" y2="22.866" xlink:href="#linear-gradient"/><linearGradient id="linear-gradient-3" x1="-1.441" y1="489.441" x2="460.333" y2="27.667" xlink:href="#linear-gradient"/></defs><g id="Antivirus"><path d="M474.28,71.52,258.246,8.322a8,8,0,0,0-4.492,0L37.72,71.52A8,8,0,0,0,31.966,79.2V318.765c0,35.144,17.049,65.969,45.547,82.423L251.94,503.894a8,8,0,0,0,8.154-.021L432.48,401.191a95.481,95.481,0,0,0,47.554-82.426V79.2A8,8,0,0,0,474.28,71.52ZM464.034,318.765a79.436,79.436,0,0,1-39.606,68.6l-.094.055L255.977,487.7,85.572,387.366c-23.548-13.595-37.606-39.241-37.606-68.6V85.192L256,24.335,464.034,85.192Z" style="fill:url(#linear-gradient)"/><path d="M253.754,41.663,69.72,95.5a8,8,0,0,0-5.754,7.678V318.765c0,23.563,11.055,44.018,29.575,54.726L251.847,466.7a8,8,0,0,0,8.153-.02l156.478-93.2a63.389,63.389,0,0,0,31.556-54.715V103.178A8,8,0,0,0,442.28,95.5L258.246,41.663A7.982,7.982,0,0,0,253.754,41.663Zm178.28,67.51V318.765a47.346,47.346,0,0,1-23.606,40.888l-.094.055-152.451,90.8L101.632,359.688l-.06-.036c-13.529-7.81-21.606-23.095-21.606-40.887V109.173L256,57.676Z" style="fill:url(#linear-gradient-2)"/><path d="M179.834,144.519l-30.177-30.176a8,8,0,0,0-11.314,11.314l32,32a7.972,7.972,0,0,0,2.08,1.494A71.649,71.649,0,0,0,168,184v40H128a8,8,0,0,0,0,16h40v40a71.649,71.649,0,0,0,4.423,24.849,7.972,7.972,0,0,0-2.08,1.494l-32,32a8,8,0,0,0,11.314,11.314l30.177-30.176A71.982,71.982,0,0,0,240,352h32a71.982,71.982,0,0,0,60.166-32.519l30.177,30.176a8,8,0,0,0,11.314-11.314l-32-32a7.972,7.972,0,0,0-2.08-1.494A71.649,71.649,0,0,0,344,280V240h40a8,8,0,0,0,0-16H344V184a71.649,71.649,0,0,0-4.423-24.849,7.972,7.972,0,0,0,2.08-1.494l32-32a8,8,0,0,0-11.314-11.314l-30.177,30.176A71.982,71.982,0,0,0,272,112H240A71.982,71.982,0,0,0,179.834,144.519ZM240,336a56.063,56.063,0,0,1-56-56V208h64V336Zm32,0h-8V208h64v72A56.063,56.063,0,0,1,272,336Zm56-152v8H184v-8a56.063,56.063,0,0,1,56-56h32A56.063,56.063,0,0,1,328,184Z" style="fill:url(#linear-gradient-3)"/></g></svg>
