<svg height="464pt" viewBox="0 -28 464 464" width="464pt" xmlns="http://www.w3.org/2000/svg"><path d="m293.601562 392-21.601562-72h-80l-21.601562 72h-26.398438v16h176v-16zm0 0" fill="#d6d9db"/><path d="m440 0h-416c-13.253906 0-24 10.746094-24 24v248h464v-248c0-13.253906-10.746094-24-24-24zm0 0" fill="#4398d1"/><path d="m440 0h-64l-272 272h360v-248c0-13.253906-10.746094-24-24-24zm0 0" fill="#3e8cc7"/><path d="m0 296c0 13.253906 10.746094 24 24 24h416c13.253906 0 24-10.746094 24-24v-24h-464zm0 0" fill="#d6d9db"/><g fill="#126099"><path d="m32 24h16v16h-16zm0 0"/><path d="m64 24h16v16h-16zm0 0"/><path d="m96 24h16v16h-16zm0 0"/></g><path d="m182.222656 89.777344-62.222656 62.222656 62.222656 62.222656c34.367188-34.363281 34.367188-90.082031 0-124.445312zm0 0" fill="#fd6d2f"/><path d="m57.777344 214.222656c34.363281 34.367188 90.082031 34.367188 124.445312 0l-62.222656-62.222656zm0 0" fill="#88b337"/><path d="m120 152 62.222656-62.222656c-25.167968-25.167969-63.015625-32.695313-95.898437-19.074219-32.882813 13.617187-54.324219 45.703125-54.324219 81.296875zm0 0" fill="#e3584b"/><path d="m32 152c-.03125 23.34375 9.246094 45.742188 25.777344 62.222656l62.222656-62.222656zm0 0" fill="#ffc24f"/><path d="m304 216c-1.238281.011719-2.460938-.261719-3.574219-.800781l-28.425781-14.253907-28.425781 14.253907-7.148438-14.320313 32-16c2.25-1.125 4.898438-1.125 7.148438 0l26.824219 13.386719 27.921874-27.921875c3.125-3.121094 8.1875-3.121094 11.3125 0l25.101563 25.097656 26.585937-39.882812c1.570313-2.097656 4.035157-3.332032 6.65625-3.332032 2.621094 0 5.085938 1.234376 6.65625 3.332032l32 48-13.3125 8.882812-25.320312-38.042968-25.34375 38.015624c-1.328125 1.992188-3.480469 3.285157-5.863281 3.523438-2.390625.261719-4.765625-.589844-6.449219-2.304688l-26.34375-26.320312-26.34375 26.34375c-1.5 1.5-3.535156 2.34375-5.65625 2.34375zm0 0" fill="#ffc24f"/><path d="m304 104c-1.238281 0-2.460938-.289062-3.566406-.839844l-28.433594-14.214844-28.425781 14.253907-7.148438-14.320313 32-16c2.25-1.125 4.898438-1.125 7.148438 0l25.683593 12.847656 28.085938-42.125c1.570312-2.097656 4.035156-3.335937 6.65625-3.335937s5.085938 1.238281 6.65625 3.335937l26.582031 39.878907 25.105469-25.097657c3.125-3.121093 8.1875-3.121093 11.3125 0l32 32-11.3125 11.3125-26.34375-26.382812-26.34375 26.34375c-1.675781 1.734375-4.058594 2.601562-6.457031 2.34375-2.382813-.238281-4.535157-1.527344-5.863281-3.519531l-25.335938-38.082031-25.34375 38.015624c-1.480469 2.234376-3.976562 3.582032-6.65625 3.585938zm0 0" fill="#e3584b"/><path d="m281.601562 352-9.601562-32h-80l-9.601562 32zm0 0" fill="#c7cacc"/><path d="m432 248h-192c-4.417969 0-8-3.582031-8-8v-80h16v72h184zm0 0" fill="#126099"/><path d="m432 136h-192c-4.417969 0-8-3.582031-8-8v-80h16v72h184zm0 0" fill="#126099"/></svg>