<svg height="512" viewBox="0 0 64 64" width="512" xmlns="http://www.w3.org/2000/svg"><g id="Filled_outline" data-name="Filled outline"><rect fill="#394d5c" height="28" rx="2" width="58" x="3" y="28"/><g fill="#7d8d9c"><path d="m7 32h6v4h-6z"/><path d="m7 40h4v4h-4z"/><path d="m17 32h4v4h-4z"/><path d="m15 40h4v4h-4z"/><path d="m25 32h4v4h-4z"/><path d="m23 40h4v4h-4z"/><path d="m33 32h4v4h-4z"/><path d="m31 40h4v4h-4z"/><path d="m41 32h4v4h-4z"/><path d="m49 32h8v4h-8z"/><path d="m39 40h4v4h-4z"/><path d="m19 48h4v4h-4z"/><path d="m45 48h4v4h-4z"/><path d="m53 48h4v4h-4z"/><path d="m27 48h14v4h-14z"/><path d="m7 48h8v4h-8z"/><path d="m47 40h10v4h-10z"/></g><path d="m19 24h26v4h-26z" fill="#aabece"/><path d="m29 20h6v4h-6z" fill="#5a6470"/><path d="m59 27h-13v-3a1 1 0 0 0 -1-1h-9v-3a1 1 0 0 0 -1-1h-2v-2a1 1 0 0 1 1-1h5a3 3 0 0 0 3-3v-6h-2v6a1 1 0 0 1 -1 1h-5a3 3 0 0 0 -3 3v2h-2a1 1 0 0 0 -1 1v3h-9a1 1 0 0 0 -1 1v3h-13a3 3 0 0 0 -3 3v24a3 3 0 0 0 3 3h54a3 3 0 0 0 3-3v-24a3 3 0 0 0 -3-3zm-29-6h4v2h-4zm-10 4h24v2h-24zm40 29a1 1 0 0 1 -1 1h-54a1 1 0 0 1 -1-1v-24a1 1 0 0 1 1-1h54a1 1 0 0 1 1 1z"/><path d="m14 31h-8v6h8zm-2 4h-4v-2h4z"/><path d="m12 39h-6v6h6zm-2 4h-2v-2h2z"/><path d="m22 31h-6v6h6zm-2 4h-2v-2h2z"/><path d="m14 45h6v-6h-6zm2-4h2v2h-2z"/><path d="m30 31h-6v6h6zm-2 4h-2v-2h2z"/><path d="m22 45h6v-6h-6zm2-4h2v2h-2z"/><path d="m38 31h-6v6h6zm-2 4h-2v-2h2z"/><path d="m30 45h6v-6h-6zm2-4h2v2h-2z"/><path d="m46 31h-6v6h6zm-2 4h-2v-2h2z"/><path d="m48 37h10v-6h-10zm2-4h6v2h-6z"/><path d="m38 45h6v-6h-6zm2-4h2v2h-2z"/><path d="m18 53h6v-6h-6zm2-4h2v2h-2z"/><path d="m44 53h6v-6h-6zm2-4h2v2h-2z"/><path d="m52 53h6v-6h-6zm2-4h2v2h-2z"/><path d="m26 53h16v-6h-16zm2-4h12v2h-12z"/><path d="m6 53h10v-6h-10zm2-4h6v2h-6z"/><path d="m46 45h12v-6h-12zm2-4h8v2h-8z"/></g></svg>