<svg height="487pt" viewBox="0 -14 487.76 487" width="487pt" xmlns="http://www.w3.org/2000/svg"><path d="m407.878906 307.476562c-4.417968 0-8-3.582031-8-8v-38c0-2.203124-1.792968-4-4-4h-304.058594c-2.203124 0-4 1.796876-4 4v38c0 4.417969-3.582031 8-8 8-4.417968 0-8-3.582031-8-8v-38c0-11.027343 8.972657-20 20-20h143.996094v-48.234374c0-4.417969 3.582032-8 8-8 4.417969 0 8.070313 3.582031 8.070313 8v48.234374h143.992187c11.027344 0 20 8.972657 20 20v38c0 4.417969-3.582031 8-8 8zm0 0" fill="#e0ebfc"/><path d="m407.878906 311.476562c-6.617187 0-12-5.378906-12-12v-38h-304.058594v38c0 6.621094-5.378906 12-12 12-6.617187 0-12-5.378906-12-12v-38c0-13.234374 10.769532-24 24-24h139.996094v-44.234374c0-6.617188 5.382813-12 12-12 6.65625 0 12.070313 5.382812 12.070313 12v44.234374h139.992187c13.234375 0 24 10.765626 24 24v38c0 6.617188-5.382812 12-12 12zm-316.058594-58h304.058594c4.414063 0 8 3.589844 8 8v38c0 2.207032 1.796875 4 4 4 2.207032 0 4-1.792968 4-4v-38c0-8.820312-7.175781-16-16-16h-143.992187c-2.207031 0-4-1.789062-4-4v-48.234374c0-2.203126-1.828125-4-4.074219-4-2.203125 0-4 1.796874-4 4v48.234374c0 2.210938-1.789062 4-4 4h-143.992188c-8.820312 0-16 7.179688-16 16v38c0 2.207032 1.796876 4 4 4 2.207032 0 4-1.792968 4-4v-38c0-4.410156 3.589844-8 8-8zm0 0" fill="#3762cc"/><path d="m277.851562 299.476562h-68c-4.417968 0-8-3.582031-8-8v-68c0-4.417968 3.582032-8 8-8h68c4.417969 0 8 3.582032 8 8v68c0 4.417969-3.582031 8-8 8zm0 0" fill="#ffea92"/><path d="m270.253906 228.691406h-52.800781c-1.21875 0-2.199219.984375-2.199219 2.199219v43.265625c0 1.214844.980469 2.199219 2.199219 2.199219h6.558594c1.214843 0 2.199219.984375 2.199219 2.199219v9.230468c0 1.214844.984374 2.199219 2.199218 2.199219h30.800782c1.21875 0 2.199218-.984375 2.199218-2.199219v-9.230468c0-1.214844.984375-2.199219 2.203125-2.199219h6.640625c1.214844 0 2.199219-.984375 2.199219-2.199219v-43.265625c0-1.214844-.988281-2.199219-2.199219-2.199219zm0 0" fill="#3762cc"/><path d="m204.765625 154.140625-6.710937 27.453125h91.519531l-6.710938-27.453125zm0 0" fill="#a4c9ff"/><path d="m325.351562 154.136719h-163.070312c-7.351562 0-13.3125-5.957031-13.3125-13.3125v-123.132813c0-7.351562 5.960938-13.3125 13.3125-13.3125h163.070312c7.351563 0 13.3125 5.960938 13.3125 13.3125v123.132813c0 7.355469-5.960937 13.3125-13.3125 13.3125zm0 0" fill="#a4c9ff"/><path d="m338.664062 142.15625v-17.972656h-189.695312v17.972656c0 6.617188 5.960938 11.980469 13.3125 11.980469h163.070312c7.351563 0 13.3125-5.363281 13.3125-11.980469zm0 0" fill="#e0ebfc"/><path d="m301.546875 193.242188h-115.460937c-2.578126 0-4.671876-2.089844-4.671876-4.671876v-2.304687c0-2.578125 2.09375-4.671875 4.671876-4.671875h115.460937c2.578125 0 4.667969 2.089844 4.667969 4.671875v2.304687c0 2.578126-2.089844 4.671876-4.667969 4.671876zm0 0" fill="#e0ebfc"/><path d="m163.941406 110.203125c-.546875 0-.992187-.445313-.992187-.992187v-89.855469c0-.546875.445312-.992188.992187-.992188h159.746094c.542969 0 .992188.445313.992188.992188v89.855469c0 .546874-.449219.992187-.992188.992187zm0 0" fill="#f9cfcf"/><path d="m244.242188 147.480469h-.855469c-4.339844 0-7.894531-3.550781-7.894531-7.890625v-.855469c0-4.34375 3.554687-7.894531 7.894531-7.894531h.855469c4.34375 0 7.894531 3.550781 7.894531 7.894531v.855469c0 4.339844-3.550781 7.890625-7.894531 7.890625zm0 0" fill="#a4c9ff"/><path d="m325.425781 158.140625h-163.074219c-9.546874 0-17.3125-7.765625-17.3125-17.3125v-123.136719c0-9.546875 7.765626-17.3125 17.3125-17.3125h163.074219c9.542969 0 17.308594 7.765625 17.308594 17.3125v123.136719c0 9.542969-7.765625 17.3125-17.308594 17.3125zm-163.074219-149.761719c-5.132812 0-9.3125 4.175782-9.3125 9.3125v123.132813c0 5.136719 4.175782 9.3125 9.3125 9.3125h163.074219c5.132813 0 9.308594-4.175781 9.308594-9.3125v-123.132813c0-5.132812-4.175781-9.3125-9.308594-9.3125zm0 0" fill="#3762cc"/><path d="m301.617188 197.242188h-115.460938c-4.777344 0-8.667969-3.886719-8.667969-8.667969v-2.308594c0-4.78125 3.890625-8.667969 8.667969-8.667969h115.460938c4.78125 0 8.671874 3.886719 8.671874 8.667969v2.308594c0 4.78125-3.890624 8.667969-8.671874 8.667969zm-115.460938-11.644532c-.371094 0-.671875.296875-.671875.667969v2.304687c0 .371094.300781.671876.671875.671876h115.460938c.367187 0 .667968-.300782.667968-.671876v-2.304687c0-.371094-.300781-.667969-.667968-.667969zm0 0" fill="#3762cc"/><path d="m289.648438 185.597656h-91.519532c-1.230468 0-2.390625-.566406-3.148437-1.53125-.757813-.964844-1.027344-2.226562-.738281-3.421875l6.710937-27.453125c.4375-1.792968 2.039063-3.050781 3.886719-3.050781h78.097656c1.84375 0 3.445312 1.257813 3.882812 3.050781l6.710938 27.453125c.292969 1.195313.019531 2.457031-.738281 3.421875-.757813.964844-1.917969 1.53125-3.144531 1.53125zm-86.425782-8h81.328125l-4.753906-19.457031h-71.816406zm0 0" fill="#3762cc"/><g fill="#e0ebfc"><path d="m224.03125 239.808594h7.644531v15.5h-7.644531zm0 0"/><path d="m240.03125 239.808594h7.644531v15.5h-7.644531zm0 0"/><path d="m256.03125 239.808594h7.644531v15.5h-7.644531zm0 0"/></g><path d="m277.851562 303.476562h-68c-6.617187 0-12-5.378906-12-12v-68c0-6.617187 5.382813-12 12-12h68c6.617188 0 12 5.382813 12 12v68c0 6.617188-5.382812 12-12 12zm-68-84c-2.207031 0-4 1.796876-4 4v68c0 2.207032 1.792969 4 4 4h68c2.207032 0 4-1.792968 4-4v-68c0-2.203124-1.792968-4-4-4zm0 0" fill="#3762cc"/><path d="m48.585938 423.074219-5.371094 21.960937h73.214844l-5.367188-21.960937zm0 0" fill="#a4c9ff"/><path d="m145.050781 423.070312h-130.457031c-5.882812 0-10.648438-4.765624-10.648438-10.648437v-98.507813c0-5.882812 4.765626-10.648437 10.648438-10.648437h130.457031c5.882813 0 10.652344 4.765625 10.652344 10.648437v98.507813c-.003906 5.882813-4.769531 10.648437-10.652344 10.648437zm0 0" fill="#a4c9ff"/><path d="m155.699219 413.488281v-14.375h-151.753907v14.375c0 5.292969 4.765626 9.582031 10.648438 9.582031h130.457031c5.882813 0 10.648438-4.289062 10.648438-9.582031zm0 0" fill="#e0ebfc"/><path d="m15.925781 383.125.003907-63.878906c0-2.210938 1.792968-4 4-4l119.789062.007812c2.210938 0 4 1.789063 4 4l-.003906 63.871094c0 2.207031-1.792969 4-4 4h-119.789063c-2.210937 0-4-1.792969-4-4zm0 0" fill="#f9cfcf"/><path d="m80.164062 417.746094h-.683593c-3.472657 0-6.316407-2.839844-6.316407-6.3125v-.683594c0-3.472656 2.84375-6.3125 6.316407-6.3125h.683593c3.472657 0 6.3125 2.839844 6.3125 6.3125v.683594c0 3.472656-2.839843 6.3125-6.3125 6.3125zm0 0" fill="#a4c9ff"/><path d="m145.109375 427.074219h-130.460937c-8.078126 0-14.648438-6.570313-14.648438-14.648438v-98.511719c0-8.074218 6.570312-14.648437 14.648438-14.648437h130.460937c8.078125 0 14.648437 6.574219 14.648437 14.648437v98.511719c0 8.078125-6.570312 14.648438-14.648437 14.648438zm-130.460937-119.808594c-3.664063 0-6.648438 2.984375-6.648438 6.648437v98.511719c0 3.664063 2.980469 6.648438 6.648438 6.648438h130.460937c3.664063 0 6.648437-2.984375 6.648437-6.648438v-98.511719c0-3.664062-2.980468-6.648437-6.648437-6.648437zm0 0" fill="#3762cc"/><path d="m116.488281 449.039062h-73.214843c-1.230469 0-2.390626-.566406-3.148438-1.53125-.757812-.964843-1.027344-2.226562-.738281-3.417968l5.371093-21.964844c.4375-1.789062 2.039063-3.050781 3.882813-3.050781h62.480469c1.84375 0 3.445312 1.261719 3.886718 3.050781l5.367188 21.964844c.292969 1.191406.019531 2.453125-.738281 3.417968-.761719.964844-1.921875 1.53125-3.148438 1.53125zm-68.121093-8h63.023437l-3.414063-13.964843h-56.195312zm0 0" fill="#3762cc"/><path d="m15.925781 383.125.003907-63.878906c0-2.210938 1.792968-4 4-4l119.789062.007812c2.210938 0 4 1.789063 4 4l-.003906 63.871094c0 2.207031-1.792969 4-4 4h-119.789063c-2.210937 0-4-1.792969-4-4zm0 0" fill="#f9cfcf"/><path d="m376.585938 423.074219-5.371094 21.960937h73.214844l-5.367188-21.960937zm0 0" fill="#a4c9ff"/><path d="m473.050781 423.070312h-130.457031c-5.882812 0-10.648438-4.765624-10.648438-10.648437v-98.507813c0-5.882812 4.765626-10.648437 10.648438-10.648437h130.457031c5.882813 0 10.652344 4.765625 10.652344 10.648437v98.507813c-.003906 5.882813-4.769531 10.648437-10.652344 10.648437zm0 0" fill="#a4c9ff"/><path d="m483.699219 413.488281v-14.375h-151.753907v14.375c0 5.292969 4.765626 9.582031 10.648438 9.582031h130.457031c5.882813 0 10.648438-4.289062 10.648438-9.582031zm0 0" fill="#e0ebfc"/><path d="m343.925781 383.125.003907-63.878906c0-2.210938 1.792968-4 4-4l119.789062.007812c2.210938 0 4 1.789063 4 4l-.003906 63.871094c0 2.207031-1.789063 4-4 4h-119.789063c-2.210937 0-4-1.792969-4-4zm0 0" fill="#f9cfcf"/><path d="m408.164062 417.746094h-.683593c-3.472657 0-6.316407-2.839844-6.316407-6.3125v-.683594c0-3.472656 2.84375-6.3125 6.316407-6.3125h.683593c3.472657 0 6.3125 2.839844 6.3125 6.3125v.683594c0 3.472656-2.839843 6.3125-6.3125 6.3125zm0 0" fill="#a4c9ff"/><path d="m473.109375 427.074219h-130.457031c-8.078125 0-14.648438-6.570313-14.648438-14.648438v-98.511719c0-8.074218 6.570313-14.648437 14.648438-14.648437h130.457031c8.078125 0 14.652344 6.574219 14.652344 14.648437v98.511719c-.003907 8.078125-6.574219 14.648438-14.652344 14.648438zm-130.460937-119.808594c-3.664063 0-6.648438 2.984375-6.648438 6.648437v98.511719c0 3.664063 2.980469 6.648438 6.648438 6.648438h130.460937c3.664063 0 6.648437-2.984375 6.648437-6.648438v-98.511719c0-3.664062-2.980468-6.648437-6.648437-6.648437zm0 0" fill="#3762cc"/><path d="m444.488281 449.039062h-73.214843c-1.230469 0-2.390626-.566406-3.148438-1.53125-.757812-.964843-1.027344-2.226562-.738281-3.417968l5.371093-21.964844c.4375-1.789062 2.039063-3.050781 3.882813-3.050781h62.480469c1.84375 0 3.445312 1.261719 3.886718 3.050781l5.367188 21.964844c.292969 1.191406.019531 2.453125-.738281 3.417968-.761719.964844-1.921875 1.53125-3.148438 1.53125zm-68.121093-8h63.023437l-3.414063-13.964843h-56.195312zm0 0" fill="#3762cc"/><path d="m123.742188 455.695312h-87.839844c-3.3125 0-6-2.683593-6-6 0-3.3125 2.6875-6 6-6h87.839844c3.316406 0 6 2.6875 6 6 0 3.316407-2.6875 6-6 6zm0 0" fill="#e0ebfc"/><path d="m123.800781 459.699219h-87.839843c-5.515626 0-10-4.488281-10-10 0-5.515625 4.484374-10 10-10h87.839843c5.511719 0 10 4.484375 10 10 0 5.511719-4.488281 10-10 10zm-87.839843-12c-1.101563 0-2 .894531-2 2 0 1.101562.894531 2 2 2h87.839843c1.101563 0 2-.898438 2-2 0-1.101563-.898437-2-2-2zm0 0" fill="#3762cc"/><path d="m451.742188 455.695312h-87.839844c-3.3125 0-6-2.683593-6-6 0-3.3125 2.6875-6 6-6h87.839844c3.316406 0 6 2.6875 6 6 0 3.316407-2.6875 6-6 6zm0 0" fill="#e0ebfc"/><path d="m451.800781 459.699219h-87.839843c-5.515626 0-10-4.488281-10-10 0-5.515625 4.484374-10 10-10h87.839843c5.511719 0 10 4.484375 10 10 0 5.511719-4.488281 10-10 10zm-87.839843-12c-1.101563 0-2 .894531-2 2 0 1.101562.894531 2 2 2h87.839843c1.101563 0 2-.898438 2-2 0-1.101563-.898437-2-2-2zm0 0" fill="#3762cc"/></svg>