<svg id="Capa_1" enable-background="new 0 0 512 512" height="512" viewBox="0 0 512 512" width="512" xmlns="http://www.w3.org/2000/svg"><g id="XMLID_1112_"><path id="XMLID_1159_" d="m256 321.439c-8.289 0-15.009 6.72-15.009 15.009v136.814c0 8.289 6.72 15.009 15.009 15.009s15.009-6.72 15.009-15.009v-136.814c0-8.289-6.72-15.009-15.009-15.009z" fill="#46f8ff"/><g id="XMLID_4141_"><g><g id="XMLID_686_"><path d="m240.991 336.448v136.814c0 8.289 6.72 15.009 15.009 15.009v-166.832c-8.29 0-15.009 6.72-15.009 15.009z" fill="#9bfbff"/></g></g></g><path id="XMLID_1156_" d="m469.877 402.64h-427.755c-8.289 0-15.009 6.72-15.009 15.009s6.72 15.009 15.009 15.009h427.755c8.289 0 15.009-6.72 15.009-15.009s-6.72-15.009-15.009-15.009z" fill="#46f8ff"/><path id="XMLID_1154_" d="m42.122 402.64c-8.289 0-15.009 6.72-15.009 15.009s6.72 15.009 15.009 15.009h213.878v-30.018z" fill="#9bfbff"/><path id="XMLID_1153_" d="m399.844 69.395h-287.689c-8.289 0-15.009 6.72-15.009 15.009v186.438c0 8.289 6.72 15.009 15.009 15.009h287.689c8.289 0 15.009-6.72 15.009-15.009v-186.438c0-8.289-6.72-15.009-15.009-15.009z" fill="#00429d"/><g id="XMLID_4140_"><path id="XMLID_1152_" d="m97.146 84.404v186.438c0 8.289 6.72 15.009 15.009 15.009h143.845v-216.456h-143.845c-8.289 0-15.009 6.72-15.009 15.009z" fill="#005fe1"/></g><g id="XMLID_1149_"><path id="XMLID_1150_" d="m255.999 512c-16.584 0-30.076-13.492-30.076-30.076s13.492-30.077 30.076-30.077 30.077 13.492 30.077 30.077c0 16.584-13.492 30.076-30.077 30.076z" fill="#eb1d83"/></g><g id="XMLID_4139_"><g id="XMLID_1146_"><path id="XMLID_1147_" d="m45.106 447.725c-16.584 0-30.076-13.492-30.076-30.076s13.492-30.076 30.076-30.076 30.076 13.492 30.076 30.076c.001 16.584-13.491 30.076-30.076 30.076z" fill="#f05ca5"/></g><g id="XMLID_1141_"><path id="XMLID_1144_" d="m466.894 447.726c-16.584 0-30.077-13.492-30.077-30.077 0-16.584 13.492-30.077 30.077-30.077 16.584 0 30.076 13.492 30.076 30.077 0 16.584-13.492 30.077-30.076 30.077z" fill="#eb1d83"/></g></g><g id="XMLID_1131_"><path id="XMLID_1140_" d="m432.225 0h-352.451c-8.289 0-15.009 6.72-15.009 15.009v72.037c0 8.289 6.72 15.009 15.009 15.009h352.451c8.289 0 15.009-6.72 15.009-15.009v-72.037c0-8.289-6.72-15.009-15.009-15.009z" fill="#ced2e1"/><path id="XMLID_1139_" d="m79.774 0c-8.289 0-15.009 6.72-15.009 15.009v72.037c0 8.289 6.72 15.009 15.009 15.009h176.226v-102.055z" fill="#dce1ea"/><g id="XMLID_1137_"><ellipse id="XMLID_1138_" cx="122.522" cy="51.123" fill="#f05ca5" rx="14.846" ry="14.835"/></g><g id="XMLID_1134_"><ellipse id="XMLID_1135_" cx="392.015" cy="51.123" fill="#00cc76" rx="14.846" ry="14.835"/></g><g id="XMLID_1132_"><ellipse id="XMLID_1133_" cx="347.322" cy="51.123" fill="#00d7df" rx="14.846" ry="14.835"/></g></g><g id="XMLID_4138_"><path id="XMLID_1130_" d="m432.225 132.132h-352.451c-8.289 0-15.009 6.72-15.009 15.009v72.037c0 8.289 6.72 15.009 15.009 15.009h352.451c8.289 0 15.009-6.72 15.009-15.009v-72.038c0-8.289-6.72-15.008-15.009-15.008z" fill="#ced2e1"/><path id="XMLID_1129_" d="m79.774 132.131c-8.289 0-15.009 6.72-15.009 15.009v72.037c0 8.289 6.72 15.009 15.009 15.009h176.226v-102.055z" fill="#dce1ea"/><g id="XMLID_1127_"><path id="XMLID_1128_" d="m137.246 182.334c1.224 9.707-6.947 17.869-16.661 16.641-6.612-.836-11.953-6.172-12.786-12.784-1.224-9.707 6.947-17.869 16.661-16.641 6.612.836 11.952 6.172 12.786 12.784z" fill="#f05ca5"/></g><g id="XMLID_1124_"><path id="XMLID_1125_" d="m406.739 182.334c1.224 9.707-6.947 17.869-16.661 16.641-6.612-.836-11.953-6.172-12.786-12.784-1.224-9.707 6.947-17.869 16.661-16.641 6.611.836 11.952 6.172 12.786 12.784z" fill="#00cc76"/></g><g id="XMLID_1122_"><path id="XMLID_1123_" d="m362.046 182.334c1.224 9.707-6.947 17.869-16.661 16.641-6.612-.836-11.953-6.172-12.786-12.784-1.224-9.707 6.947-17.869 16.661-16.641 6.611.836 11.952 6.172 12.786 12.784z" fill="#00d7df"/></g></g><g id="XMLID_4137_"><path id="XMLID_1121_" d="m432.225 264.263h-352.451c-8.289 0-15.009 6.72-15.009 15.009v72.037c0 8.289 6.72 15.009 15.009 15.009h352.451c8.289 0 15.009-6.72 15.009-15.009v-72.037c0-8.289-6.72-15.009-15.009-15.009z" fill="#ced2e1"/><path id="XMLID_1120_" d="m79.774 264.263c-8.289 0-15.009 6.72-15.009 15.009v72.037c0 8.289 6.72 15.009 15.009 15.009h176.226v-102.055z" fill="#dce1ea"/><g id="XMLID_1118_"><path id="XMLID_1119_" d="m137.246 315.064c1.224 9.707-6.947 17.869-16.661 16.641-6.612-.836-11.953-6.172-12.786-12.784-1.224-9.707 6.947-17.869 16.661-16.641 6.612.836 11.952 6.172 12.786 12.784z" fill="#f05ca5"/></g><g id="XMLID_1115_"><path id="XMLID_1116_" d="m406.739 315.064c1.224 9.707-6.947 17.869-16.661 16.641-6.612-.836-11.953-6.172-12.786-12.784-1.224-9.707 6.947-17.869 16.661-16.641 6.611.836 11.952 6.172 12.786 12.784z" fill="#00cc76"/></g><g id="XMLID_1113_"><path id="XMLID_1114_" d="m362.046 315.064c1.224 9.707-6.947 17.869-16.661 16.641-6.612-.836-11.953-6.172-12.786-12.784-1.224-9.707 6.947-17.869 16.661-16.641 6.611.836 11.952 6.172 12.786 12.784z" fill="#00d7df"/></g></g><g id="XMLID_4136_"><path id="XMLID_2104_" d="m255.999 451.847c-16.584 0-30.076 13.492-30.076 30.077 0 16.584 13.493 30.076 30.076 30.076z" fill="#f05ca5"/></g></g></svg>