<?xml version="1.0" encoding="iso-8859-1"?>
<!-- Generator: Adobe Illustrator 19.0.0, SVG Export Plug-In . SVG Version: 6.00 Build 0)  -->
<svg version="1.1" id="Capa_1" xmlns="http://www.w3.org/2000/svg" xmlns:xlink="http://www.w3.org/1999/xlink" x="0px" y="0px"
	 viewBox="0 0 512 512" style="enable-background:new 0 0 512 512;" xml:space="preserve">
<path style="fill:#136EF1;" d="M497,96.443h-18.615c-2.063-10.724-6.278-20.688-12.201-29.412l13.178-13.178
	c5.857-5.858,5.857-15.356,0-21.214c-5.857-5.857-15.355-5.856-21.213,0.001l-13.178,13.178c-8.723-5.922-18.688-10.138-29.41-12.2
	V15c0-8.284-6.716-15-15-15c-8.283,0-15,6.716-15,15v18.618c-10.723,2.063-20.688,6.278-29.412,12.201l-13.178-13.178
	c-5.857-5.858-15.355-5.858-21.213,0c-5.858,5.857-5.858,15.354,0,21.213l13.178,13.178c-5.922,8.724-10.138,18.688-12.199,29.411
	H304.12c-8.284,0-15,6.716-15,15s6.716,15,15,15h18.617c2.063,10.721,6.277,20.686,12.199,29.408l-13.178,13.177
	c-5.857,5.857-5.858,15.355-0.001,21.213c2.929,2.93,6.769,4.395,10.608,4.395c3.838,0,7.678-1.465,10.606-4.393l13.179-13.178
	c8.724,5.923,18.689,10.138,29.411,12.201v18.617c0,8.283,6.717,15,15,15c8.284,0,15-6.717,15-15v-18.617
	c10.723-2.063,20.687-6.278,29.41-12.2l13.176,13.177c2.929,2.929,6.768,4.393,10.606,4.393c3.839,0,7.679-1.465,10.607-4.393
	c5.857-5.857,5.857-15.355,0-21.213l-13.176-13.177c5.922-8.723,10.139-18.688,12.201-29.409H497c8.285,0,15-6.716,15-15
	C512,103.159,505.285,96.443,497,96.443z M400.56,160.707c-27.166,0-49.267-22.1-49.267-49.265
	c0-27.166,22.102-49.267,49.267-49.267c27.166,0,49.267,22.101,49.267,49.267C449.827,138.607,427.727,160.707,400.56,160.707z"/>
<path style="fill:#B2DCFE;" d="M497,385.56h-18.615c-2.063-10.724-6.277-20.689-12.201-29.412l13.178-13.177
	c5.857-5.858,5.857-15.355,0-21.213s-15.355-5.858-21.213,0l-13.177,13.177c-8.724-5.923-18.689-10.139-29.411-12.202v-18.615
	c0-8.285-6.716-15-15-15c-8.283,0-15,6.715-15,15v18.615c-10.725,2.064-20.689,6.279-29.413,12.203l-13.177-13.178
	c-5.857-5.857-15.355-5.857-21.213,0c-5.858,5.858-5.858,15.355,0,21.213l13.178,13.178c-5.922,8.724-10.138,18.689-12.199,29.411
	H304.12c-8.284,0-15,6.716-15,15s6.716,15,15,15h18.617c2.063,10.722,6.277,20.685,12.199,29.408l-13.178,13.178
	c-5.858,5.858-5.858,15.355,0,21.214c2.928,2.929,6.768,4.393,10.607,4.393c3.838,0,7.678-1.465,10.606-4.393l13.18-13.179
	c8.723,5.923,18.688,10.138,29.41,12.201V497c0,8.284,6.717,15,15,15c8.284,0,15-6.716,15-15v-18.618
	c10.722-2.063,20.686-6.278,29.408-12.2l13.178,13.178c2.929,2.929,6.768,4.393,10.606,4.393c3.84,0,7.679-1.464,10.607-4.393
	c5.857-5.858,5.857-15.355,0-21.213l-13.176-13.177c5.922-8.724,10.139-18.688,12.201-29.41H497c8.285,0,15-6.716,15-15
	S505.285,385.56,497,385.56z M400.56,449.824c-27.166,0-49.267-22.102-49.267-49.266c0-27.166,22.102-49.269,49.267-49.269
	c27.166,0,49.267,22.103,49.267,49.269C449.827,427.723,427.727,449.824,400.56,449.824z"/>
<path style="fill:#18A7FC;" d="M256,241.002h-26.385c-2.398-15.105-8.359-29.039-16.99-40.912l18.689-18.69
	c5.858-5.858,5.858-15.355,0-21.214c-5.857-5.857-15.355-5.856-21.213,0.001l-18.689,18.691
	c-11.874-8.632-25.807-14.593-40.912-16.991v-26.388c0-8.283-6.715-15-15-15c-8.283,0-15,6.717-15,15v26.388
	c-15.105,2.398-29.037,8.36-40.911,16.992L60.902,160.19c-5.86-5.857-15.357-5.858-21.215,0c-5.857,5.857-5.858,15.355-0.002,21.214
	l18.69,18.689c-8.631,11.874-14.592,25.805-16.988,40.91H15c-8.283,0-15,6.716-15,15c0,8.283,6.717,15,15,15h26.387
	c2.398,15.103,8.359,29.036,16.99,40.909L39.687,330.6c-5.857,5.857-5.858,15.355-0.002,21.214c2.93,2.929,6.77,4.393,10.608,4.393
	s7.678-1.464,10.606-4.393l18.69-18.69c11.874,8.631,25.806,14.592,40.909,16.99V376.5c0,8.284,6.717,15,15,15
	c8.285,0,15-6.716,15-15v-26.386c15.105-2.398,29.037-8.359,40.91-16.99l18.688,18.69c2.93,2.929,6.769,4.393,10.607,4.393
	s7.678-1.464,10.606-4.393c5.858-5.858,5.858-15.355,0-21.214l-18.688-18.688c8.632-11.874,14.593-25.806,16.991-40.91H256
	c8.285,0,15-6.717,15-15C271,247.718,264.285,241.002,256,241.002z M135.5,321.299c-36.005,0-65.298-29.293-65.298-65.299
	c0-36.005,29.293-65.298,65.298-65.298c36.007,0,65.3,29.293,65.3,65.298C200.8,292.006,171.507,321.299,135.5,321.299z"/>
<path style="fill:#0A4EAF;" d="M415.56,207.883v-18.616c10.721-2.064,20.686-6.278,29.408-12.201l13.176,13.177
	c2.929,2.93,6.768,4.393,10.606,4.393c3.839,0,7.679-1.464,10.607-4.393c5.857-5.858,5.857-15.355,0-21.214l-13.176-13.177
	c5.922-8.722,10.138-18.686,12.201-29.407H497c8.284,0,15-6.717,15-15c0-8.284-6.716-15-15-15h-18.617
	c-2.063-10.724-6.277-20.689-12.201-29.412l13.179-13.181c5.857-5.857,5.856-15.354-0.001-21.212
	c-5.859-5.858-15.357-5.857-21.214,0.001l-13.177,13.178c-8.723-5.923-18.688-10.138-29.408-12.201V15c0-8.284-6.717-15-15-15
	h-0.002v62.176h0.002c27.164,0,49.265,22.101,49.265,49.267s-22.101,49.266-49.265,49.266h-0.002v62.175h0.002
	C408.844,222.883,415.56,216.166,415.56,207.883z"/>
<path style="fill:#86CAFD;" d="M497,385.56h-18.617c-2.063-10.724-6.277-20.689-12.2-29.411l13.177-13.178
	c5.858-5.857,5.858-15.355,0-21.213c-5.857-5.857-15.355-5.857-21.213,0l-13.178,13.178c-8.723-5.923-18.688-10.139-29.408-12.202
	v-18.616c0-8.285-6.717-15-15-15h-0.002v62.174h0.002c27.164,0,49.265,22.102,49.265,49.267s-22.101,49.267-49.265,49.267h-0.002
	V512h0.002c8.283,0,15-6.715,15-15v-18.617c10.721-2.063,20.684-6.279,29.406-12.201l13.178,13.178
	c2.929,2.93,6.768,4.395,10.606,4.395c3.84,0,7.679-1.465,10.607-4.395c5.857-5.857,5.857-15.355,0-21.213l-13.177-13.176
	c5.923-8.724,10.139-18.689,12.202-29.411H497c8.284,0,15-6.716,15-15S505.284,385.56,497,385.56z"/>
<path style="fill:#18A7FC;" d="M256,241.002h-26.385c-2.398-15.105-8.359-29.039-16.99-40.912l18.689-18.69
	c5.858-5.858,5.858-15.355,0-21.214c-5.857-5.857-15.355-5.856-21.213,0.001l-18.689,18.691
	c-11.874-8.632-25.807-14.593-40.912-16.991v-26.388c0-8.283-6.715-15-15-15v70.204c36.007,0,65.3,29.293,65.3,65.298
	c0,36.006-29.293,65.299-65.3,65.299v70.2c8.285,0,15-6.716,15-15v-26.386c15.105-2.398,29.037-8.359,40.91-16.99l18.688,18.69
	c2.93,2.929,6.769,4.393,10.607,4.393s7.678-1.464,10.606-4.393c5.858-5.858,5.858-15.355,0-21.214l-18.688-18.688
	c8.632-11.874,14.593-25.806,16.991-40.91H256c8.285,0,15-6.717,15-15C271,247.718,264.285,241.002,256,241.002z"/>
<g>
</g>
<g>
</g>
<g>
</g>
<g>
</g>
<g>
</g>
<g>
</g>
<g>
</g>
<g>
</g>
<g>
</g>
<g>
</g>
<g>
</g>
<g>
</g>
<g>
</g>
<g>
</g>
<g>
</g>
</svg>
