<?xml version="1.0" encoding="iso-8859-1"?>
<!-- Generator: Adobe Illustrator 19.0.0, SVG Export Plug-In . SVG Version: 6.00 Build 0)  -->
<svg version="1.1" id="Capa_1" xmlns="http://www.w3.org/2000/svg" xmlns:xlink="http://www.w3.org/1999/xlink" x="0px" y="0px"
	 viewBox="0 0 512 512" style="enable-background:new 0 0 512 512;" xml:space="preserve">
<path style="fill:#303C42;" d="M507.48,279.934l0.155-0.069L415.698,74.229c-8.583-19.177-27.688-31.563-48.688-31.563H144.99
	c-21,0-40.104,12.385-48.688,31.563L4.365,279.865l0.155,0.069C1.717,285.613,0,291.915,0,298.667v128
	c0,23.531,19.135,42.667,42.667,42.667h426.667c23.531,0,42.667-19.135,42.667-42.667v-128
	C512,291.915,510.283,285.613,507.48,279.934z"/>
<path style="fill:#7C858D;" d="M115.781,82.938C120.927,71.438,132.396,64,144.99,64H367.01c12.594,0,24.063,7.438,29.208,18.938
	l77.576,173.513c-1.487-0.158-2.934-0.451-4.461-0.451H42.667c-1.527,0-2.974,0.293-4.461,0.451L115.781,82.938z"/>
<path style="opacity:0.1;enable-background:new    ;" d="M396.219,82.938C391.073,71.438,379.604,64,367.01,64h-32.764
	l46.201,103.337c11.883,26.578-7.483,56.57-36.596,56.533c-76.72-0.096-207.411-0.202-290.96-0.264l-14.685,32.845
	c1.487-0.158,2.934-0.451,4.461-0.451h426.667c1.527,0,2.974,0.293,4.461,0.451L396.219,82.938z"/>
<path style="fill:#5C6671;" d="M490.667,426.667c0,11.76-9.573,21.333-21.333,21.333H42.667c-11.76,0-21.333-9.573-21.333-21.333
	v-128c0-11.76,9.573-21.333,21.333-21.333h426.667c11.76,0,21.333,9.573,21.333,21.333V426.667z"/>
<path style="fill:#303C42;" d="M148.698,376.771l-0.182-0.857c-0.069-0.362-0.148-0.717-0.228-1.077l-5.413-25.525
	C139.25,332.333,124.021,320,106.656,320c-17.354,0-32.583,12.323-36.208,29.302l-5.461,25.621c-0.065,0.303-0.133,0.6-0.193,0.905
	l-0.201,0.943c-0.083,0.393,0.027,0.766-0.012,1.158c-0.289,2-0.613,3.992-0.613,6.072c0,23.542,19.146,42.688,42.677,42.688
	c23.542,0,42.688-19.146,42.688-42.688c0-2.12-0.326-4.152-0.625-6.19C148.669,377.458,148.772,377.125,148.698,376.771z"/>
<circle style="fill:#FFCA28;" cx="106.645" cy="384" r="21.333"/>
<path style="fill:#303C42;" d="M276.719,376.771l-0.181-0.854c-0.07-0.367-0.151-0.724-0.232-1.089l-5.421-25.505
	C267.271,332.333,252.052,320,234.677,320c-17.354,0-32.583,12.323-36.198,29.292l-5.453,25.54
	c-0.079,0.359-0.159,0.711-0.229,1.073l-0.182,0.855c-0.079,0.368,0.027,0.717-0.013,1.085c-0.297,2.027-0.622,4.047-0.622,6.155
	c0,23.542,19.146,42.688,42.688,42.688s42.688-19.146,42.688-42.688c0-2.12-0.326-4.151-0.625-6.189
	C276.69,377.46,276.793,377.125,276.719,376.771z"/>
<circle style="fill:#FFCA28;" cx="234.667" cy="384" r="21.333"/>
<g>
	<circle style="fill:#303C42;" cx="426.667" cy="362.667" r="21.333"/>
	<circle style="fill:#303C42;" cx="341.333" cy="362.667" r="21.333"/>
</g>
<linearGradient id="SVGID_1_" gradientUnits="userSpaceOnUse" x1="-40.4233" y1="630.6607" x2="-32.1363" y2="622.3688" gradientTransform="matrix(21.3333 0 0 -21.3333 996.3334 13791.667)">
	<stop  offset="0" style="stop-color:#000000;stop-opacity:0.1"/>
	<stop  offset="1" style="stop-color:#000000;stop-opacity:0"/>
</linearGradient>
<path style="fill:url(#SVGID_1_);" d="M264.409,335.145l-0.206,0.23c3.057,4.135,5.565,8.694,6.682,13.948l5.421,25.505
	c0.081,0.365,0.161,0.721,0.232,1.089l0.181,0.854c0.074,0.354-0.029,0.689,0.01,1.04c0.299,2.038,0.625,4.069,0.625,6.189
	c0,23.542-19.146,42.688-42.688,42.688c-20.98,0-38.374-15.234-41.931-35.206l-56.337-56.337l-0.208,0.233
	c3.057,4.133,5.565,8.688,6.685,13.935l5.413,25.525c0.079,0.359,0.159,0.715,0.228,1.077l0.182,0.857
	c0.074,0.354-0.029,0.688,0.01,1.039c0.299,2.038,0.625,4.07,0.625,6.19c0,23.542-19.146,42.688-42.688,42.688
	c-8.822,0-17.025-2.691-23.836-7.296L111.417,448h265.848L264.409,335.145z"/>
<linearGradient id="SVGID_2_" gradientUnits="userSpaceOnUse" x1="-44.5342" y1="637.9755" x2="-22.0307" y2="627.4833" gradientTransform="matrix(21.3333 0 0 -21.3333 996.3334 13791.667)">
	<stop  offset="0" style="stop-color:#FFFFFF;stop-opacity:0.2"/>
	<stop  offset="1" style="stop-color:#FFFFFF;stop-opacity:0"/>
</linearGradient>
<path style="fill:url(#SVGID_2_);" d="M507.48,279.934l0.155-0.069L415.698,74.229c-8.583-19.177-27.688-31.563-48.688-31.563
	H144.99c-21,0-40.104,12.385-48.688,31.563L4.365,279.865l0.155,0.069C1.717,285.613,0,291.915,0,298.667v128
	c0,23.531,19.135,42.667,42.667,42.667h426.667c23.531,0,42.667-19.135,42.667-42.667v-128
	C512,291.915,510.283,285.613,507.48,279.934z"/>
<g>
</g>
<g>
</g>
<g>
</g>
<g>
</g>
<g>
</g>
<g>
</g>
<g>
</g>
<g>
</g>
<g>
</g>
<g>
</g>
<g>
</g>
<g>
</g>
<g>
</g>
<g>
</g>
<g>
</g>
</svg>
