<?xml version="1.0" encoding="iso-8859-1"?>
<!-- Generator: Adobe Illustrator 19.0.0, SVG Export Plug-In . SVG Version: 6.00 Build 0)  -->
<svg version="1.1" id="Capa_1" xmlns="http://www.w3.org/2000/svg" xmlns:xlink="http://www.w3.org/1999/xlink" x="0px" y="0px"
	 viewBox="0 0 512 512" style="enable-background:new 0 0 512 512;" xml:space="preserve">
<path style="fill:#303C42;" d="M405.333,42.667h-44.632c-4.418-12.389-16.147-21.333-30.035-21.333h-32.229
	C288.417,8.042,272.667,0,256,0c-16.667,0-32.417,8.042-42.438,21.333h-32.229c-13.888,0-25.617,8.944-30.035,21.333h-44.632
	C83.146,42.667,64,61.802,64,85.333v384C64,492.865,83.146,512,106.667,512h298.667C428.854,512,448,492.865,448,469.333v-384
	C448,61.802,428.854,42.667,405.333,42.667z"/>
<path style="fill:#78909C;" d="M170.667,53.333c0-5.885,4.792-10.667,10.667-10.667h37.917c3.792,0,7.313-2.021,9.208-5.302
	c5.854-10.042,16.146-16.031,27.542-16.031c11.396,0,21.688,5.99,27.542,16.031c1.896,3.281,5.417,5.302,9.208,5.302h37.917
	c5.875,0,10.667,4.781,10.667,10.667V64c0,11.76-9.563,21.333-21.333,21.333H192c-11.771,0-21.333-9.573-21.333-21.333V53.333z"/>
<path style="fill:#FFFFFF;" d="M426.667,469.333c0,11.76-9.563,21.333-21.333,21.333H106.667c-11.771,0-21.333-9.573-21.333-21.333
	v-384c0-11.76,9.563-21.333,21.333-21.333h42.667c0,23.531,19.146,42.667,42.667,42.667h128c23.521,0,42.667-19.135,42.667-42.667
	h42.667c11.771,0,21.333,9.573,21.333,21.333V469.333z"/>
<linearGradient id="SVGID_1_" gradientUnits="userSpaceOnUse" x1="-35.761" y1="645.3397" x2="-23.3951" y2="632.9738" gradientTransform="matrix(21.3333 0 0 -21.3333 996.3334 13791.667)">
	<stop  offset="0" style="stop-color:#000000;stop-opacity:0.1"/>
	<stop  offset="1" style="stop-color:#000000;stop-opacity:0"/>
</linearGradient>
<path style="fill:url(#SVGID_1_);" d="M405.333,64h-42.667c0,23.531-19.146,42.667-42.667,42.667H192
	c-11.289,0-21.501-4.487-29.141-11.673l263.807,263.806V85.333C426.667,73.573,417.104,64,405.333,64z"/>
<path style="fill:#FFFFFF;" d="M160.122,92.069L160,92.134l1.008,1.008C160.69,92.803,160.43,92.418,160.122,92.069z"/>
<g>
	<path style="fill:#303C42;" d="M373.333,192h-128c-5.896,0-10.667,4.771-10.667,10.667s4.771,10.667,10.667,10.667h128
		c5.896,0,10.667-4.771,10.667-10.667S379.229,192,373.333,192z"/>
	<path style="fill:#303C42;" d="M373.333,298.667h-128c-5.896,0-10.667,4.771-10.667,10.667S239.438,320,245.333,320h128
		c5.896,0,10.667-4.771,10.667-10.667S379.229,298.667,373.333,298.667z"/>
	<path style="fill:#303C42;" d="M373.333,405.333h-128c-5.896,0-10.667,4.771-10.667,10.667c0,5.896,4.771,10.667,10.667,10.667h128
		c5.896,0,10.667-4.771,10.667-10.667C384,410.104,379.229,405.333,373.333,405.333z"/>
	<circle style="fill:#303C42;" cx="160" cy="202.667" r="21.333"/>
	<circle style="fill:#303C42;" cx="160" cy="309.333" r="21.333"/>
	<circle style="fill:#303C42;" cx="160" cy="416" r="21.333"/>
</g>
<path style="opacity:0.1;enable-background:new    ;" d="M160,426.667c-9.874,0-17.832-6.879-20.254-16
	c-0.464,1.746-1.079,3.443-1.079,5.333c0,11.763,9.569,21.333,21.333,21.333c11.764,0,21.333-9.57,21.333-21.333
	c0-1.891-0.616-3.587-1.079-5.333C177.832,419.788,169.874,426.667,160,426.667z"/>
<path style="opacity:0.1;enable-background:new    ;" d="M160,320c-9.874,0-17.832-6.879-20.254-16
	c-0.464,1.746-1.079,3.443-1.079,5.333c0,11.763,9.569,21.333,21.333,21.333c11.764,0,21.333-9.57,21.333-21.333
	c0-1.891-0.616-3.587-1.079-5.333C177.832,313.121,169.874,320,160,320z"/>
<path style="opacity:0.1;enable-background:new    ;" d="M160,213.333c-9.874,0-17.832-6.879-20.254-16
	c-0.464,1.746-1.079,3.443-1.079,5.333C138.667,214.43,148.236,224,160,224c11.764,0,21.333-9.57,21.333-21.333
	c0-1.891-0.616-3.587-1.079-5.333C177.832,206.454,169.874,213.333,160,213.333z"/>
<linearGradient id="SVGID_2_" gradientUnits="userSpaceOnUse" x1="-45.7127" y1="638.6164" x2="-23.6936" y2="628.3524" gradientTransform="matrix(21.3333 0 0 -21.3333 996.3334 13791.667)">
	<stop  offset="0" style="stop-color:#FFFFFF;stop-opacity:0.2"/>
	<stop  offset="1" style="stop-color:#FFFFFF;stop-opacity:0"/>
</linearGradient>
<path style="fill:url(#SVGID_2_);" d="M405.333,42.667h-44.632c-4.418-12.389-16.147-21.333-30.035-21.333h-32.229
	C288.417,8.042,272.667,0,256,0c-16.667,0-32.417,8.042-42.438,21.333h-32.229c-13.888,0-25.617,8.944-30.035,21.333h-44.632
	C83.146,42.667,64,61.802,64,85.333v384C64,492.865,83.146,512,106.667,512h298.667C428.854,512,448,492.865,448,469.333v-384
	C448,61.802,428.854,42.667,405.333,42.667z"/>
<g>
</g>
<g>
</g>
<g>
</g>
<g>
</g>
<g>
</g>
<g>
</g>
<g>
</g>
<g>
</g>
<g>
</g>
<g>
</g>
<g>
</g>
<g>
</g>
<g>
</g>
<g>
</g>
<g>
</g>
</svg>
