<?xml version="1.0" encoding="iso-8859-1"?>
<!-- Generator: Adobe Illustrator 19.0.0, SVG Export Plug-In . SVG Version: 6.00 Build 0)  -->
<svg version="1.1" id="Capa_1" xmlns="http://www.w3.org/2000/svg" xmlns:xlink="http://www.w3.org/1999/xlink" x="0px" y="0px"
	 viewBox="0 0 512 512" style="enable-background:new 0 0 512 512;" xml:space="preserve">
<path style="fill:#37474F;" d="M72,0h240c13.255,0,24,10.745,24,24v464c0,13.255-10.745,24-24,24H72c-13.255,0-24-10.745-24-24V24
	C48,10.745,58.745,0,72,0z"/>
<rect x="80" y="64" style="fill:#ECEFF1;" width="256" height="352"/>
<g>
	<path style="fill:#00BCD4;" d="M328.768,20.672c-3.023-4.842-9.399-6.318-14.241-3.295c-1.335,0.833-2.462,1.96-3.295,3.295
		C299.894,37.273,291.995,55.977,288,75.68c-1.041,18.779,13.233,34.894,32,36.128c18.767-1.234,33.041-17.349,32-36.128
		C348.005,55.977,340.106,37.273,328.768,20.672z"/>
	<path style="fill:#00BCD4;" d="M424.768,121.6c-3.676-4.842-10.581-5.788-15.424-2.112c-0.797,0.605-1.507,1.316-2.112,2.112
		c-11.184,14.37-19.111,30.999-23.232,48.736c0,17.673,14.327,32,32,32s32-14.327,32-32
		C443.879,152.599,435.952,135.97,424.768,121.6z"/>
	<path style="fill:#00BCD4;" d="M215.232,185.6c-11.197,14.362-19.125,30.994-23.232,48.736c0,17.673,14.327,32,32,32
		s32-14.327,32-32c-4.107-17.742-12.035-34.374-23.232-48.736c-3.676-4.842-10.581-5.788-15.424-2.112
		C216.548,184.093,215.837,184.803,215.232,185.6z"/>
</g>
<path d="M304,512H80c-17.673,0-32-14.327-32-32V32C48,14.327,62.327,0,80,0h160c8.837,0,16,7.163,16,16s-7.163,16-16,16H80v448h224
	V176c0-8.837,7.163-16,16-16s16,7.163,16,16v304C336,497.673,321.673,512,304,512z"/>
<path d="M224,96H64c-8.837,0-16-7.163-16-16s7.163-16,16-16h160c8.837,0,16,7.163,16,16S232.837,96,224,96z"/>
<path d="M320,416H64c-8.837,0-16-7.163-16-16s7.163-16,16-16h256c8.837,0,16,7.163,16,16S328.837,416,320,416z"/>
<path d="M192.64,464c-8.837,0-16-7.163-16-16s7.163-16,16-16h0.32c8.837,0,16,7.163,16,16s-7.163,16-16,16H192.64z"/>
<path d="M320,128c-26.51,0-48-21.49-48-48c6.194-26.596,18.083-51.532,34.848-73.088c5.543-7.264,15.925-8.659,23.188-3.116
	c1.173,0.895,2.221,1.943,3.116,3.116C349.917,28.468,361.806,53.404,368,80C368,106.51,346.51,128,320,128z M320,45.664
	C312.878,56.187,307.477,67.778,304,80c0,8.837,7.163,16,16,16s16-7.163,16-16C332.521,67.779,327.12,56.189,320,45.664z"/>
<path d="M416,224c-26.51,0-48-21.49-48-48c6.194-26.596,18.083-51.532,34.848-73.088c5.543-7.264,15.925-8.659,23.188-3.116
	c1.173,0.895,2.221,1.943,3.116,3.116C445.917,124.468,457.806,149.404,464,176C464,202.51,442.51,224,416,224z M416,141.664
	c-7.122,10.523-12.523,22.114-16,34.336c0,8.837,7.163,16,16,16s16-7.163,16-16C428.521,163.779,423.12,152.189,416,141.664z"/>
<path d="M224,288c-26.51,0-48-21.49-48-48c6.194-26.596,18.083-51.532,34.848-73.088c5.543-7.264,15.925-8.659,23.188-3.116
	c1.173,0.895,2.221,1.943,3.116,3.116C253.917,188.468,265.806,213.404,272,240C272,266.51,250.51,288,224,288z M224,205.664
	c-7.122,10.523-12.523,22.114-16,34.336c0,8.837,7.163,16,16,16s16-7.163,16-16C236.521,227.779,231.12,216.189,224,205.664z"/>
<g>
</g>
<g>
</g>
<g>
</g>
<g>
</g>
<g>
</g>
<g>
</g>
<g>
</g>
<g>
</g>
<g>
</g>
<g>
</g>
<g>
</g>
<g>
</g>
<g>
</g>
<g>
</g>
<g>
</g>
</svg>
