<svg height="512" viewBox="0 0 56 60" width="512" xmlns="http://www.w3.org/2000/svg"><g id="Page-1" fill="none" fill-rule="evenodd"><g id="047---1080" fill-rule="nonzero"><path id="Shape" d="m51 51c2.209139 0 4-1.790861 4-4v-42c0-2.209139-1.790861-4-4-4h-46c-2.209139 0-4 1.790861-4 4v42c0 2.209139 1.790861 4 4 4" fill="#02a9f4"/><path id="Shape" d="m51 1h-3c2.209139 0 4 1.790861 4 4v42c0 2.209139-1.790861 4-4 4h3c2.209139 0 4-1.790861 4-4v-42c0-2.209139-1.790861-4-4-4z" fill="#0377bc"/><rect id="Rectangle-path" fill="#ffdc00" height="18" rx="1" width="46" x="5" y="41"/><path id="Shape" d="m50 41h-3c.5522847 0 1 .4477153 1 1v16c0 .5522847-.4477153 1-1 1h3c.5522847 0 1-.4477153 1-1v-16c0-.5522847-.4477153-1-1-1z" fill="#fec108"/><path id="Shape" d="m5 37 16-17 14.835 17.143" fill="#60a917"/><path id="Shape" d="m32.823 37.129 3.012.014-14.835-17.143-1.563 1.661z" fill="#549414"/><path id="Shape" d="m28 37 11-14 12 14" fill="#008a00"/><path id="Shape" d="m39 23-1.435 1.826 10.435 12.174h3z" fill="#007900"/><circle id="Oval" cx="47" cy="9" fill="#ffdc00" r="4"/><path id="Shape" d="m47 5c-.5146843.00216946-1.0240724.10404706-1.5.3 1.5110147.60851068 2.5007405 2.07405844 2.5007405 3.703 0 1.6289416-.9897258 3.0944893-2.5007405 3.703 1.496414.6077595 3.211506.2559465 4.3478056-.8918556s1.4708211-2.86635044.8480212-4.35656747-2.0807039-2.45966481-3.6958268-2.45757693z" fill="#fec108"/><path id="Shape" d="m19 12c0 1.6568542-1.3431458 3-3 3h-8c-1.65685425 0-3-1.3431458-3-3s1.34314575-3 3-3c.45052504-.00030464.89516717.10230508 1.3.3-.19769492-.40483283-.30030464-.84947496-.3-1.3.00000005-1.65685421 1.3431458-2.99999991 3-2.99999991s3 1.3431457 3 2.99999991c.0003046.45052504-.1023051.89516717-.3 1.3.4048328-.19769492.849475-.30030464 1.3-.3 1.6568542 0 3 1.3431458 3 3z" fill="#f5f5f5"/><path id="Shape" d="m38 17.6c-.0472366 1.3726964-1.1983025 2.4472036-2.571 2.4h-6.858c-.897945.063534-1.7562439-.3795024-2.2245683-1.1482768-.4683245-.7687744-.4683245-1.734672 0-2.5034464.4683244-.7687744 1.3266233-1.2118108 2.2245683-1.1482768.3845456-.0005861.7647506.0812517 1.115.24-.1686732-.3207202-.2568711-.6776299-.257-1.04.0924119-1.3518705 1.2159746-2.4012502 2.571-2.4012502s2.4785881 1.0493797 2.571 2.4012502c-.0001289.3623701-.0883268.7192798-.257 1.04.3502494-.1587483.7304544-.2405861 1.115-.24 1.3726975-.0472036 2.5237634 1.0273036 2.571 2.4z" fill="#f5f5f5"/><g fill="#000"><path id="Shape" d="m0 47c.00299829 2.3751008 1.6735832 4.4215673 4 4.9v6.1c0 1.1045695.8954305 2 2 2h44c1.1045695 0 2-.8954305 2-2v-6.1c2.3264168-.4784327 3.9970017-2.5248992 4-4.9v-42c-.0033061-2.76005315-2.2399468-4.99669388-5-5h-46c-2.76005315.00330612-4.99669388 2.23994685-5 5zm6 11v-16h44v16zm-4-53c0-1.65685425 1.34314575-3 3-3h46c1.6568542 0 3 1.34314575 3 3v42c-.0052514 1.2667854-.8056491 2.3937454-2 2.816v-7.816c0-1.1045695-.8954305-2-2-2h-44c-1.1045695 0-2 .8954305-2 2v7.816c-1.19435087-.4222546-1.99474861-1.5492146-2-2.816z"/><path id="Shape" d="m4.314 37.729c.19321778.1821923.45097152.2800449.71641842.2719783s.51678329-.1213898.69858158-.3149783l15.24-16.194 9.405 10.868-3.16 4.022c-.338519.4334631-.2634624 1.0589346.168 1.4.4334631.338519 1.0589346.2634624 1.4-.168l10.251-13.038 11.208 13.074c.2275866.2869618.5938406.4265481.9546891.3638502.3608486-.0626979.6585514-.3176476.7760016-.66456.1174502-.3469123.0358542-.7302769-.2126907-.9992902l-12-14c-.2016964-.2177291-.4832639-.3440735-.78-.35-.2993271.0063943-.5800419.1465682-.765.382l-6.582 8.377-9.876-11.413c-.1850468-.2143336-.452286-.340168-.7353831-.3462684s-.5555089.1081051-.7496169.3142684l-16 17c-.18219226.1932178-.28004488.4509715-.2719783.7164184.00806659.2654469.1213898.5167833.3149783.6985816z"/><path id="Shape" d="m47 14c2.7614237 0 5-2.2385763 5-5 0-2.76142375-2.2385763-5-5-5s-5 2.23857625-5 5c.0033061 2.7600532 2.2399468 4.9966939 5 5zm0-8c1.6568542 0 3 1.34314575 3 3 0 1.6568542-1.3431458 3-3 3s-3-1.3431458-3-3c0-1.65685425 1.3431458-3 3-3z"/><path id="Shape" d="m8 16h8c2.209139 0 4-1.790861 4-4s-1.790861-4-4-4c0-2.209139-1.790861-4-4-4s-4 1.790861-4 4c-2.209139 0-4 1.790861-4 4s1.790861 4 4 4zm0-6c.29885094-.00016368.59375336.0682592.862.2.38386757.1880893.84484313.1113792 1.1471111-.1908889.3022681-.30226797.3789782-.76324353.1908889-1.1471111-.1317408-.26824664-.20016368-.56314906-.2-.862 0-1.10456948.8954305-1.99999994 2-1.99999994s2 .89543046 2 1.99999994c.0001637.29885094-.0682592.59375336-.2.862-.1880893.38386757-.1113792.84484313.1908889 1.1471111.302268.3022681.7632435.3789782 1.1471111.1908889.2682466-.1317408.5631491-.20016368.862-.2 1.1045695 0 2 .8954305 2 2s-.8954305 2-2 2h-8c-1.1045695 0-2-.8954305-2-2s.8954305-2 2-2z"/><path id="Shape" d="m28.571 21h6.858c1.9236034.0436348 3.5202663-1.4765707 3.571-3.4-.0449792-1.8723969-1.5622407-3.3741986-3.435-3.4-.1934073-1.8233264-1.7314446-3.2068466-3.565-3.2068466s-3.3715927 1.3835202-3.565 3.2068466c-1.8727593.0258014-3.3900208 1.5276031-3.435 3.4.0507337 1.9234293 1.6473966 3.4436348 3.571 3.4zm0-4.8c.2415136-.0009379.4803502.0505826.7.151.3885158.1763603.8461356.0867883 1.1394881-.2230371s.3578143-.7716518.1605119-1.1499629c-.0940552-.1781351-.1431462-.376559-.143-.578.0903376-.7993765.7665351-1.4034613 1.571-1.4034613s1.4806624.6040848 1.571 1.4034613c.0001462.201441-.0489448.3998649-.143.578-.1973024.3783111-.1328406.8401375.1605119 1.1499629s.7509723.3993974 1.1394881.2230371c.2196498-.1004174.4584864-.1519379.7-.151.8188321-.0416553 1.5193995.581863 1.573 1.4-.0536018.8173191-.7529282 1.4405253-1.571 1.4h-6.858c-.8180718.0405253-1.5173982-.5826809-1.571-1.4.0536018-.8173191.7529282-1.4405253 1.571-1.4z"/><path id="Shape" d="m15 54h-1v-9c-.0000863-.4043959-.2437275-.7689341-.6173454-.923678-.373618-.1547439-.8036603-.0692299-1.0896546.216678l-2 2c-.37897221.3923789-.37355237 1.0160848.0121814 1.4018186.3857338.3857338 1.0094397.3911536 1.4018186.0121814l.293-.293v6.586h-1c-.5522847 0-1 .4477153-1 1s.4477153 1 1 1h4c.5522847 0 1-.4477153 1-1s-.4477153-1-1-1z"/><path id="Shape" d="m22 44c-2.209139 0-4 1.790861-4 4v4c0 2.209139 1.790861 4 4 4s4-1.790861 4-4v-4c0-2.209139-1.790861-4-4-4zm2 8c0 1.1045695-.8954305 2-2 2s-2-.8954305-2-2v-4c0-1.1045695.8954305-2 2-2s2 .8954305 2 2z"/><path id="Shape" d="m42 44c-2.209139 0-4 1.790861-4 4v4c0 2.209139 1.790861 4 4 4s4-1.790861 4-4v-4c0-2.209139-1.790861-4-4-4zm2 8c0 1.1045695-.8954305 2-2 2s-2-.8954305-2-2v-4c0-1.1045695.8954305-2 2-2s2 .8954305 2 2z"/><path id="Shape" d="m36 47.5c-.1490337-2.0656278-1.9328688-3.6264835-4-3.5-2.0671312-.1264835-3.8509663 1.4343722-4 3.5.0143247.9709147.4568179 1.8859131 1.209 2.5-.7521821.6140869-1.1946753 1.5290853-1.209 2.5.1490337 2.0656278 1.9328688 3.6264835 4 3.5 2.0671312.1264835 3.8509663-1.4343722 4-3.5-.0143247-.9709147-.4568179-1.8859131-1.209-2.5.7521821-.6140869 1.1946753-1.5290853 1.209-2.5zm-2 5c0 .813-.916 1.5-2 1.5s-2-.687-2-1.5.916-1.5 2-1.5 2 .687 2 1.5zm-4-5c0-.813.916-1.5 2-1.5s2 .687 2 1.5-.916 1.5-2 1.5-2-.687-2-1.5z"/><path id="Shape" d="m46 16v1c0 .5522847.4477153 1 1 1s1-.4477153 1-1v-1c0-.5522847-.4477153-1-1-1s-1 .4477153-1 1z"/><path id="Shape" d="m39 10h1c.5522847 0 1-.44771525 1-1s-.4477153-1-1-1h-1c-.5522847 0-1 .44771525-1 1s.4477153 1 1 1z"/></g></g></g></svg>