<svg id="Layer_1" enable-background="new 0 0 512 512" height="512" viewBox="0 0 512 512" width="512" xmlns="http://www.w3.org/2000/svg"><path d="m368 432h-224c-35.346 0-64-28.654-64-64v-224c0-35.346 28.654-64 64-64h224c35.346 0 64 28.654 64 64v224c0 35.346-28.654 64-64 64z" fill="#999"/><path d="m352 368h-192c-8.837 0-16-7.163-16-16v-192c0-8.837 7.163-16 16-16h192c8.837 0 16 7.163 16 16v192c0 8.837-7.163 16-16 16z" fill="#b2b2b2"/><path d="m320 336h-64c-8.837 0-16-7.164-16-16s7.163-16 16-16h48v-48c0-8.836 7.163-16 16-16s16 7.164 16 16v64c0 8.836-7.163 16-16 16z" fill="#ffe773"/><g fill="#efd66c"><path d="m224 0c-8.837 0-16 7.164-16 16v80c0 8.836 7.163 16 16 16s16-7.164 16-16v-80c0-8.836-7.163-16-16-16z"/><path d="m288 0c-8.837 0-16 7.164-16 16v80c0 8.836 7.163 16 16 16s16-7.164 16-16v-80c0-8.836-7.163-16-16-16z"/><path d="m352 112c8.837 0 16-7.164 16-16v-64h32c8.837 0 16-7.164 16-16s-7.163-16-16-16h-48c-8.837 0-16 7.164-16 16v80c0 8.836 7.163 16 16 16z"/><path d="m160 0h-48c-8.837 0-16 7.164-16 16s7.163 16 16 16h32v64c0 8.836 7.163 16 16 16s16-7.164 16-16v-80c0-8.836-7.163-16-16-16z"/><path d="m288 400c-8.837 0-16 7.164-16 16v80c0 8.836 7.163 16 16 16s16-7.164 16-16v-80c0-8.836-7.163-16-16-16z"/><path d="m224 400c-8.837 0-16 7.164-16 16v80c0 8.836 7.163 16 16 16s16-7.164 16-16v-80c0-8.836-7.163-16-16-16z"/><path d="m160 400c-8.837 0-16 7.164-16 16v64h-32c-8.837 0-16 7.164-16 16s7.163 16 16 16h48c8.837 0 16-7.164 16-16v-80c0-8.836-7.163-16-16-16z"/><path d="m400 480h-32v-64c0-8.836-7.163-16-16-16s-16 7.164-16 16v80c0 8.836 7.163 16 16 16h48c8.837 0 16-7.164 16-16s-7.163-16-16-16z"/><path d="m16 304h80c8.837 0 16-7.164 16-16s-7.163-16-16-16h-80c-8.837 0-16 7.164-16 16s7.163 16 16 16z"/><path d="m16 240h80c8.837 0 16-7.164 16-16s-7.163-16-16-16h-80c-8.837 0-16 7.164-16 16s7.163 16 16 16z"/><path d="m16 176h80c8.837 0 16-7.164 16-16s-7.163-16-16-16h-64v-32c0-8.836-7.163-16-16-16s-16 7.164-16 16v48c0 8.836 7.163 16 16 16z"/><path d="m112 352c0-8.836-7.163-16-16-16h-80c-8.837 0-16 7.164-16 16v48c0 8.836 7.163 16 16 16s16-7.164 16-16v-32h64c8.837 0 16-7.164 16-16z"/><path d="m496 208h-80c-8.837 0-16 7.164-16 16s7.163 16 16 16h80c8.837 0 16-7.164 16-16s-7.163-16-16-16z"/><path d="m496 272h-80c-8.837 0-16 7.164-16 16s7.163 16 16 16h80c8.837 0 16-7.164 16-16s-7.163-16-16-16z"/><path d="m496 96c-8.837 0-16 7.164-16 16v32h-64c-8.837 0-16 7.164-16 16s7.163 16 16 16h80c8.837 0 16-7.164 16-16v-48c0-8.836-7.163-16-16-16z"/><path d="m496 336h-80c-8.837 0-16 7.164-16 16s7.163 16 16 16h64v32c0 8.836 7.163 16 16 16s16-7.164 16-16v-48c0-8.836-7.163-16-16-16z"/></g></svg>