<svg id="Layer_5" enable-background="new 0 0 64 64" height="512" viewBox="0 0 64 64" width="512" xmlns="http://www.w3.org/2000/svg"><g><g><path d="m58.966 35.174c-.24-3.056-1.911-18.339-3.29-25.446l-.146-.754-.766-.054c-4.302-.298-8.448-1.407-12.325-3.297l-.439-.214-.438.214c-3.885 1.894-8.041 3.004-12.354 3.299l-.761.053-.151.747c-1.151 5.706-2.526 17.012-3.075 22.979l-.045.493.045.042 2.139-.951c.422-.188.879-.285 1.34-.285 1.822 0 3.3 1.477 3.3 3.3v2.7h2c1.105 0 2 .895 2 2v2.921c1.073.501 2.189.999 3.337 1.485.807.341 1.666.514 2.554.514.983 0 1.935-.214 2.824-.636 8.264-3.913 12.702-6.947 13.992-8.357l.293-.321z" fill="#f0bc5e"/></g></g><g><g><g><g><path d="m228.548 40.27-4.548-3.739-4.548 3.738-2.066-1.538 2.246-5.17-4.864-3.197.946-2.36 5.545-.009 1.377-4.995h2.726l1.397 5 5.525.002.948 2.362-4.864 3.197 2.246 5.17z" fill="#f0bc5e"/></g></g></g><g><path d="m-226-376h-4v-7h-2v9h2l-4 5.333-4-5.333h2v-9h-2v7h-4l8 10.667z"/><path d="m-249-343c0 1.654 1.346 3 3 3s3-1.346 3-3-1.346-3-3-3-3 1.346-3 3zm4 0c0 .551-.449 1-1 1s-1-.449-1-1 .449-1 1-1 1 .449 1 1z"/><path d="m-228-347h-12.264c.423.604.753 1.277.969 2h11.295c.551 0 1 .449 1 1v2c0 .551-.449 1-1 1h-10.358l-.78-.619c-.141.703-.388 1.368-.724 1.978l12.199 9.668.142.094c.234.128.405.34.48.597.076.256.046.526-.082.76-.244.446-.829.643-1.293.43l-12.621-9.98c-.487.49-1.045.908-1.658 1.238l11.028 8.721-.614 2.763c-.307 1.383-1.511 2.349-2.928 2.349h-1.791v-9h-2v9h-2v-7h-2v7h-2v-11h-2v11h-2v-7h-2v7h-2v-9h-2v9h-1.792c-1.417 0-2.621-.966-2.929-2.349l-.611-2.751 11.161-8.667c-.626-.32-1.198-.728-1.697-1.213l-12.714 9.889c-.467.213-1.053.018-1.297-.429-.128-.234-.157-.504-.082-.761.075-.256.246-.468.48-.596l12.415-9.641c-.345-.598-.604-1.25-.76-1.942l-.593.461h-10.581c-.551 0-1-.449-1-1v-2c0-.551.449-1 1-1h11.295c.216-.723.546-1.396.969-2h-12.264c-1.302 0-2.402.839-2.816 2h-6.184c-.732 0-1.409.212-2 .556v-10.556h15l2 2.667 2-2.667h14.719l-1.453 5.813c.645.342 1.23.782 1.737 1.3l1.778-7.113h.219c1.103 0 2-.897 2-2v-2c0-1.103-.897-2-2-2h-12.5l1.5-2h-4v-11h-2v13h2l-4 5.333-4-5.333h2v-13h-2v11h-4l1.5 2h-10.5v-7c0-1.654-1.346-3-3-3h-6c-1.654 0-3 1.346-3 3s1.346 3 3 3h7v24c0 2.206 1.794 4 4 4h8.643l.855 3.845-2.012 1.565c-.664.387-1.146 1.003-1.364 1.743-.226.769-.139 1.58.245 2.284.526.964 1.536 1.563 2.635 1.563.5 0 .996-.126 1.435-.366l.486-.378.406 1.828c.512 2.306 2.52 3.916 4.881 3.916h21.583c2.362 0 4.369-1.61 4.88-3.916l.404-1.818.346.274.142.094c.439.24.936.366 1.435.366 1.099 0 2.108-.599 2.635-1.563.384-.704.471-1.515.245-2.283-.218-.739-.699-1.354-1.36-1.741l-2.01-1.593 1.322-5.952c1.248-.363 2.169-1.504 2.169-2.868v-2c-.001-1.654-1.347-3-3.001-3zm-25-12h14v2h-15.5zm-22 0h12l1.5 2h-13.5zm-2-8h-7c-.551 0-1-.449-1-1s.449-1 1-1h6c.551 0 1 .449 1 1zm4 28c-1.103 0-2-.897-2-2s.897-2 2-2h6v1c0 1.364.92 2.505 2.169 2.868l.029.132zm17.012 0-5.768 4.487-.997-4.487zm25.755 4.439-5.601-4.439h6.588z"/><path d="m-262-378h2v2h-2z"/><path d="m-150-370h-7.382c.597.521 1.035 1.21 1.24 2h6.142v2h-6.142c-.231.889-.756 1.654-1.471 2.19l4.075 3.26-.955 2.866c-.086.258-.275.452-.507.568v-1.884h-2v2h-2v-4h-2v4h-2v-2h-2v1.884c-.232-.116-.421-.31-.507-.568l-.955-2.866 4.075-3.26c-.715-.536-1.24-1.301-1.471-2.19h-6.142v-2h6.142c.205-.79.643-1.479 1.24-2h-7.382c-1.103 0-2 .897-2 2v2c0 1.103.897 2 2 2h.279l.92 2.76-1.824 1.459 1.249 1.562 1.248-.999.722 2.167c.409 1.227 1.553 2.051 2.846 2.051h9.117c1.293 0 2.437-.824 2.846-2.051l.722-2.167 1.248.999 1.249-1.562-1.824-1.459.92-2.76h.282c1.103 0 2-.897 2-2v-2c0-1.103-.897-2-2-2zm-17.136 7.429-.476-1.429h2.262zm14.272 0-1.786-1.429h2.262z"/><path d="m-142-371v-1c0-1.654-1.346-3-3-3v-2h4v-3c0-1.654-1.346-3-3-3h-4c-1.654 0-3 1.346-3 3v3h4v2h-12v-2h4v-3c0-1.654-1.346-3-3-3h-4c-1.654 0-3 1.346-3 3v3h4v2h-12v-2h4v-3c0-1.654-1.346-3-3-3h-4c-1.654 0-3 1.346-3 3v3h4v2c-1.654 0-3 1.346-3 3v1h-7.667l-5.433 13.038 2.481 4.962h1.619v32h54v-32h1.618l2.481-4.962-5.432-13.038zm-7-8v-1c0-.551.449-1 1-1h4c.551 0 1 .449 1 1v1zm-14 0v-1c0-.551.449-1 1-1h4c.551 0 1 .449 1 1v1zm-14 0v-1c0-.551.449-1 1-1h4c.551 0 1 .449 1 1v1zm-7.333 10h6.333v10h-10.5zm-3.049 14-1-2h10.382v2zm12.382 32h-6v-14h6zm0-16h-8v16h-2v-30h7.184c.414 1.161 1.514 2 2.816 2zm-1-15v-18c0-.551.449-1 1-1h30c.551 0 1 .449 1 1v18c0 .551-.449 1-1 1h-30c-.551 0-1-.449-1-1zm15 20h-2v2h2v9h-6v-16h6zm8 11h-6v-9h2v-2h-2v-5h6zm6 0h-4v-18h-18v18h-4v-28h26zm8 0h-6v-14h6zm4 0h-2v-16h-8v-12c1.302 0 2.402-.839 2.816-2h7.184zm2.382-32h-9.382v-2h10.382zm-9.382-4v-10h6.333l4.167 10z"/><path d="m-90-321h20c2.757 0 5-2.243 5-5v-23h3c2.757 0 5-2.243 5-5v-12c0-1.654 1.346-3 3-3s3 1.346 3 3v39c0 3.309 2.691 6 6 6s6-2.691 6-6v-32h3c1.654 0 3-1.346 3-3 0-.771-.301-1.468-.78-2 .48-.532.78-1.229.78-2 0-1.624-1.299-2.943-2.912-2.991 1.798-1.896 2.912-4.782 2.912-7.009 0-3.86-3.14-7-7-7s-7 3.14-7 7c0 2.227 1.114 5.113 2.912 7.009-1.613.048-2.912 1.367-2.912 2.991 0 .771.301 1.468.78 2-.48.532-.78 1.229-.78 2 0 1.654 1.346 3 3 3h3v32c0 2.206-1.794 4-4 4s-4-1.794-4-4v-39c0-2.757-2.243-5-5-5s-5 2.243-5 5v12c0 1.654-1.346 3-3 3h-3v-13.414l-4.03-4.03h.03v-8.556c0-3.309-2.691-6-6-6s-6 2.691-6 6v4h-5.414l-8.586 8.586v38.414c0 2.757 2.243 5 5 5zm45-55c0-2.757 2.243-5 5-5s5 2.243 5 5c0 2.992-2.472 7-5 7s-5-4.008-5-7zm1 9h8c.551 0 1 .449 1 1s-.449 1-1 1h-8c-.551 0-1-.449-1-1s.449-1 1-1zm0 6c-.551 0-1-.449-1-1s.449-1 1-1h8c.551 0 1 .449 1 1s-.449 1-1 1zm-35-16c0-2.206 1.794-4 4-4s4 1.794 4 4v6.586l-2.586-2.586h-5.414zm0 10h3v2h-3zm-14 3.414 7.414-7.414h4.586v2h-5v6h12v-6h-5v-2h4.586l7.414 7.414v28.586h-26zm12-3.414v2h-3v-2zm-12 34h26v7c0 1.654-1.346 3-3 3h-20c-1.654 0-3-1.346-3-3z"/><path d="m-91-331h2v6h-2z"/><path d="m-87-331h2v6h-2z"/><path d="m-83-331h2v6h-2z"/><path d="m-79-331h2v6h-2z"/><path d="m-75-331h2v6h-2z"/><path d="m-71-331h2v6h-2z"/><path d="m60-383h-50c-1.654 0-3 1.346-3 3v28.517c-1.151.082-2.243.584-3.071 1.413-.941.941-1.454 2.209-1.447 3.542-.948.938-1.482 2.197-1.482 3.528s.534 2.59 1.481 3.528c-.007 1.333.506 2.601 1.447 3.542.581.582 1.301.98 2.071 1.213v13.334l5-2.5 5 2.5v-9.617h44c1.654 0 3-1.346 3-3v-46c.001-1.654-1.345-3-2.999-3zm-46 58.382-3-1.5-3 1.5v-9.424c.861.66 1.9 1.042 3 1.042s2.139-.382 3-1.043zm.212-11.882-.543-.059-.344.426c-.579.72-1.427 1.133-2.325 1.133s-1.746-.413-2.325-1.133l-.344-.426-.543.059c-.924.101-1.811-.208-2.445-.843s-.943-1.527-.843-2.445l.059-.544-.426-.343c-.72-.579-1.133-1.427-1.133-2.325s.413-1.746 1.133-2.325l.426-.343-.059-.544c-.1-.918.208-1.81.843-2.445s1.521-.943 2.445-.843l.543.059.344-.426c.579-.72 1.427-1.133 2.325-1.133s1.746.413 2.325 1.133l.344.426.543-.059c.925-.1 1.811.208 2.445.843s.942 1.527.843 2.445l-.059.544.426.343c.72.579 1.133 1.427 1.133 2.325s-.413 1.746-1.133 2.325l-.426.343.059.544c.1.918-.208 1.81-.843 2.445s-1.52.943-2.445.843zm42.788-30.5v30h-38.142c.423-.749.665-1.591.661-2.472.947-.938 1.481-2.197 1.481-3.528s-.534-2.59-1.481-3.528c.007-1.333-.506-2.601-1.447-3.542-.941-.942-2.22-1.489-3.543-1.448-.445-.449-.966-.798-1.528-1.048v-24.434h34v10zm-8-2v-6.586l6.586 6.586zm12 35c0 .551-.448 1-1 1h-44v-1.719c.25-.076.491-.167.726-.281h42.274v-33.414l-10.586-10.586h-37.414v26c-.7 0-1.376.156-2 .433v-27.433c0-.551.448-1 1-1h50c.552 0 1 .449 1 1z"/><path d="m33-341h22v-10h-22zm18-8h2v6h-2zm-4 0h2v6h-2zm-4 0h2v6h-2zm-4 0h2v6h-2zm-4 0h2v6h-2z"/><path d="m15-375h2v2h-2z"/><path d="m19-375h26v2h-26z"/><path d="m15-371h30v2h-30z"/><path d="m15-367h16v2h-16z"/><path d="m29-363h2v2h-2z"/><path d="m15-363h12v2h-12z"/><path d="m15-359h16v2h-16z"/><path d="m15-355h16v2h-16z"/><path d="m23-351h8v2h-8z"/><path d="m23-347h8v2h-8z"/><path d="m23-343h8v2h-8z"/><path d="m111-333c-.552 0-1-.449-1-1h-2c0 1.654 1.346 3 3 3v2h2v-2h3v-3c0-1.654-1.346-3-3-3h-2c-.552 0-1-.449-1-1v-1h3c.552 0 1 .449 1 1h2c0-1.654-1.346-3-3-3v-2h-2v2h-3v3c0 1.654 1.346 3 3 3h2c.552 0 1 .449 1 1v1z"/><path d="m154-383h-11v8h-42v28.836c.611-.661 1.28-1.265 2-1.808v-25.028h51c1.13 0 2.162-.391 3-1.026v28.026c0 1.654-1.346 3-3 3h-28.744c.339.639.623 1.31.868 2h27.876c2.757 0 5-2.243 5-5v-32c0-2.757-2.243-5-5-5zm0 8h-9v-6h9c1.654 0 3 1.346 3 3s-1.346 3-3 3z"/><path d="m101-336c0 6.065 4.935 11 11 11s11-4.935 11-11-4.935-11-11-11-11 4.935-11 11zm11-9c4.963 0 9 4.038 9 9s-4.037 9-9 9-9-4.038-9-9 4.037-9 9-9z"/><path d="m155-371h-26v10h26zm-2 8h-22v-6h22z"/><path d="m141-367h2v2h-2z"/><path d="m137-367h2v2h-2z"/><path d="m149-367h2v2h-2z"/><path d="m145-367h2v2h-2z"/><path d="m133-367h2v2h-2z"/><path d="m155-345v-6h-6v6zm-4-4h2v2h-2z"/><path d="m147-345v-6h-6v6zm-4-4h2v2h-2z"/><path d="m139-345v-6h-6v6zm-4-4h2v2h-2z"/><path d="m125-345h6v-6h-6zm2-4h2v2h-2z"/><path d="m129-359h2v2h-2z"/><path d="m133-359h22v2h-22z"/><path d="m129-355h26v2h-26z"/><path d="m109-371h2v2h-2z"/><path d="m113-371h2v2h-2z"/><path d="m105-371h2v2h-2z"/><path d="m121-371h2v2h-2z"/><path d="m125-371h2v2h-2z"/><path d="m117-371h2v2h-2z"/><path d="m105-367h22v2h-22z"/><path d="m105-363h22v2h-22z"/><path d="m105-359h22v2h-22z"/><path d="m105-355h22v2h-22z"/><path d="m252-349c1.654 0 3-1.346 3-3v-2c0-1.654-1.346-3-3-3h-2v-26h-46v4.206c-.558.214-1.049.585-1.378 1.113l-4.622 7.394v13.287h-2c-1.654 0-3 1.346-3 3v2c0 1.654 1.346 3 3 3h.132l.874 6.118c-2.28.464-4.008 2.467-4.008 4.882 0 2.757 2.243 5 5 5 .141 0 .276-.024.414-.036l.861 6.026c.49 3.426 3.47 6.01 6.931 6.01h35.592c3.461 0 6.44-2.583 6.931-6.01l.861-6.026c.137.012.272.036.412.036 2.757 0 5-2.243 5-5 0-2.395-1.7-4.384-4.009-4.867l.876-6.133zm-47.683-27.622c.297-.474 1.068-.473 1.365 0l3.513 5.622h-8.392zm5.683 7.622v12h-4v-12zm-10 0h4v12h-4zm-4 18c-.552 0-1-.449-1-1v-2c0-.551.448-1 1-1h18.199l-5.5 4zm9.95 2-7.063 5.137-.734-5.137zm3.05 26h-2v-13c0-.551.448-1 1-1s1 .449 1 1zm8 0h-2v-11c0-.551.448-1 1-1s1 .449 1 1zm8 0h-2v-15c0-.551.448-1 1-1s1 .449 1 1zm8 0h-2v-11c0-.551.448-1 1-1s1 .449 1 1zm8 0h-2v-13c0-.551.448-1 1-1s1 .449 1 1zm12-15c0 1.654-1.346 3-3 3-1.473 0-2.742-1.106-2.952-2.573l-.061-.418-15.81-11.497c-.297.604-.664 1.167-1.097 1.674l15.07 10.96c.333 1.413 1.268 2.581 2.497 3.249l-.901 6.312c-.291 2.036-1.82 3.638-3.746 4.125v-12.832c0-1.654-1.346-3-3-3s-3 1.346-3 3v13h-2v-11c0-1.654-1.346-3-3-3s-3 1.346-3 3v11h-2v-15c0-1.654-1.346-3-3-3s-3 1.346-3 3v15h-2v-11c0-1.654-1.346-3-3-3s-3 1.346-3 3v11h-2v-13c0-1.654-1.346-3-3-3s-3 1.346-3 3v12.832c-1.927-.487-3.455-2.089-3.746-4.125l-.901-6.313c1.228-.668 2.163-1.836 2.496-3.248l15.071-10.961c-.433-.507-.8-1.07-1.097-1.674l-15.811 11.498-.061.418c-.21 1.467-1.479 2.573-2.952 2.573-1.654 0-3-1.346-3-3s1.345-3 2.959-3h.001l.359.022 17.732-12.897c.131-1.201.534-2.318 1.138-3.3l-.239.175h-4.949v-13.287l-4.622-7.396c-.329-.527-.82-.898-1.378-1.112v-2.205h42v24h-16.951l-.236-.171c.603.982 1.006 2.099 1.137 3.299l16.843 12.249.596.434h.001l.342.241.335-.051c1.623.035 2.933 1.367 2.933 2.999zm-10.951-11h7.798l-.734 5.137zm-2.75-2-5.5-4h18.201c.552 0 1 .449 1 1v2c0 .551-.448 1-1 1z"/><path d="m224-357c-2.206 0-4 1.794-4 4s1.794 4 4 4 4-1.794 4-4-1.794-4-4-4zm0 6c-1.103 0-2-.897-2-2s.897-2 2-2 2 .897 2 2-.897 2-2 2z"/><path d="m243.586-369h-9.586v10h10v-7.586l2.707-2.707-1.414-1.414zm-1.586 8h-6v-6h5.586l-2.586 2.586-1.293-1.293-1.414 1.414 2.707 2.707 3-3z"/><path d="m214-379h2v2h-2z"/><path d="m218-379h28v2h-28z"/><path d="m214-375h32v2h-32z"/><path d="m214-371h2v2h-2z"/><path d="m218-371h14v2h-14z"/><path d="m214-367h18v2h-18z"/><path d="m-259-263h2v2h-2z"/><path d="m-263-263h2v2h-2z"/><path d="m-284-225h32c1.654 0 3-1.346 3-3v-22c0-1.654-1.346-3-3-3h-9v-4h2.292c4.03 0 8.062.917 11.708 2.638v.362c0 1.654 1.346 3 3 3h2c1.654 0 3-1.346 3-3v-7.279l.573-.191c3.246-1.082 5.427-4.108 5.427-7.53s-2.181-6.448-5.427-7.53l-.573-.191v-7.279c0-1.654-1.346-3-3-3h-2c-1.654 0-3 1.346-3 3v.362c-3.646 1.721-7.678 2.638-11.708 2.638h-7.292c-2.656 0-5.04 1.164-6.689 3h-1.311c-3.86 0-7 3.14-7 7v4c0 3.86 3.14 7 7 7h1.311c.995 1.108 2.258 1.966 3.689 2.475v4.525h-15c-1.654 0-3 1.346-3 3v22c0 1.654 1.346 3 3 3zm45-49.607c2.394.827 4 3.069 4 5.607s-1.606 4.78-4 5.607zm-6-9.393c0-.551.449-1 1-1h2c.551 0 1 .449 1 1v30c0 .551-.449 1-1 1h-2c-.551 0-1-.449-1-1zm-29.053 21.995c-2.732-.029-4.947-2.256-4.947-4.995v-4c0-2.739 2.215-4.966 4.947-4.995-.601 1.206-.947 2.559-.947 3.995v6c0 1.436.347 2.789.947 3.995zm13.053-16.995h2.292c4.011 0 8.025-.84 11.708-2.434v24.869c-1.925-.833-3.942-1.451-6-1.86v-5.575c0-1.654-1.346-3-3-3h-4c-.551 0-1-.449-1-1zm-4 0h2v11c0 1.654 1.346 3 3 3h4c.551 0 1 .449 1 1v5.245c-1.23-.157-2.469-.245-3.708-.245h-6.292zm2 22v4h-4v-4.059c.329.037.662.059 1 .059zm-8.736-5h2.736v-2h-3.705c-.19-.634-.295-1.305-.295-2h4v-2h-4v-2h4v-2h-4c0-.695.105-1.366.295-2h3.705v-2h-2.736c1.085-1.551 2.781-2.638 4.736-2.92v19.84c-1.956-.282-3.652-1.369-4.736-2.92zm-13.264 17h12v-2h-12v-3c0-.551.449-1 1-1h32c.551 0 1 .449 1 1v3h-12v2h12v17c0 .551-.449 1-1 1h-32c-.551 0-1-.449-1-1z"/><path d="m-231-270h6v2h-6z"/><path d="m-234.515-278.485h6v2h-6z" transform="matrix(.707 -.707 .707 .707 128.403 -244.979)"/><path d="m-232.515-263.515h2v6h-2z" transform="matrix(.707 -.707 .707 .707 116.403 -240.009)"/><path d="m-255-231h2v2h-2z"/><path d="m-259-231h2v2h-2z"/><path d="m-159-277h2v2h-2z"/><path d="m-155-277h2v2h-2z"/><path d="m-167-277h2v2h-2z"/><path d="m-163-277h2v2h-2z"/><path d="m-171-277h2v2h-2z"/><path d="m-151-277h2v2h-2z"/><path d="m-141-241v-22.646l8-5.846v-11.508h-8v-6h-38v6h-12l3.75 5-3.75 5h12v22.646l-8 5.846v11.508h8v6h38v-6h12l-3.75-5 3.75-5zm0-36.586v-1.414h3.937l-4.924 3.598-.598-.598zm-36 4 1.414-1.414h2.586v-2h-2.586l-1.414-1.414v-6.586h34v6.586l-1.414 1.414h-2.586v2h2.586l.792.792-33.378 24.393zm-10 .586 2.25-3-2.25-3h8v1.414l1.586 1.586-1.586 1.586v1.414zm8 40h-3.937l3.937-2.877zm36 6h-34v-10.338l34-24.846zm-42-6.969v-7.523l50-36.538v7.523zm52 .969h-8v-6h8l-2.25 3z"/><path d="m-168-233c-.551 0-1-.449-1-1h-2c0 1.654 1.346 3 3 3v2h2v-2h3v-3c0-1.654-1.346-3-3-3h-2c-.551 0-1-.449-1-1v-1h3c.551 0 1 .449 1 1h2c0-1.654-1.346-3-3-3v-2h-2v2h-3v3c0 1.654 1.346 3 3 3h2c.551 0 1 .449 1 1v1z"/><path d="m-151-229h6v-6h-6zm2-4h2v2h-2z"/><path d="m-153-235h-6v6h6zm-2 4h-2v-2h2z"/><path d="m-159-243h14v2h-14z"/><path d="m-159-239h14v2h-14z"/><path d="m-46-287h2v4h-2z"/><path d="m-51.535-284.536h2v4h-2z" transform="matrix(.707 -.707 .707 .707 184.981 -118.487)"/><path d="m-41.465-283.535h4v2h-4z" transform="matrix(.707 -.707 .707 .707 188.224 -110.658)"/><path d="m-36.382-279h-17.236l-3.547 7.094 2.093 2.906h-36.928c-1.654 0-3 1.346-3 3v30c0 1.654 1.346 3 3 3h3.941l-1.284 2.384 9.009 5.148 1.772-7.533h3.122l1.772 7.533 9.009-5.148-1.282-2.384h29.941c1.654 0 3-1.346 3-3v-30c0-1.32-.863-2.431-2.049-2.831l2.214-3.075zm.764 6h-3.513l2.008-3.011zm-12.056 2h5.349l-2.675 9.36zm.744 9.884-7.117-9.884h4.293zm6.684-9.884h4.293l-7.119 9.89zm1.378-6-2.132 3.197-2.132-3.197zm-4 4h-4.263l2.132-3.197zm-4-4-2.132 3.197-2.132-3.197zm-6.008.989 2.008 3.011h-3.513zm-23.124 9.011h2v4h-2zm-4 0h2v4h-2zm0 6h6c1.103 0 2 .897 2 2v.169c0 .362-.099.718-.285 1.029l-1.381 2.302-.746.559c-.191-.038-.387-.059-.588-.059h-4c-.201 0-.397.021-.588.059l-.746-.56-1.381-2.302c-.187-.311-.285-.667-.285-1.029v-.168c0-1.103.897-2 2-2zm7.391 7.207 2.41-1.807c.343-.258.769-.4 1.199-.4 1.103 0 2 .897 2 2v6c0 1.103-.897 2-2 2-.43 0-.856-.142-1.2-.4l-2.41-1.807c.378-.502.61-1.118.61-1.793v-2c0-.675-.232-1.291-.609-1.793zm-1.391 1.793v2c0 .551-.449 1-1 1h-4c-.551 0-1-.449-1-1v-2c0-.551.449-1 1-1h4c.551 0 1 .449 1 1zm-7.391 3.793-2.41 1.807c-.343.258-.769.4-1.199.4-1.103 0-2-.897-2-2v-6c0-1.103.897-2 2-2 .43 0 .856.142 1.2.4l2.41 1.807c-.378.502-.61 1.118-.61 1.793v2c0 .675.232 1.291.609 1.793zm-10.609 13.207c-.551 0-1-.449-1-1v-30c0-.551.449-1 1-1h10v4.556c-1.19.694-2 1.97-2 3.444v.169c0 .341.047.678.132 1.005-.367-.109-.748-.174-1.132-.174-2.206 0-4 1.794-4 4v6c0 2.206 1.794 4 4 4 .384 0 .765-.065 1.132-.174-.085.327-.132.664-.132 1.005v.169c0 .616.152 1.194.402 1.716l-3.384 6.284zm10.333 6.467-4.991-2.852 4.458-8.28c.633.418 1.387.665 2.2.665h.796zm3.577-6.467.941-4h.298l.941 4zm-1.91-6c-1.103 0-2-.897-2-2v-.169c0-.362.099-.718.285-1.029l1.381-2.302.746-.559c.191.038.387.059.588.059h4c.201 0 .397-.021.588-.059l.746.56 1.381 2.302c.187.311.285.667.285 1.029v.168c0 1.103-.897 2-2 2zm7.667 12.467-2.463-10.467h.796c.812 0 1.567-.247 2.199-.665l4.458 8.28zm37.333-7.467c0 .551-.449 1-1 1h-25v-10h26zm0-30v19h-28v12h-4.018l-3.384-6.284c.25-.522.402-1.1.402-1.716v-.169c0-.341-.047-.678-.132-1.005.367.109.748.174 1.132.174 2.206 0 4-1.794 4-4v-6c0-2.206-1.794-4-4-4-.384 0-.765.065-1.132.174.085-.327.132-.664.132-1.005v-.169c0-1.474-.81-2.75-2-3.444v-4.556h18.369l6.253 8.682c.516.825 1.404 1.318 2.378 1.318s1.862-.493 2.341-1.264l6.291-8.736h.368c.551 0 1 .449 1 1z"/><path d="m-58-259c.551 0 1 .449 1 1h2c0-1.654-1.346-3-3-3v-2h-2v2h-3v3c0 1.654 1.346 3 3 3h2c.551 0 1 .449 1 1v1h-3c-.551 0-1-.449-1-1h-2c0 1.654 1.346 3 3 3v2h2v-2h3v-3c0-1.654-1.346-3-3-3h-2c-.551 0-1-.449-1-1v-1z"/><path d="m-53-251h2v2h-2z"/><path d="m-49-251h12v2h-12z"/><path d="m-53-255h16v2h-16z"/><path d="m-91-243h2v2h-2z"/><path d="m-91-239h2v2h-2z"/><path d="m26-259.276c0-2.054-1.67-3.724-3.724-3.724h-.553c-2.053 0-3.723 1.67-3.723 3.724v.276h2v-.276c0-.951.773-1.724 1.724-1.724h.553c.95 0 1.724.773 1.724 1.724 0 .513-.227.996-.621 1.325l-5.38 4.483v2.468h8v-2h-5.438l4.098-3.415c.852-.71 1.34-1.752 1.34-2.861z"/><path d="m32-263c-2.206 0-4 1.794-4 4v4c0 2.206 1.794 4 4 4s4-1.794 4-4v-4c0-2.206-1.794-4-4-4zm2 8c0 1.103-.897 2-2 2s-2-.897-2-2v-4c0-1.103.897-2 2-2s2 .897 2 2z"/><path d="m35.343-252h11.314v2h-11.314z" transform="matrix(.707 -.707 .707 .707 189.492 -44.525)"/><circle cx="43" cy="-249" r="1"/><circle cx="39" cy="-253" r="1"/><path d="m55.194-269.78 7.658-7.657-7.061-2.354-2.354-7.061-7.658 7.657c.575.37 1.079.814 1.511 1.317l5.272-5.272 1.293 3.879-4.949 4.949c.064.44.102.884.081 1.334.45-.022.894.016 1.333.08l4.949-4.949 3.879 1.293-5.272 5.273c.503.432.948.937 1.318 1.511z"/><path d="m8.806-242.22-7.658 7.657 7.061 2.354 2.354 7.061 7.658-7.657c-.575-.37-1.079-.814-1.511-1.317l-5.272 5.272-1.293-3.879 4.949-4.949c-.064-.44-.102-.884-.081-1.334-.449.022-.893-.016-1.333-.08l-4.949 4.949-3.879-1.293 5.273-5.274c-.504-.432-.948-.936-1.319-1.51z"/><path d="m32-271v2c4.627 0 8.941 2.491 11.262 6.501l1.73-1.002c-2.676-4.625-7.654-7.499-12.992-7.499z"/><path d="m44.7-258.788 1.955-.425c-.157-.722-.372-1.443-.64-2.144l-1.869.713c.233.608.418 1.232.554 1.856z"/><path d="m32-275c-10.477 0-19 8.523-19 19s8.523 19 19 19 19-8.523 19-19-8.523-19-19-19zm-10.932 32h21.864c-2.958 2.492-6.77 4-10.932 4s-7.974-1.508-10.932-4zm23.87-2h-25.876c-2.527-2.968-4.062-6.805-4.062-11 0-9.374 7.626-17 17-17s17 7.626 17 17c0 4.195-1.535 8.032-4.062 11z"/><path d="m143-257c-.552 0-1-.449-1-1h-2c0 1.654 1.346 3 3 3v2h2v-2h3v-3c0-1.654-1.346-3-3-3h-2c-.552 0-1-.449-1-1v-1h3c.552 0 1 .449 1 1h2c0-1.654-1.346-3-3-3v-2h-2v2h-3v3c0 1.654 1.346 3 3 3h2c.552 0 1 .449 1 1v1z"/><path d="m136-287h-28c-1.654 0-3 1.346-3 3v12c0 1.654 1.346 3 3 3h9.586l5.292 5.292c.449.45 1.071.708 1.708.708 1.331 0 2.414-1.083 2.414-2.414v-3.586h5.028c.543-.72 1.147-1.389 1.808-2h-8.836v5.586c0 .338-.47.531-.707.293l-5.879-5.879h-10.414c-.552 0-1-.449-1-1v-12c0-.551.448-1 1-1h28c.552 0 1 .449 1 1v10.744c.639-.339 1.31-.623 2-.868v-9.876c0-1.654-1.346-3-3-3z"/><path d="m144-249c6.065 0 11-4.935 11-11s-4.935-11-11-11-11 4.935-11 11 4.935 11 11 11zm0-20c4.963 0 9 4.038 9 9s-4.037 9-9 9-9-4.038-9-9 4.037-9 9-9z"/><path d="m155-245h-2v-1.781l-1.353-.338c-.911.543-1.879.995-2.9 1.337l2.253.563v6.219h-2.101c-.465-2.279-2.484-4-4.899-4-2.757 0-5 2.243-5 5s2.243 5 5 5c2.414 0 4.434-1.721 4.899-4h2.101v6.219l-14 3.5v-19.463c-.704-.373-1.368-.808-2-1.285v21.029h-36v-14h8v-8h26.836c-.661-.611-1.265-1.28-1.808-2h-26.443l-8.585 8.586v17.414h39.123l16.877-4.219v-7.781h2c2.206 0 4-1.794 4-4s-1.794-4-4-4zm-8.184 8c-.414 1.161-1.514 2-2.816 2-1.654 0-3-1.346-3-3s1.346-3 3-3c1.302 0 2.402.839 2.816 2h-3.816v2zm-41.816-10.586v4.586h-4.586zm50 8.586h-2v-4h2c1.103 0 2 .897 2 2s-.897 2-2 2z"/><path d="m103-239v10h28v-18h-8v16h-2v-12h-8v12h-2v-8zm22-6h4v14h-4zm-10 4h4v10h-4zm-6 10h-4v-6h4z"/><path d="m112-281c.552 0 1 .449 1 1h2c0-1.654-1.346-3-3-3s-3 1.346-3 3 1.346 3 3 3c.552 0 1 .449 1 1s-.448 1-1 1-1-.449-1-1h-2c0 1.654 1.346 3 3 3s3-1.346 3-3-1.346-3-3-3c-.552 0-1-.449-1-1s.448-1 1-1z"/><path d="m123-273v-7c0-1.654-1.346-3-3-3s-3 1.346-3 3v7h2v-2h2v2zm-4-4v-3c0-.551.448-1 1-1s1 .449 1 1v3z"/><path d="m125-283v10h4v-2h-2v-8z"/><path d="m135-281v-2h-4v10h4v-2h-2v-2h2v-2h-2v-2z"/><path d="m101-265h14v2h-14z"/><path d="m101-261h14v2h-14z"/><path d="m101-257h2v2h-2z"/><path d="m113-257h2v2h-2z"/><path d="m109-257h2v2h-2z"/><path d="m105-257h2v2h-2z"/><path d="m242-273c.552 0 1 .449 1 1h2c0-1.302-.839-2.402-2-2.816v-2.184h-2v2h-2v3c0 1.654 1.346 3 3 3 .552 0 1 .449 1 1v1h-1c-.552 0-1-.449-1-1h-2c0 1.302.839 2.402 2 2.816v2.184h2v-2h2v-3c0-1.654-1.346-3-3-3-.552 0-1-.449-1-1v-1z"/><path d="m211-251h-14v14h14zm-10 12h-2v-2h2zm0-4h-2v-2h2zm0-4h-2v-2h2zm4 8h-2v-2h2zm0-4h-2v-2h2zm0-4h-2v-2h2zm4 8h-2v-2h2zm0-4h-2v-2h2zm0-4h-2v-2h2z"/><path d="m231-251h-6v6h6zm-2 4h-2v-2h2z"/><path d="m223-251h-10v6h10zm-2 4h-6v-2h6z"/><path d="m228-237c1.654 0 3-1.346 3-3s-1.346-3-3-3-3 1.346-3 3 1.346 3 3 3zm0-4c.552 0 1 .449 1 1s-.448 1-1 1-1-.449-1-1 .448-1 1-1z"/><path d="m220-243c-1.654 0-3 1.346-3 3s1.346 3 3 3 3-1.346 3-3-1.346-3-3-3zm0 4c-.552 0-1-.449-1-1s.448-1 1-1 1 .449 1 1-.448 1-1 1z"/><path d="m221-275h6v2h-6z"/><path d="m221-271h6v2h-6z"/><path d="m221-267h6v2h-6z"/><path d="m221-263h6v2h-6z"/><path d="m252-261h-1v-23c0-1.654-1.346-3-3-3h-12c-1.654 0-3 1.346-3 3v12.026c-.584-.442-1.257-.773-2-.924v-6.102h-14v6h-9v-2h2c1.654 0 3-1.346 3-3v-6c0-1.654-1.346-3-3-3h-12c-1.654 0-3 1.346-3 3v6c0 1.654 1.346 3 3 3h2v2h-2c-2.757 0-5 2.243-5 5v38c0 2.757 2.243 5 5 5h32c2.757 0 5-2.243 5-5v-1h1c.552 0 1 .449 1 1v2c0 1.654 1.346 3 3 3h11c2.206 0 4-1.794 4-4s-1.794-4-4-4h-7c-.552 0-1-.449-1-1v-3.101c2.279-.465 4-2.484 4-4.899v-9h3c2.757 0 5-2.243 5-5v-2c0-1.654-1.346-3-3-3zm-33-16h10v18h-10zm-21 0c-.552 0-1-.449-1-1v-6c0-.551.448-1 1-1h12c.552 0 1 .449 1 1v6c0 .551-.448 1-1 1zm8 2v2h-4v-2zm27 45c0 1.654-1.346 3-3 3h-32c-1.654 0-3-1.346-3-3v-3h12v1c0 1.654 1.346 3 3 3h8c1.654 0 3-1.346 3-3v-1h12zm-24-2v-1h10v1c0 .551-.448 1-1 1h-8c-.552 0-1-.449-1-1zm24-3h-38v-18h38zm0-25v5h-38v-13c0-1.654 1.346-3 3-3h19v14h14v-13.816c1.161.414 2 1.514 2 2.816zm2-24c0-.551.448-1 1-1h12c.552 0 1 .449 1 1v1h-14zm0 16v-13h14v20h-14zm9 37h7c1.103 0 2 .897 2 2s-.897 2-2 2h-11c-.552 0-1-.449-1-1v-2c0-1.654-1.346-3-3-3h-1v-18h2v9c0 2.414 1.721 4.434 4 4.899v3.101c0 1.654 1.346 3 3 3zm1-11c0 1.654-1.346 3-3 3s-3-1.346-3-3v-1h6zm0-3h-6v-6h6zm5-8h-15v-2h17.816c-.414 1.161-1.514 2-2.816 2zm3-4h-18v-2h17c.552 0 1 .449 1 1z"/><path d="m-278.414-147h-.586c-1.103 0-2 .897-2 2v2c0 1.103.897 2 2 2h.586c.534 0 1.036-.208 1.414-.586l2.414-2.414-2.414-2.414c-.378-.378-.88-.586-1.414-.586zm0 4h-.586v-2h.586l1 1z"/><path d="m-269-147h-2c-1.103 0-2 .897-2 2v2c0 1.103.897 2 2 2h2c1.103 0 2-.897 2-2v-2c0-1.103-.897-2-2-2zm-2 4v-2h2l.001 2z"/><path d="m-261-147h-.586c-.534 0-1.036.208-1.414.586l-2.414 2.414 2.414 2.414c.378.378.88.586 1.414.586h.586c1.103 0 2-.897 2-2v-2c0-1.103-.897-2-2-2zm-.586 4-1-1 1-1h.586l.001 2z"/><circle cx="-270" cy="-186" r="1"/><path d="m-230-179h-3.051c-.062.688-.192 1.355-.376 2h3.427c1.654 0 3 1.346 3 3v15h-10v-1c0-1.654-1.346-3-3-3h-8c-1.654 0-3 1.346-3 3v1h-10v-15c0-1.654 1.346-3 3-3h3.426c-.271-.955-.426-1.959-.426-3v1h-2v-2c0-1.103-.897-2-2-2h-7.026c.635-.838 1.026-1.87 1.026-3v-3h7c1.654 0 3 1.346 3 3v6c0-2.329.733-4.488 1.973-6.268-.143-2.63-2.308-4.732-4.973-4.732h-24c-2.757 0-5 2.243-5 5v44c0 2.757 2.243 5 5 5h24c2.757 0 5-2.243 5-5v-11h2v3.236l.316.633c1.123 2.245 3.246 3.738 5.684 4.062v7.069c0 1.654 1.346 3 3 3h14c.551 0 1 .448 1 1s-.449 1-1 1h-40v2h40c1.654 0 3-1.346 3-3s-1.346-3-3-3h-14c-.551 0-1-.448-1-1v-7.069c2.438-.324 4.561-1.816 5.684-4.062l.316-.633v-3.236h7c2.757 0 5-2.243 5-5v-16c0-2.757-2.243-5-5-5zm-43-10h6v3c0 1.654-1.346 3-3 3s-3-1.346-3-3zm0 8h14v2.101c-2.279.465-4 2.484-4 4.899v13h-4v8h2v-6h2v1c0 2.414 1.721 4.434 4 4.899v2.101h-14v-8h-8v-14h8zm-2 24v6h-6v-6zm-6-18v-6h6v6zm26 33c0 1.654-1.346 3-3 3h-24c-1.654 0-3-1.346-3-3v-44c0-1.654 1.346-3 3-3h7v3c0 1.13.391 2.162 1.026 3h-7.026c-1.103 0-2 .897-2 2v30c0 1.103.897 2 2 2h22c1.103 0 2-.897 2-2v-2h2zm4-13h-7c-1.302 0-2.402-.839-2.816-2h9.816zm7 8c-1.667 0-3.191-.75-4.216-2h8.432c-1.025 1.25-2.549 2-4.216 2zm5-4h-10v-9c0-.551.449-1 1-1h8c.551 0 1 .449 1 1zm9-4h-7v-2h9.816c-.414 1.161-1.514 2-2.816 2z"/><path d="m-243-183c.551 0 1 .449 1 1h2c0-1.654-1.346-3-3-3v-2h-2v2h-3v3c0 1.654 1.346 3 3 3h2c.551 0 1 .449 1 1v1h-3c-.551 0-1-.449-1-1h-2c0 1.654 1.346 3 3 3v2h2v-2h3v-3c0-1.654-1.346-3-3-3h-2c-.551 0-1-.449-1-1v-1z"/><path d="m-279-179h2v2h-2z"/><path d="m-279-155h2v2h-2z"/><path d="m-269-177h5v-2h-7v6h2z"/><path d="m-267-175h2v6h-2z"/><path d="m-279-171h6v2h-6z"/><path d="m-271-171h2v2h-2z"/><path d="m-277-165h4v-2h-6v6h2z"/><path d="m-275-161h4v4h2v-6h-6z"/><path d="m-271-155h2v2h-2z"/><path d="m-267-163h2v-4h-6v2h4z"/><path d="m-188-177c-1.654 0-3 1.346-3 3v28c0 1.654 1.346 3 3 3h58 1v-34h-1zm49.026 18c.063 2.139.322 4.16.752 6h-5.035c-.961-1.812-1.551-3.845-1.694-6zm-5.977-2c.143-2.155.733-4.188 1.694-6h5.035c-.43 1.84-.688 3.861-.752 6zm2.971-8c1.741-2.311 4.127-4.106 6.895-5.107-1.044 1.33-1.918 3.075-2.579 5.107zm-46.02 24c-.551 0-1-.448-1-1v-28c0-.551.449-1 1-1h50.017c-5.359 2.864-9.017 8.511-9.017 15s3.658 12.136 9.017 15zm46.02-6h4.316c.661 2.032 1.535 3.778 2.579 5.107-2.768-1.001-5.155-2.796-6.895-5.107zm10.98 5.821c-1.83-.591-3.451-2.758-4.546-5.821h4.546zm0-7.821h-5.159c-.462-1.821-.746-3.858-.816-6h5.975zm0-8h-5.976c.07-2.142.354-4.179.816-6h5.16zm0-8h-4.546c1.095-3.063 2.717-5.23 4.546-5.821z"/><path d="m-187-147h20v-18h-20zm18-2h-8v-3-1-2h3v4h5zm0-4h-3v-6h3zm-16-10h16v2h-5v4h-3v-4h-8zm0 4h6v3 1 2h-2v-4h-4zm0 4h2v4h4v2h-6z"/><path d="m-163-149h2v2h-2z"/><path d="m-151-149h2v2h-2z"/><path d="m-159-149h2v2h-2z"/><path d="m-155-149h2v2h-2z"/><path d="m-163-153h14v2h-14z"/><path d="m-163-157h14v2h-14z"/><path d="m-148.687-186.313c-6.238-6.238-16.389-6.238-22.627 0l1.414 1.414c5.459-5.458 14.34-5.458 19.799 0z"/><path d="m-151.515-183.485c-4.679-4.679-12.292-4.679-16.971 0l1.414 1.414c3.899-3.898 10.243-3.898 14.143 0z"/><path d="m-165.657-180.657 1.414 1.414c1.133-1.133 2.64-1.757 4.243-1.757s3.109.624 4.243 1.757l1.414-1.414c-1.511-1.511-3.52-2.343-5.657-2.343s-4.146.832-5.657 2.343z"/><path d="m-171.313-133.636c3.119 3.119 7.216 4.679 11.313 4.679s8.194-1.56 11.313-4.679l-1.414-1.414c-5.459 5.457-14.34 5.457-19.799 0z"/><path d="m-168.485-136.465c2.339 2.34 5.413 3.509 8.485 3.509s6.146-1.169 8.485-3.509l-1.414-1.414c-3.899 3.898-10.243 3.898-14.143 0z"/><path d="m-154.343-139.293-1.414-1.414c-2.34 2.34-6.146 2.34-8.485 0l-1.414 1.414c1.511 1.511 3.52 2.343 5.657 2.343s4.145-.832 5.656-2.343z"/><path d="m-64-191c-7.168 0-13 5.832-13 13v1h-2.639c-2.434 0-4.505 1.74-4.925 4.138l-6.421 36.689-.044.249.08.24c1.333 3.998 5.06 6.684 9.273 6.684h35.351c4.214 0 7.941-2.686 9.273-6.684l.08-.24-6.465-36.938c-.419-2.398-2.491-4.138-4.925-4.138h-2.638v-1c0-7.168-5.832-13-13-13zm12 22c.551 0 1 .449 1 1s-.449 1-1 1-1-.449-1-1 .449-1 1-1zm-23-9c0-6.065 4.935-11 11-11s11 4.935 11 11v1h-22zm-1 9c.551 0 1 .449 1 1s-.449 1-1 1-1-.449-1-1 .449-1 1-1zm29.675 38h-35.351c-2.865 0-5.446-1.561-6.798-4h48.946c-1.351 2.439-3.932 4-6.797 4zm-2.036-44c1.46 0 2.703 1.044 2.955 2.483l6.216 35.517h-49.62l6.216-35.517c.252-1.438 1.495-2.483 2.955-2.483h2.639v4.184c-1.161.414-2 1.514-2 2.816 0 1.654 1.346 3 3 3s3-1.346 3-3c0-1.302-.839-2.402-2-2.816v-4.184h22v4.184c-1.161.414-2 1.514-2 2.816 0 1.654 1.346 3 3 3s3-1.346 3-3c0-1.302-.839-2.402-2-2.816v-4.184z"/><path d="m-83-161h2v22h-2z"/><path d="m-79-143h2v2h-2z"/><path d="m-79-161h2v16h-2z"/><path d="m-71-143h2v2h-2z"/><path d="m-71-161h2v16h-2z"/><path d="m-59-143h2v2h-2z"/><path d="m-59-161h2v16h-2z"/><path d="m-55-143h2v2h-2z"/><path d="m-55-161h2v16h-2z"/><path d="m-75-161h2v20h-2z"/><path d="m-67-161h2v20h-2z"/><path d="m-63-161h2v20h-2z"/><path d="m-51-161h2v20h-2z"/><path d="m-47-161h2v22h-2z"/><path d="m9-133h.586c.526 0 1.042-.214 1.414-.586l2.414-2.414-2.414-2.414c-.372-.372-.888-.586-1.414-.586h-.586c-1.103 0-2 .897-2 2v2c0 1.103.897 2 2 2zm0-4h.586l1 1-1 1h-.586z"/><path d="m23-139h-2c-1.103 0-2 .897-2 2v2c0 1.103.897 2 2 2h2c1.103 0 2-.897 2-2v-2c0-1.103-.897-2-2-2zm-2 4v-2h2l.002 2z"/><path d="m34.414-139c-.526 0-1.042.214-1.414.586l-2.414 2.414 2.414 2.414c.372.372.888.586 1.414.586h.586c1.103 0 2-.897 2-2v-2c0-1.103-.897-2-2-2zm0 4-1-1 1-1h.586l.002 2z"/><path d="m6-129h32c2.757 0 5-2.243 5-5v-23h12v-8h2v-3c0-1.302-.839-2.402-2-2.816v-.757c0-1.89-1.537-3.427-3.427-3.427-.529 0-1.06.125-1.533.362l-2.04 1.02c-.734-.84-1.8-1.382-3-1.382-.732 0-1.409.212-2 .556v-11.556c0-2.757-2.243-5-5-5h-32c-2.757 0-5 2.243-5 5v52c0 2.757 2.243 5 5 5zm47-30h-4v-6h4zm1-10c.552 0 1 .449 1 1v1h-6v-2zm-3.065-3.849c.197-.099.418-.151.639-.151.787 0 1.427.64 1.427 1.427v.573h-4c0-.287-.033-.566-.091-.836zm-5.935-.151c1.103 0 2 .897 2 2h-4c0-1.103.897-2 2-2zm-2 4h4v10h-4zm-2 10h-4v-6h4zm0-8h-6v-1c0-.551.448-1 1-1h5zm0-4h-4v-.573c0-.787.64-1.427 1.427-1.427.221 0 .441.052.639.151l2.026 1.013c-.059.27-.092.549-.092.836zm-22-18h6v3c0 1.654-1.346 3-3 3s-3-1.346-3-3zm-16 3c0-1.654 1.346-3 3-3h11v3c0 2.757 2.243 5 5 5s5-2.243 5-5v-3h11c1.654 0 3 1.346 3 3v11.882l-1.04-.52c-.474-.237-1.004-.362-1.533-.362-1.89 0-3.427 1.538-3.427 3.427v.757c-1.161.414-2 1.514-2 2.816v3h2v8h6v23c0 1.654-1.346 3-3 3h-32c-1.654 0-3-1.346-3-3z"/><circle cx="22" cy="-186" r="1"/><path d="m35-152.544c0-1.151-.337-2.265-.976-3.222-.642-.963-1.555-1.697-2.606-2.134.104-.143.218-.286.353-.446.548-.648 1.229-1.457 1.229-2.99 0-1.536-.688-2.339-1.241-2.983-.457-.533-.759-.885-.759-1.681v-4c0-4.962-4.037-9-9-9s-9 4.038-9 9v4c0 .796-.302 1.148-.759 1.681-.553.645-1.241 1.447-1.241 2.983 0 1.533.681 2.341 1.229 2.99.134.159.249.303.353.446-1.05.437-1.964 1.171-2.606 2.134-.639.957-.976 2.071-.976 3.222v7.544h26zm-21.241-10.473c.553-.645 1.241-1.447 1.241-2.983v-4c0-3.86 3.141-7 7-7s7 3.14 7 7v4c0 1.536.688 2.338 1.241 2.983.457.533.759.885.759 1.682 0 .803-.301 1.16-.757 1.701-.282.335-.601.736-.846 1.253l-3.718-.531-.475-1.023c1.677-1.066 2.796-2.935 2.796-5.065v-5h-2.172c-1.557 0-3.021-.606-4.121-1.707l-.707-.708-1.293 1.293c-.713.713-1.699 1.122-2.707 1.122h-1v5c0 2.13 1.119 3.999 2.796 5.064l-.475 1.023-3.718.531c-.245-.517-.564-.918-.846-1.253-.456-.541-.757-.898-.757-1.701 0-.796.302-1.148.759-1.681zm6.4 4.896.483-1.04c.437.102.89.161 1.358.161s.921-.059 1.358-.161l.483 1.04-1.841 2.455zm.521 4.027-1.941 1.94-.589-4.715.406-.058zm-2.68-10.906v-3.088c1.137-.201 2.207-.738 3.044-1.543 1.363 1.058 3.029 1.631 4.784 1.631h.172v3c0 2.206-1.794 4-4 4s-4-1.794-4-4zm7.444 8.074.406.058-.589 4.715-1.941-1.94zm7.556 9.926h-22v-5.544c0-.755.221-1.485.64-2.112.6-.9 1.559-1.505 2.63-1.657l1.9-.272 1.092 8.738 4.738-4.739 4.738 4.739 1.092-8.738 1.9.272c1.071.152 2.03.757 2.63 1.657.419.627.64 1.357.64 2.112z"/><path d="m60-191h-12c-1.654 0-3 1.346-3 3v4c0 1.654 1.346 3 3 3v1.586c0 1.331 1.083 2.414 2.414 2.414.637 0 1.259-.258 1.707-.707l3.293-3.293h4.586c1.654 0 3-1.346 3-3v-4c0-1.654-1.346-3-3-3zm1 7c0 .551-.448 1-1 1h-5.414l-3.88 3.879c-.235.236-.706.044-.706-.293v-3.586h-2c-.552 0-1-.449-1-1v-4c0-.551.448-1 1-1h12c.552 0 1 .449 1 1z"/><path d="m57-187h2v2h-2z"/><path d="m53-187h2v2h-2z"/><path d="m49-187h2v2h-2z"/><path d="m149-183c.552 0 1 .449 1 1h2c0-1.654-1.346-3-3-3v-2h-2v2h-3v3c0 1.654 1.346 3 3 3h2c.552 0 1 .449 1 1v1h-3c-.552 0-1-.449-1-1h-2c0 1.654 1.346 3 3 3v2h2v-2h3v-3c0-1.654-1.346-3-3-3h-2c-.552 0-1-.449-1-1v-1z"/><path d="m159-180c0-6.065-4.935-11-11-11-5.728 0-10.442 4.402-10.949 10h-1.051c-1.103 0-2 .897-2 2v12h-1v-3c0-1.654-1.346-3-3-3h-30c-1.654 0-3 1.346-3 3v20c0 .972.472 1.828 1.19 2.377 1.171 8.352 8.347 14.623 16.81 14.623s15.639-6.271 16.81-14.623c.718-.549 1.19-1.405 1.19-2.377v-3h1v12c0 1.103.897 2 2 2h1.051c.508 5.598 5.221 10 10.949 10 6.065 0 11-4.935 11-11 0-4.439-2.649-8.264-6.444-10 3.796-1.736 6.444-5.561 6.444-10s-2.649-8.264-6.444-10c3.795-1.736 6.444-5.561 6.444-10zm-57.25 37c-.654-1.237-1.135-2.58-1.423-4h5.826c.129 1.409.341 2.748.632 4zm1.279 2h4.308c.661 2.044 1.542 3.774 2.584 5.101-2.757-.998-5.148-2.783-6.892-5.101zm5.129-6h13.684c-.139 1.413-.372 2.758-.688 4h-12.309c-.315-1.242-.547-2.587-.687-4zm6.842 12c-2.201 0-4.24-2.37-5.542-6h11.084c-1.302 3.63-3.341 6-5.542 6zm5.079-.899c1.042-1.326 1.923-3.056 2.584-5.101h4.308c-1.744 2.318-4.135 4.103-6.892 5.101zm8.171-7.101h-5.035c.291-1.252.503-2.591.632-4h5.826c-.288 1.42-.768 2.763-1.423 4zm2.75-7c0 .552-.448 1-1 1h-30c-.552 0-1-.448-1-1v-11h32zm0-13h-32v-4h32zm0-6h-32v-1c0-.551.448-1 1-1h30c.552 0 1 .449 1 1zm2 4h1c1.103 0 2-.897 2-2v-12h1.051c.363 4.009 2.887 7.396 6.394 9-3.507 1.604-6.03 4.991-6.394 9h-4.051zm3 24v-12c0-1.103-.897-2-2-2h-1v-4h4.051c.363 4.009 2.887 7.396 6.394 9-3.507 1.604-6.03 4.991-6.394 9zm21 1c0 4.963-4.037 9-9 9s-9-4.037-9-9 4.037-9 9-9 9 4.037 9 9zm0-20c0 4.963-4.037 9-9 9s-9-4.037-9-9c0-4.962 4.037-9 9-9s9 4.038 9 9zm-9-11c-4.963 0-9-4.038-9-9s4.037-9 9-9 9 4.038 9 9-4.037 9-9 9z"/><path d="m143.625-146.781-1.25 1.562 4.625 3.699v.52h-2v2h2v2h-2v2h2v2h2v-2h2v-2h-2v-2h2v-2h-2v-.52l4.625-3.699-1.25-1.562-4.375 3.501z"/><path d="m144-163h-2v2h2v2h-2v2h2c0 2.206 1.794 4 4 4s4-1.794 4-4h-2c0 1.103-.897 2-2 2s-2-.897-2-2h2v-2h-2v-2h2v-2h-2c0-1.103.897-2 2-2s2 .897 2 2h2c0-2.206-1.794-4-4-4s-4 1.794-4 4z"/><path d="m105-153h2v2h-2z"/><path d="m109-153h2v2h-2z"/><path d="m101-153h2v2h-2z"/><path d="m101-157h10v2h-10z"/><path d="m112.172-177.828 1.414 1.414c.756-.756 2.072-.756 2.828 0l1.414-1.414c-1.51-1.512-4.146-1.512-5.656 0z"/><path d="m120.657-180.657c-3.119-3.119-8.195-3.119-11.314 0l1.414 1.414c2.34-2.339 6.146-2.339 8.486 0z"/><path d="m123.485-183.485c-4.68-4.679-12.291-4.679-16.971 0l1.414 1.414c3.898-3.898 10.244-3.898 14.143 0z"/><path d="m252-165h-18.642c2.307-2.397 3.642-5.597 3.642-9 0-7.168-5.832-13-13-13s-13 5.832-13 13c0 3.397 1.339 6.601 3.647 9h-18.647c-1.654 0-3 1.346-3 3v2c0 1.654 1.346 3 3 3h.132l.874 6.118c-2.28.464-4.008 2.467-4.008 4.882 0 2.757 2.243 5 5 5 .141 0 .276-.024.414-.036l.861 6.026c.49 3.426 3.47 6.01 6.931 6.01h35.592c3.461 0 6.44-2.584 6.931-6.01l.861-6.026c.137.012.272.036.412.036 2.757 0 5-2.243 5-5 0-2.414-1.727-4.417-4.006-4.881l.874-6.119h.132c1.654 0 3-1.346 3-3v-2c0-1.654-1.346-3-3-3zm-39-9c0-6.065 4.935-11 11-11s11 4.935 11 11c0 3.446-1.615 6.644-4.332 8.722l-1.318-.958c-.687-.499-1.498-.763-2.346-.764h.996v-4c0-2.206-1.794-4-4-4-1.103 0-2-.897-2-2v-2h2c1.103 0 2 .897 2 2h2c0-1.858-1.279-3.411-3-3.858v-2.142h-2v2h-3v4c0 2.206 1.794 4 4 4 1.103 0 2 .897 2 2v2h-2c-1.103 0-2-.897-2-2h-2c0 1.858 1.279 3.411 3 3.858v.686c-.601-.348-1.288-.545-2-.545-.851 0-1.664.265-2.353.765l-1.317.958c-2.713-2.078-4.33-5.284-4.33-8.722zm13.99 7c-.708.001-1.392.198-1.99.543v-.543zm-10.19 12 6.552-4.765c.242-.176.454-.38.648-.599.193.219.405.423.647.599l6.553 4.765zm17.149 2 4.051 2.946v3.054h-28v-3.055l4.049-2.945zm-37.949-6c-.552 0-1-.449-1-1v-2c0-.551.448-1 1-1h18.199l-5.5 4zm9.949 2-7.062 5.136-.734-5.136zm-7.95 14c-1.654 0-3-1.346-3-3 0-1.637 1.316-2.971 2.946-3l.401.002 21.477-15.62c.861-.626 2.17-.42 2.793.441.314.433.442.961.358 1.489s-.367.991-.799 1.305l-21.164 15.391-.061.418c-.209 1.468-1.478 2.574-2.951 2.574zm11.001 12h-2v-7c0-.552.448-1 1-1s1 .448 1 1zm8 0h-2v-5c0-.552.448-1 1-1s1 .448 1 1zm8 0h-2v-9c0-.552.448-1 1-1s1 .448 1 1zm8 0h-2v-5c0-.552.448-1 1-1s1 .448 1 1zm8 0h-2v-7c0-.552.448-1 1-1s1 .448 1 1zm5.746-4.293c-.291 2.036-1.82 3.638-3.746 4.125v-6.832c0-1.654-1.346-3-3-3s-3 1.346-3 3v7h-2v-5c0-1.654-1.346-3-3-3s-3 1.346-3 3v5h-2v-9c0-1.654-1.346-3-3-3s-3 1.346-3 3v9h-2v-5c0-1.654-1.346-3-3-3s-3 1.346-3 3v5h-2v-7c0-1.654-1.346-3-3-3s-3 1.346-3 3v6.832c-1.927-.487-3.455-2.089-3.746-4.125l-.902-6.313c1.228-.668 2.163-1.836 2.496-3.249l5.151-3.746v3.601h32v-3.6l5.15 3.745c.333 1.413 1.268 2.581 2.497 3.249zm6.254-10.707c0 1.654-1.346 3-3 3-1.473 0-2.742-1.106-2.952-2.573l-.061-.418-21.165-15.392c-.432-.313-.715-.777-.799-1.306-.084-.527.044-1.055.36-1.49.372-.515.976-.822 1.614-.822.426 0 .832.132 1.177.382l20.618 14.995v.002l.599.434.261.19.406-.001c1.628.031 2.942 1.364 2.942 2.999zm-10.95-11h7.797l-.734 5.137zm10.95-3c0 .551-.448 1-1 1h-12.7l-5.5-4h18.2c.552 0 1 .449 1 1z"/><path d="m212-151h2v2h-2z"/><path d="m234-151h2v2h-2z"/><path d="m216-151h16v2h-16z"/><path d="m247-187v2h-2v2h2v2h2v-2h2v-2h-2v-2z"/><path d="m247-175h2v2h-2z"/><path d="m247-171h2v2h-2z"/><path d="m247-179h2v2h-2z"/><path d="m199-173h-2v2h2v2h2v-2h2v-2h-2v-2h-2z"/><path d="m199-179h2v2h-2z"/><path d="m199-187h2v2h-2z"/><path d="m199-183h2v2h-2z"/><path d="m-260.565-73.833-5.08.564c-1.84.205-3.532 1.172-4.643 2.653l-.731.975c-.6.799-1.02 1.739-1.209 2.688-.284 1.212-2.772 11.897-2.772 13.953 0 2.588 2.449 3.843 2.493 3.862l5.443 3.201-.314.449c-2.37 3.384-3.622 7.356-3.622 11.488v1h30v-1c0-.822-.056-1.644-.157-2.46l1.151.576-3.212-7.494c.408.265.769.522 1.052.734.562.422 1.231.645 1.935.645 1.782 0 3.231-1.449 3.231-3.23v-1.539c0-1.781-1.449-3.23-3.231-3.23h-.103c-.226 0-.448.032-.666.078v-16.724c0-1.04-.246-2.081-.711-3.012-1.026-2.051-2.999-3.427-5.278-3.681l-4.446-.494c-.434-.048-.784-.368-.87-.797l-.064-.318c2.012-1.187 3.369-3.372 3.369-5.874v-3.18h1v-2h-1.395c-2.16 0-4.252-.634-6.051-1.832l-.555-.37-.555.37c-1.798 1.198-3.891 1.832-6.051 1.832h-1.393v2h1v2.997c0 1.872.729 3.631 2.055 4.952.404.402.852.743 1.328 1.031l-.078.39c-.086.429-.436.749-.87.797zm-8.854 5.393.731-.976c.117-.157.261-.288.396-.427l8.063 2.419-4.786 1.476-4.973-1.492c.15-.355.338-.694.569-1zm5.336 14.995-1.003-.589c-.51-.3-1.055-.527-1.619-.689l.843-2.53c.132.219.255.445.409.65l.11.147c.662.882 1.092 1.925 1.26 3.011zm-7.464 2.553c-.015-.007-1.453-.766-1.453-2.108 0-1.287 1.407-7.821 2.489-12.509l4.084 1.225c-.369.916-.573 1.894-.573 2.89v.148c0 .292.038.581.071.87l-1.792 5.376h-1.279v2h1.367c.89 0 1.766.238 2.534.69l5.994 3.521c.986.493 1.388 1.697.895 2.684-.342.682-1.027 1.105-1.791 1.105-.307 0-.615-.072-.829-.177zm28.519 15.892h-25.945c.184-3.358 1.292-6.569 3.233-9.342l.405-.578 2.553 1.501c.551.274 1.167.419 1.781.419 1.525 0 2.896-.847 3.579-2.211.986-1.973.184-4.38-1.729-5.335l-2.859-1.68c.002-.068.01-.136.01-.204 0-1.872-.619-3.728-1.743-5.226l-.11-.146c-.314-.419-.554-.887-.743-1.374l16.832-5.05c.489.861.764 1.84.764 2.832v.148c0 1.233-.407 2.457-1.146 3.442l-.111.147c-1.124 1.498-1.742 3.354-1.742 5.226 0 1.163.251 2.289.692 3.344l-.587-.385c-.528-.346-1.141-.528-1.771-.528h-.103c-1.782 0-3.231 1.449-3.231 3.23v1.539c0 1.781 1.449 3.23 3.231 3.23.704 0 1.373-.223 1.935-.645.282-.212.643-.469 1.052-.734l-3.212 7.494 5.995-2.997 2.63 1.315c.169.848.292 1.705.34 2.568zm-3.699-8.099c.234.058.475.099.727.099s.493-.041.727-.099l1.279 2.984-2.006-1.003-2.005 1.003zm-.273-2.901c0-.552.449-1 1-1s1 .448 1 1-.449 1-1 1-1-.448-1-1zm-1.96.391c-.837.477-1.568.985-2.074 1.365-.213.159-.467.244-.735.244-.679 0-1.231-.552-1.231-1.23v-1.539c0-.679.552-1.23 1.231-1.23h.103c.24 0 .474.069.675.201l2.038 1.336c-.024.151-.047.303-.047.462 0 .134.022.262.04.391zm7.951-2.189c.202-.133.435-.202.675-.202h.103c.679 0 1.231.552 1.231 1.23v1.539c0 .679-.552 1.23-1.231 1.23-.268 0-.522-.085-.735-.244-.506-.38-1.237-.888-2.074-1.365.017-.129.04-.257.04-.391 0-.159-.023-.311-.047-.463zm-1.991-1.086-1.006.659c-.532-.476-1.226-.775-1.994-.775-.329 0-.641.066-.937.165-.687-1.078-1.063-2.31-1.063-3.595 0-1.442.477-2.872 1.341-4.024l.111-.148c.998-1.33 1.547-2.979 1.547-4.643v-.148c0-1.185-.29-2.357-.811-3.418l2.811-.843v16.77zm-1.562-21.279c.431.39.793.861 1.062 1.399.168.335.293.691.377 1.056l-21.869 6.561c-.001-.033-.008-.066-.008-.1v-.148c0-.936.241-1.85.677-2.675zm-16.438-10.84v-3.1c1.765-.22 3.463-.799 5-1.715 1.537.916 3.235 1.495 5 1.715l.001 3.282c0 2.658-2.163 4.821-4.821 4.821h-.151c-1.349 0-2.614-.521-3.563-1.467-.945-.943-1.466-2.199-1.466-3.536zm3.263 6.774c.57.146 1.161.229 1.766.229h.151c.54 0 1.064-.07 1.568-.189.275 1.262 1.31 2.202 2.597 2.344l4.231.47-9.373 2.891-9.031-2.709c.135-.027.266-.072.404-.088l5.08-.564c1.3-.144 2.347-1.101 2.607-2.384z"/><path d="m-129.685-53.9-.249-.736c-.024-.078-.05-.154-.077-.231-.009-.023-.014-.048-.023-.071l-4.804-12.81 3.838-3.838v-5.414h-11c0-9.925-8.075-18-18-18s-18 8.075-18 18h-11v5.414l3.838 3.838-.865 2.306-1.414 3.772-2.525 6.732c-.009.023-.014.047-.023.071-.027.076-.053.153-.077.231l-.249.736.009.009c-.453 1.51-.694 3.07-.694 4.654 0 8.953 7.284 16.237 16.237 16.237h29.526c8.953 0 16.237-7.284 16.237-16.237 0-1.585-.241-3.144-.694-4.654zm-5.07-7.931 2.774 7.399-2.019 2.018-5.086-5.086zm-7.245-13.169h9v2h-9zm0 4h7.586l-2 2h-5.586zm-35 8h1v-14c0-8.822 7.178-16 16-16s16 7.178 16 16v14h1c.352 0 .686.072 1 .184v-4.184h5.307l1.167 3.112-4.474 4.474v3.828l4.586 4.586-5.086 5.086-3.453-3.453c-.64.233-1.327.367-2.047.367-.147 0-.292-.012-.436-.022l4.522 4.522-5.086 5.086-5.086-5.086 4.674-4.675c-.711-.172-1.374-.466-1.961-.867l-4.127 4.127-5.086-5.085 6.586-6.586v-2.414c0-.158.023-.309.047-.461l-1.547 1.547-5.086-5.086 3-3h5.586v4.184c.314-.112.648-.184 1-.184h1v-14c0-6.617-5.383-12-12-12s-12 5.383-12 12v14h1c.352 0 .686.072 1 .184v-4.184h5.586l3 3-6.586 6.586v2.414c0 .147-.012.292-.022.436l1.522-1.522 5.086 5.086-5.086 5.086-4.127-4.127c-.587.401-1.251.694-1.961.867l4.674 4.674-5.086 5.086-5.086-5.086 4.522-4.522c-.144.01-.289.022-.436.022-.72 0-1.407-.134-2.047-.367l-3.453 3.453-5.086-5.086 4.586-4.586v-3.828l-4.474-4.474 1.167-3.111h5.307v4.184c.314-.113.648-.185 1-.185zm27-12v2h-20v-2zm-20-2c0-5.514 4.486-10 10-10s10 4.486 10 10zm20 6v2h-20v-2zm-8.414 4-1.586 1.586-1.586-1.586zm3.5 9.5-5.086 5.086-5.086-5.086 5.086-5.086zm0 13-5.086 5.086-5.086-5.086 5.086-5.086zm-32.086-30.5h9v2h-9zm1.414 4h7.586v2h-5.586zm-.118 10.392.459-1.223 4.331 4.331-5.086 5.086-2.019-2.019zm-2.96 8.358 1.25 1.25-1.578 1.578c.013-.956.126-1.901.328-2.828zm-.113 5.441 2.777-2.777 5.086 5.086-4.585 4.585c-1.668-1.919-2.827-4.284-3.278-6.894zm11.586 11.586c-2.61-.451-4.974-1.61-6.893-3.279l4.585-4.585 5.086 5.086zm2.605.223 1.586-1.586 1.586 1.586zm6 0-3-3 5.086-5.086 5.086 5.086-3 3zm7 0 1.586-1.586 1.586 1.586zm6 0-3-3 5.086-5.086 5.086 5.086-3 3zm7 0 1.586-1.586 1.586 1.586zm5.777-.223-2.777-2.777 5.086-5.086 4.58 4.58c-1.919 1.665-4.281 2.832-6.889 3.283zm8.308-4.692-4.585-4.585 5.086-5.086 2.785 2.785c-.452 2.608-1.617 4.97-3.286 6.886zm1.915-11.085 1.25-1.25c.201.927.315 1.871.327 2.828z"/><circle cx="-160" cy="-58" r="1"/><circle cx="-153" cy="-64" r="1"/><circle cx="-167" cy="-64" r="1"/><circle cx="-185" cy="-57" r="1"/><circle cx="-135" cy="-57" r="1"/><circle cx="-134" cy="-44" r="1"/><circle cx="-147" cy="-44" r="1"/><circle cx="-160" cy="-44" r="1"/><circle cx="-173" cy="-44" r="1"/><circle cx="-186" cy="-44" r="1"/><circle cx="-140" cy="-38" r="1"/><circle cx="-153" cy="-38" r="1"/><circle cx="-167" cy="-38" r="1"/><circle cx="-179" cy="-38" r="1"/><circle cx="-139" cy="-51" r="1"/><circle cx="-154" cy="-51" r="1"/><circle cx="-166" cy="-51" r="1"/><circle cx="-181" cy="-51" r="1"/><path d="m-36-91h-56c-1.654 0-3 1.346-3 3v26c0 1.302.839 2.402 2 2.816v19.184c0 1.654 1.346 3 3 3h52c1.654 0 3-1.346 3-3v-19.184c1.161-.414 2-1.514 2-2.816v-26c0-1.654-1.346-3-3-3zm-57 3c0-.208.079-.39.188-.551l35.945 11.981c-.774.444-1.473.914-2.096 1.38-.536-.498-1.249-.81-2.037-.81h-6c-.788 0-1.501.312-2.037.811-2.494-1.867-6.224-3.811-10.963-3.811-.369 0-.729.038-1.08.103l-11.92-3.832zm23.038 19.372c-2.232 1.736-5.655 3.628-10.038 3.628-2.206 0-4-1.794-4-4v-4c0-2.206 1.794-4 4-4 4.383 0 7.806 1.892 10.038 3.628-.016.123-.038.245-.038.372v4c0 .128.022.249.038.372zm2.069 2.477c.284.089.58.151.893.151h2.674l-5.237 18.328-6.136-4.602zm.893-1.849c-.551 0-1-.448-1-1v-4c0-.552.449-1 1-1h6c.551 0 1 .448 1 1v4c0 .552-.449 1-1 1zm4.754 2h1.246c.313 0 .609-.062.893-.151l7.806 13.878-6.136 4.602-4.523-15.829zm4.208-7.372c2.232-1.736 5.655-3.628 10.038-3.628 2.206 0 4 1.794 4 4v4c0 2.206-1.794 4-4 4-4.383 0-7.806-1.892-10.038-3.628.016-.123.038-.244.038-.372v-4c0-.127-.022-.249-.038-.372zm-34.962-7.256 9.23 2.967c-1.359 1.101-2.23 2.78-2.23 4.661v4c0 .702.128 1.373.35 2h-7.35zm0 18.628v-3h8.54c1.099 1.224 2.688 2 4.46 2 3.986 0 7.26-1.375 9.685-2.923l-2.77 4.923h-18.915c-.551 0-1-.448-1-1zm56 22c0 .552-.449 1-1 1h-52c-.551 0-1-.448-1-1v-19h16.79l-4.092 7.274 9.864 7.397 4.438-15.531 4.437 15.532 9.864-7.397-4.091-7.275h16.79zm2-22c0 .552-.449 1-1 1h-18.915l-2.769-4.923c2.424 1.548 5.698 2.923 9.684 2.923 1.771 0 3.36-.776 4.46-2h8.54zm0-5h-7.35c.223-.627.35-1.298.35-2v-2.613l7 2.333zm0-4.387-7.05-2.35c-.365-2.961-2.891-5.263-5.95-5.263-2.348 0-4.448.479-6.275 1.188l-33.563-11.188h51.838c.551 0 1 .448 1 1z"/><path d="m-39-83h2v2h-2z"/><path d="m-39-87h2v2h-2z"/><path d="m-39-79h2v2h-2z"/><path d="m-87-49h-2v8h4v-2h-2z"/><path d="m-89-53h2v2h-2z"/><path d="m-41-57h2v2h-2z"/><path d="m-41-49h2v2h-2z"/><path d="m-41-53h2v2h-2z"/><path d="m61-63.974v-14.026c0-1.654-1.346-3-3-3h-4.165c-.162-.526-.435-1.014-.835-1.414l-11.586-11.586c-1.289-1.289-3.539-1.289-4.828 0l-13 13h-17.586c-1.654 0-3 1.346-3 3v14.026c-1.207.913-2 2.347-2 3.974v22c0 2.757 2.243 5 5 5h52c2.757 0 5-2.243 5-5v-22c0-1.627-.793-3.061-2-3.974zm-7.165-15.026h4.165c.552 0 1 .448 1 1v13.101c-.323-.066-.658-.101-1-.101h-1v-10h-6.586l2.586-2.586c.4-.4.673-.888.835-1.414zm-26.835 28c-1.654 0-3-1.346-3-3v-9h7 2 7v9c0 1.654-1.346 3-3 3zm7 2v10h-4v-10zm-11.519-2.895-1.481 1.481-4.086-4.086 4.5-4.5h.586v5c0 .754.18 1.463.481 2.105zm-6.55-21.105h9.765c-2.577 1.811-4.345 4.694-4.645 8h-12.051v-1.069c3.612-.454 6.477-3.319 6.931-6.931zm-6.931 4.91v-4.91h4.91c-.424 2.507-2.403 4.486-4.91 4.91zm24 3.09h-2c-.552 0-1-.448-1-1v-1h3c.552 0 1 .448 1 1h2c0-1.654-1.346-3-3-3v-2h-2v2h-3v3c0 .352.072.686.184 1h-5.125c.499-4.493 4.316-8 8.941-8s8.442 3.507 8.941 8zm8.586 16-5.586 5.586v-5.586h1c1.273 0 2.423-.493 3.307-1.279zm-22 0-4.086 4.086-4.086-4.086 4.086-4.086zm-4.086-6.914-3.086-3.086h6.172zm-1.414 1.414-4.086 4.086-3-3v-5.586h2.586zm-5.5 5.5-1.586 1.586v-3.172zm1.414 1.414 4.086 4.086-4.5 4.5h-2.586v-5.586zm5.5 5.5 3.086 3.086h-6.172zm1.414-1.414 4.086-4.086 4.086 4.086-4.086 4.086zm9.586 1.414 1.5 1.5v1.586h-4.586zm-4.086-6.914 1.279-1.279c.884.786 2.034 1.279 3.307 1.279h1v5.586zm13.586 8.414 1.5-1.5 3.086 3.086h-4.586zm2.914-2.914 4.086-4.086 4.086 4.086-4.086 4.086zm5.5-5.5 4.086-4.086 4.086 4.086-4.086 4.086zm4.086 6.914 3.086 3.086h-6.172zm1.414-1.414 4.086-4.086 3 3v5.586h-2.586zm5.5-5.5 1.586-1.586v3.172zm-1.414-1.414-4.086-4.086 4.5-4.5h2.586v5.586zm-5.5-5.5-3.086-3.086h6.172zm-1.414 1.414-4.086 4.086-1.481-1.481c.301-.642.481-1.351.481-2.105v-5h.586zm-8.781-18.5h9.765c.453 3.612 3.319 6.477 6.931 6.931v1.069h-12.052c-.299-3.306-2.067-6.189-4.644-8zm11.785 0h4.91v4.91c-2.507-.424-4.486-2.403-4.91-4.91zm1.496-8c.267.268.414.622.414 1s-.147.732-.414 1l-4 4h-15.172l12.586-12.586zm-9.586-9.586 1.586 1.586-14 14h-3.172zm-4-2c.535-.533 1.465-.533 2 0l.586.586-17 17h-3.172zm-33 14.586c0-.552.448-1 1-1h15.586l-4 4h-10.586v10h-1c-.342 0-.677.035-1 .101zm56 40c0 1.654-1.346 3-3 3h-52c-1.654 0-3-1.346-3-3v-22c0-1.654 1.346-3 3-3h16v2h-15c-1.103 0-2 .897-2 2v20c0 1.103.897 2 2 2h50c1.103 0 2-.897 2-2v-20c0-1.103-.897-2-2-2h-15v-2h16c1.654 0 3 1.346 3 3z"/><path d="m157-45-.002-7.068-1.685-24.431c-.22-3.173-1.313-6.22-3.162-8.81-1.622-2.271-3.801-4.134-6.301-5.385l-8.614-4.306h-18.473l-8.614 4.307c-2.5 1.251-4.679 3.113-6.301 5.385-1.85 2.59-2.942 5.637-3.162 8.81l-1.686 24.498v7h10v-6.946l1.906-17.788c.059.923.094 1.847.094 2.773v18.904c0 2.278-.389 4.473-1.155 6.522-.569 1.518-.845 2.675-.845 3.535 0 3.741 13.048 5 19 5s19-1.259 19-5c0-.86-.276-2.017-.845-3.535-.767-2.05-1.155-4.244-1.155-6.522v-18.904c0-.925.035-1.85.094-2.773l1.906 17.788v6.946zm-2-2h-6v-4h6zm-48 0h-6l-.002-4h6.006zm.102-6h-6.03l1.611-23.362c.193-2.803 1.159-5.495 2.793-7.784.392-.549.827-1.063 1.288-1.554 1.256 2.652 2.254 5.424 2.955 8.273zm19.898 17.987c-8.797-.136-15.334-2.02-15.999-3.057.013-.378.132-1.199.717-2.764.851-2.275 1.282-4.706 1.282-7.224v-18.904c0-6.961-1.631-13.906-4.695-20.155.849-.686 1.761-1.298 2.739-1.788l8.095-4.047 2.183 15.279 5.678-6.624zm-5.753-57.325 5.391 5.391-3.96 4.62zm2.167-.662h9.171l-4.585 4.585zm11.339.662-1.431 10.011-3.96-4.62zm8.247 25.376v18.904c0 2.518.432 4.948 1.282 7.224.585 1.564.704 2.386.717 2.764-.665 1.037-7.202 2.921-15.999 3.057v-49.284l5.678 6.624 2.183-15.279 8.095 4.047c.979.49 1.89 1.101 2.739 1.788-3.064 6.249-4.695 13.194-4.695 20.155zm3.281-10.466c.702-2.849 1.7-5.621 2.955-8.273.461.491.897 1.006 1.288 1.554 1.634 2.289 2.6 4.981 2.793 7.784l1.614 23.363h-6.038z"/><path d="m141-48.058v-1.942h-2v1.942c0 2.666.408 5.256 1.214 7.709-.612.155-1.403.332-2.391.509l.354 1.969c1.39-.249 2.646-.542 3.632-.847l1.017-.313-.416-1.102c-.935-2.5-1.41-5.166-1.41-7.925z"/><path d="m131-69h10v2h-10z"/><path d="m115-69h10v2h-10z"/><path d="m115-51h2v2h-2z"/><path d="m115-59h2v2h-2z"/><path d="m115-55h2v2h-2z"/><path d="m205-51h2v2h-2z"/><path d="m201-51h2v2h-2z"/><path d="m209-51h2v2h-2z"/><path d="m203-61c-.552 0-1-.448-1-1h-2c0 1.654 1.346 3 3 3v2h2v-2h3v-3c0-1.654-1.346-3-3-3h-2c-.552 0-1-.448-1-1v-1h3c.552 0 1 .448 1 1h2c0-1.654-1.346-3-3-3v-2h-2v2h-3v3c0 1.654 1.346 3 3 3h2c.552 0 1 .448 1 1v1z"/><path d="m241.168-91.947-1.899-1.52c-1.236-.988-2.79-1.533-4.373-1.533h-12.896c-1.103 0-2 .897-2 2 0 .732.212 1.409.556 2h-4.556c-1.654 0-3 1.346-3 3 0 .352.072.686.184 1h-1.184c-1.302 0-2.402.839-2.816 2h-7.184c-2.757 0-5 2.243-5 5v7.521c.613-.507 1.286-.941 2-1.307v-6.214c0-1.654 1.346-3 3-3h7.184c.414 1.161 1.514 2 2.816 2h-9c-1.103 0-2 .897-2 2v4.426c.645-.183 1.312-.313 2-.376v-4.05h10.184c.328.919 1.086 1.627 2.036 1.884-.139.346-.22.721-.22 1.116 0 1.654 1.346 3 3 3h1.239l-2.194 14.628c-.03.197-.045.397-.045.596v.776c0 .732.212 1.409.556 2h-7.251c-1.787 1.256-3.959 2-6.305 2h41c1.103 0 2-.897 2-2v-19h2v24c0 1.654-1.346 3-3 3h-44c-1.654 0-3-1.346-3-3v-4.214c-.714-.366-1.387-.8-2-1.307v5.521c0 2.757 2.243 5 5 5h13.963c-.168 1.595-.997 3.041-2.296 4h-.667c-2.757 0-5 2.243-5 5 0 1.654 1.346 3 3 3h26c1.654 0 3-1.346 3-3 0-2.757-2.243-5-5-5h-.666c-1.299-.959-2.128-2.405-2.296-4h13.962c2.757 0 5-2.243 5-5v-24h4v-20h-11c-1.321 0-2.433.864-2.832 2.053zm-23.205 46.947h12.075c.114 1.464.634 2.845 1.492 4h-15.059c.857-1.155 1.377-2.536 1.492-4zm17.037 6c1.654 0 3 1.346 3 3 0 .552-.448 1-1 1h-26c-.552 0-1-.448-1-1 0-1.654 1.346-3 3-3zm-19-50h8 7.586l.949.949c1.322 1.322 3.08 2.051 4.95 2.051h1.515v-2h-1.515c-1.336 0-2.592-.521-3.536-1.465l-1.535-1.535h-.414-8c-1.103 0-2-.897-2-2h12.896c1.131 0 2.24.389 3.123 1.096l2.981 2.385v11.038l-2.733 2.187-.406-2.706h-7.861v-6.586c0-.645.251-1.251.707-1.707l-1.414-1.414c-.487.487-.828 1.074-1.043 1.707h-12.25c-.552 0-1-.448-1-1s.448-1 1-1zm-4 6c-.552 0-1-.448-1-1s.448-1 1-1h4 12v2h-12zm3 3c0-.552.448-1 1-1h12v2h-5.967-1.895-2.138-2c-.552 0-1-.448-1-1zm3 5c-.552 0-1-.448-1-1s.448-1 1-1h1.839l-.3 2zm21 18c0 1.103-.897 2-2 2h-16c-1.103 0-2-.897-2-2v-.776c0-.099.007-.197.022-.297l2.839-18.927h.172 6.967 7.139l2.84 18.929c.015.098.021.196.021.295zm6 2h-4.556c.344-.591.556-1.268.556-2v-.776c0-.198-.015-.398-.044-.594l-2.354-15.693c.231-.144.454-.3.667-.47l1.899-1.52c.399 1.189 1.511 2.053 2.832 2.053h1zm8-21h-9c-.552 0-1-.448-1-1v-14c0-.552.448-1 1-1h9z"/><path d="m232-70c0 1.654-1.346 3-3 3s-3-1.346-3-3v-5h-2v5c0 2.757 2.243 5 5 5s5-2.243 5-5v-5h-2z"/><path d="m-235 49c.551 0 1 .448 1 1h2c0-1.654-1.346-3-3-3v-2h-2v2h-3v3c0 1.654 1.346 3 3 3h2c.551 0 1 .448 1 1v1h-3c-.551 0-1-.448-1-1h-2c0 1.654 1.346 3 3 3v2h2v-2h3v-3c0-1.654-1.346-3-3-3h-2c-.551 0-1-.448-1-1v-1z"/><path d="m-263 5h-3v10h3c1.654 0 3-1.346 3-3 0-.768-.29-1.469-.766-2 .476-.531.766-1.232.766-2 0-1.654-1.346-3-3-3zm0 8h-1v-2h1c.551 0 1 .448 1 1s-.449 1-1 1zm0-4h-1v-2h1c.551 0 1 .448 1 1s-.449 1-1 1z"/><path d="m-254 12c0 .552-.449 1-1 1s-1-.448-1-1v-7h-2v7c0 1.654 1.346 3 3 3s3-1.346 3-3v-7h-2z"/><path d="m-244.8 4.4-2.2 2.933-2.2-2.933-1.6 1.2 2.8 3.733v5.667h2v-5.667l2.8-3.733z"/><path d="m-272.33 45.762-1.113-10.762h13.908l4.535 6.803 4.535-6.803h12.184l-1.688 6.753c.705-.274 1.445-.475 2.211-.599l1.539-6.154h.219c1.103 0 2-.897 2-2v-2c0-1.103-.897-2-2-2h-10.465l1.333-2h-4.868v-8h7c1.654 0 3-1.346 3-3v-12c0-1.654-1.346-3-3-3h-24c-1.654 0-3 1.346-3 3v12c0 1.654 1.346 3 3 3h7v8h-4.869l1.333 2h-10.529l-.756-7.309c-.159-1.534-1.441-2.691-2.984-2.691h-6.195c-1.654 0-3 1.346-3 3s1.346 3 3 3h7.512l2.494 24.103h.005c.026 1.024.446 1.946 1.103 2.641-1.855 1.021-3.114 2.994-3.114 5.256 0 3.309 2.691 6 6 6s6-2.691 6-6c0-1.538-.586-2.937-1.54-4h18.591c-.03-.33-.051-.662-.051-1s.021-.67.051-1h-23.051c-1.103 0-2-.897-2-2s.897-2 2-2h24.214c.366-.714.8-1.387 1.307-2h-25.521c-.871 0-1.672.288-2.33.762zm-11.67-22.762c-.551 0-1-.448-1-1s.449-1 1-1h6.196c.514 0 .942.386.995.896l.114 1.104zm48 8v2h-13.131l1.333-2zm-32-15v-12c0-.552.449-1 1-1h24c.551 0 1 .448 1 1v12c0 .552-.449 1-1 1h-24c-.551 0-1-.448-1-1zm10 13v-10h6v10h3.131l-6.131 9.197-6.131-9.197zm-15.857 2h11.655l1.333 2h-12.781zm7.857 26c0 2.206-1.794 4-4 4s-4-1.794-4-4 1.794-4 4-4 4 1.794 4 4z"/><path d="m-161 55c-.551 0-1-.448-1-1h-2c0 1.654 1.346 3 3 3v2h2v-2h3v-3c0-1.654-1.346-3-3-3h-2c-.551 0-1-.448-1-1v-1h3c.551 0 1 .448 1 1h2c0-1.654-1.346-3-3-3v-2h-2v2h-3v3c0 1.654 1.346 3 3 3h2c.551 0 1 .448 1 1v1z"/><path d="m-147.102 13h-4.898v-4c0-4.411-3.589-8-8-8s-8 3.589-8 8v4h-4.898l-3 28h-15.102v22h62v-22h-15.102zm-18.898-4c0-3.309 2.691-6 6-6s6 2.691 6 6v4h-12zm-5.102 6h3.102v4.184c.314-.112.648-.184 1-.184s.686.072 1 .184v-4.184h12v4.184c.314-.112.648-.184 1-.184s.686.072 1 .184v-4.184h3.102l2.786 26h-3.888v-12h-20v12h-3.887zm19.102 16v10h-16v-10zm-37 12h4.91c-.423 2.507-2.403 4.486-4.91 4.91zm0 18v-4.91c2.507.423 4.486 2.403 4.91 4.91zm58 0h-4.91c.423-2.507 2.403-4.486 4.91-4.91zm0-18v4.91c-2.507-.423-4.486-2.403-4.91-4.91zm0 6.931v4.139c-3.612.453-6.477 3.319-6.931 6.931h-44.139c-.453-3.612-3.319-6.477-6.931-6.931v-4.139c3.612-.453 6.477-3.319 6.931-6.931h44.139c.454 3.612 3.319 6.477 6.931 6.931z"/><path d="m-187 19v10h-2.869l5.869 8.803 5.869-8.803h-2.869v-10zm3 15.197-2.131-3.197h1.131v-10h2v10h1.131z"/><path d="m-133 37v-10h2.869l-5.869-8.803-5.869 8.803h2.869v10zm-3-15.197 2.131 3.197h-1.131v10h-2v-10h-1.131z"/><path d="m-36 25h-8c-.889 0-1.68.396-2.23 1.012-.066-.017-.13-.045-.196-.06l-6.8-1.569c-.456-.105-.774-.505-.774-.974v-.845c2.505-2.331 4-5.63 4-9.185 0-1.313-1.067-2.38-2.38-2.38h-2.148c-2.772 0-5.547-.655-8.025-1.895l-.211-.104h-.236c-1.654 0-3 1.346-3 3v1.384c0 3.552 1.495 6.85 4 9.181v.845c0 .469-.318.869-.775.974l-6.799 1.569c-1.456.336-2.726 1.13-3.675 2.209-.505-1.265-1.736-2.162-3.178-2.162-.528 0-1.057.125-1.533.361l-2.601 1.301c-.725-.409-1.549-.662-2.439-.662s-1.714.253-2.439.662l-2.602-1.302c-.474-.235-1.003-.36-1.531-.36-1.89 0-3.428 1.537-3.428 3.427v1.758c-1.161.414-2 1.514-2 2.816v3h2v6c-1.103 0-2 .897-2 2v2c0 1.103.897 2 2 2v14h58v-14.001c1.103 0 2-.897 2-2v-2c0-1.103-.897-2-2-2v-3c0-1.302-.839-2.402-2-2.816v-4.184h1c1.654 0 3-1.346 3-3v-2c0-1.654-1.346-3-3-3zm-13 2.411 2.013.464c-.002.042-.013.082-.013.125v2c0 1.654 1.346 3 3 3h1v4h-4v-4.414l-.293-.293c-1.101-1.101-1.707-2.564-1.707-4.121zm11 11.589c.551 0 1 .448 1 1v3h-16v-3c0-.552.449-1 1-1zm-3-2v-4h2v4zm-23-23.616v-1.384c0-.485.347-.891.806-.981 2.689 1.297 5.68 1.981 8.666 1.981h2.148c.209 0 .38.17.38.384 0 4.081-2.341 7.771-6 9.519-3.659-1.748-6-5.438-6-9.519zm8.935 12.199c-.271 1.386-1.474 2.417-2.935 2.417-1.462 0-2.665-1.031-2.935-2.417.432-.409.733-.943.861-1.54.532.33 1.093.624 1.68.876l.394.169.394-.169c.588-.252 1.148-.546 1.68-.876.128.597.429 1.13.861 1.54zm-9.935 1.366 2.227-.514c.616 2.071 2.505 3.565 4.773 3.565 2.267 0 4.157-1.493 4.773-3.565l2.227.514v1.223c0 1.949.707 3.789 2 5.227v3.601h-3c-1.654 0-3 1.346-3 3v3h-12v-9.602c1.293-1.438 2-3.277 2-5.227zm-4.124.952 2.124-.49v.761c0 1.557-.606 3.021-1.707 4.121l-.293.293v10.414h-4v-6h2v-3c0-1.212-.726-2.253-1.763-2.726.527-1.662 1.9-2.971 3.639-3.373zm-7.943.25c.198-.1.419-.151.64-.151.787 0 1.427.64 1.427 1.427v1.573h-3.101c-.143-.703-.443-1.345-.848-1.907zm-1.933 4.849h5c.551 0 1 .448 1 1v1h-6zm0 4h4v6h-4zm-4-8c1.302 0 2.402.839 2.816 2h-5.631c.413-1.161 1.513-2 2.815-2zm2 4v10h-4v-10zm-10-3.573c0-.787.64-1.427 1.427-1.427.22 0 .441.052.638.15l1.884.942c-.405.562-.705 1.205-.848 1.907h-3.101zm-2 4.573c0-.552.449-1 1-1h5v2h-6zm6 3v6h-4v-6zm50 24h-54v-12h54zm2-16 .001 2h-58.001v-2zm0-15c0 .552-.449 1-1 1h-8c-.551 0-1-.448-1-1v-2c0-.552.449-1 1-1h8c.551 0 1 .448 1 1z"/><path d="m-81 57h2v2h-2z"/><path d="m-85 57h2v2h-2z"/><path d="m-89 57h2v2h-2z"/><path d="m57.062 5c-5.101 0-10.138-1.338-14.566-3.868l-.496-.283-.496.283c-4.429 2.53-9.466 3.868-14.576 3.868-1.011 0-1.892.716-2.096 1.702-.734 3.555-3.141 20.134-3.707 26.922-.617-.39-1.342-.624-2.125-.624-.911 0-1.742.318-2.415.832l-5.539-2.462c-.553-.245-1.141-.37-1.746-.37-2.371 0-4.3 1.929-4.3 4.3v1.7h-1c-1.654 0-3 1.346-3 3v7h2v13c0 1.654 1.346 3 3 3h26c1.654 0 3-1.346 3-3v-13h.293c.943.427 1.795.798 2.485 1.09 1.303.551 2.686.83 4.111.83 1.582 0 3.108-.344 4.537-1.021 10.998-5.206 16.574-9.236 16.574-11.979 0-3.517-3.04-25.15-3.837-29.197-.197-.998-1.081-1.723-2.101-1.723zm-42.062 56h-9c-.552 0-1-.448-1-1v-13h10zm0-16h-12v-5c0-.552.448-1 1-1h11zm0-8h-8v-1.7c0-1.269 1.031-2.3 2.3-2.3.324 0 .638.066.934.198l5.078 2.257c-.2.476-.312.997-.312 1.545zm6 24h-4v-22h4zm-4-24c0-1.103.897-2 2-2s2 .897 2 2zm16 23c0 .552-.448 1-1 1h-9v-14h10zm-10.311-24.545 5.078-2.257c.295-.132.609-.198.933-.198 1.269 0 2.3 1.031 2.3 2.3v1.7h-8c0-.548-.112-1.069-.311-1.545zm12.311 9.545h-12v-6h11c.552 0 1 .448 1 1zm10.57 1.092c-2.203 1.045-4.787 1.096-7.013.156-.454-.192-.983-.421-1.558-.675v-5.573c0-1.654-1.346-3-3-3h-1v-1.7c0-2.371-1.929-4.3-4.3-4.3-.605 0-1.193.125-1.746.37l-3.77 1.676c.657-7.103 2.906-22.539 3.607-25.939.014-.064.069-.107.147-.107 5.259 0 10.455-1.331 15.063-3.854 4.608 2.523 9.804 3.854 15.063 3.854.068 0 .124.045.137.109.77 3.906 3.8 25.487 3.8 28.811 0 1.382-4.828 5.153-15.43 10.172z"/><path d="m38 26.586-3-3-4.414 4.414 7.414 7.414 15.414-15.414-4.414-4.414zm0 6-4.586-4.586 1.586-1.586 3 3 11-11 1.586 1.586z"/><path d="m156 9h-6v-2h4v-3c0-1.654-1.346-3-3-3h-4c-1.654 0-3 1.346-3 3v3h4v2h-12v-2h4v-3c0-1.654-1.346-3-3-3h-4c-1.654 0-3 1.346-3 3v3h4v2h-12v-2h4v-3c0-1.654-1.346-3-3-3h-4c-1.654 0-3 1.346-3 3v3h4v2h-12v-2h4v-3c0-1.654-1.346-3-3-3h-4c-1.654 0-3 1.346-3 3v3h4v2h-6c-1.654 0-3 1.346-3 3v34c0 1.302.839 2.402 2 2.816v12.184h-2v2h62v-2h-2v-12.184c1.161-.414 2-1.514 2-2.816v-34c0-1.654-1.346-3-3-3zm-10-4v-1c0-.552.448-1 1-1h4c.552 0 1 .448 1 1v1zm-14 0v-1c0-.552.448-1 1-1h4c.552 0 1 .448 1 1v1zm-14 0v-1c0-.552.448-1 1-1h4c.552 0 1 .448 1 1v1zm-14 0v-1c0-.552.448-1 1-1h4c.552 0 1 .448 1 1v1zm-1 56h-2v-12h2zm14 0h-12v-12h10v4h2zm0-10v-2h22v2zm14.237 2-3.237 2.698-3.237-2.698zm-10.237 8h-2v-8h2zm2-6.864 3.437 2.864-3.437 2.864zm1.763 6.864 3.237-2.698 3.237 2.698zm8.237-1.136-3.437-2.864 3.437-2.864zm4 1.136h-2v-8h2zm14 0h-12v-8h2v-4h10zm4 0h-2v-12h2zm2-15c0 .552-.448 1-1 1h-56c-.552 0-1-.448-1-1v-34c0-.552.448-1 1-1h56c.552 0 1 .448 1 1z"/><path d="m101 45h54v-32h-54zm2-30h50v28h-50z"/><path d="m122 36.685 14.088-7.685-14.088-7.685zm2-12 7.912 4.315-7.912 4.315z"/><path d="m105 39h2v2h-2z"/><path d="m105 31h2v2h-2z"/><path d="m105 35h2v2h-2z"/><path d="m149 17h2v2h-2z"/><path d="m149 25h2v2h-2z"/><path d="m149 21h2v2h-2z"/><path d="m224 5c-1.654 0-3 1.346-3 3s1.346 3 3 3 3-1.346 3-3-1.346-3-3-3zm0 4c-.552 0-1-.448-1-1s.448-1 1-1 1 .448 1 1-.448 1-1 1z"/><path d="m247 49v.553c-.305.279-.64.547-1 .804v-1.357c0-3.268-2.627-5.929-5.879-5.994l2.77-24.006h1.89l2.384-9.536-5.833-2.916-1.113 4.452h-1.39c-.413-1.164-1.525-2-2.829-2s-2.416.836-2.829 2h-2.783l1.82-5.462-8.208-4.689-8.208 4.689 1.82 5.462h-2.783c-.413-1.164-1.525-2-2.829-2s-2.416.836-2.829 2h-1.39l-1.113-4.452-5.833 2.916 2.384 9.536h1.89l2.77 24.006c-3.252.065-5.879 2.726-5.879 5.994v1.357c-.36-.257-.695-.524-1-.804v-.553c0-2.206-1.794-4-4-4h-4v2c0 2.206 1.794 4 4 4h2.622c1.325 1.22 3.07 2.228 5.028 3.045-1.602 1.082-2.65 2.895-2.65 4.955v4h2c3.309 0 6-2.691 6-6v-1.255c3.676.873 7.385 1.255 10 1.255 1.641 0 3.088-.806 4-2.031.912 1.225 2.359 2.031 4 2.031 2.615 0 6.324-.383 10-1.255v1.255c0 3.309 2.691 6 6 6h2v-4c0-2.06-1.048-3.873-2.649-4.956 1.958-.817 3.702-1.825 5.027-3.044h2.622c2.206 0 4-1.794 4-4v-2h-4c-2.206 0-4 1.794-4 4zm-50 0c-1.103 0-2-.897-2-2h2c1.103 0 2 .897 2 2zm7.781-32-1.616-6.464 2.167-1.084.887 3.548h4.781v-1c0-.552.448-1 1-1s1 .448 1 1v1h7.388l-2.18-6.538 5.792-3.311 5.792 3.311-2.18 6.538h7.388v-1c0-.552.448-1 1-1s1 .448 1 1v1h4.781l.887-3.548 2.167 1.084-1.616 6.464zm19.219 27.989-10.318-4.423-2.157-21.566h24.95l-2.157 21.566zm.053.02-.003.002-.003-.001zm-20.053 5.991v-2c0-2.206 1.794-4 4-4v2c0 2.206-1.794 4-4 4zm4 6c0 2.206-1.794 4-4 4v-2c0-2.005 1.472-3.675 3.439-3.951.187.058.372.117.561.172zm12-2c-3.74 0-9.263-.784-13.713-2.455 2.177-.901 3.713-3.046 3.713-5.545v-1.484l6.609 2.832c-.983.914-1.609 2.207-1.609 3.652h2c0-1.654 1.346-3 3-3s3 1.346 3 3-1.346 3-3 3zm4-5.969c-.912-1.225-2.359-2.031-4-2.031-.391 0-.767.056-1.133.141l-8.941-3.831-2.804-24.31h2.393l2.294 22.939 11.451 4.908c.233.101.482.153.74.153.259 0 .509-.052.736-.151l11.455-4.909 2.294-22.94h2.393l-2.805 24.31-8.941 3.831c-.365-.085-.741-.141-1.132-.141-1.641 0-3.088.806-4 2.031zm4 5.969c-1.654 0-3-1.346-3-3s1.346-3 3-3 3 1.346 3 3h2c0-1.445-.626-2.738-1.609-3.652l6.609-2.832v1.484c0 2.499 1.536 4.644 3.713 5.545-4.45 1.671-9.973 2.455-13.713 2.455zm16 4v2c-2.206 0-4-1.794-4-4v-1.779c.188-.055.374-.114.561-.172 1.968.276 3.439 1.946 3.439 3.951zm0-8c-2.206 0-4-1.794-4-4v-2c2.206 0 4 1.794 4 4zm7-2h-2c0-1.103.897-2 2-2h2c0 1.103-.897 2-2 2z"/></g></g></svg>