<svg id="Capa_1" enable-background="new 0 0 512 512" height="512" viewBox="0 0 512 512" width="512" xmlns="http://www.w3.org/2000/svg"><g><path d="m271 400v97c0 8.28-6.72 15-15 15s-15-6.72-15-15v-97c0-8.28 6.72-15 15-15s15 6.72 15 15z" fill="#dd5958"/><path d="m271 400v97c0 8.28-6.72 15-15 15v-127c8.28 0 15 6.72 15 15z" fill="#d8225b"/><path d="m367 497c0 8.28-6.72 15-15 15h-192c-8.28 0-15-6.72-15-15s6.72-15 15-15h192c8.28 0 15 6.72 15 15z" fill="#425796"/><path d="m367 497c0 8.28-6.72 15-15 15h-96v-30h96c8.28 0 15 6.72 15 15z" fill="#283758"/><path d="m431 240c0 96.5-78.5 175-175 175s-175-78.5-175-175c0-8.28 6.72-15 15-15s15 6.72 15 15c0 79.95 65.05 145 145 145s145-65.05 145-145c0-8.28 6.72-15 15-15s15 6.72 15 15z" fill="#425796"/><path d="m431 240c0 96.5-78.5 175-175 175v-30c79.95 0 145-65.05 145-145 0-8.28 6.72-15 15-15s15 6.72 15 15z" fill="#283758"/><path d="m367 106c0 153.158.159 142.727-.39 149-4.57 53.7-49.74 96-104.61 96h-12c-57.985 0-105-47.19-105-105 0-153.158-.155-142.726.38-149 4.53-54.25 49.72-97 104.62-97h12c57.893 0 105 47.543 105 106z" fill="#eef4ff"/><path d="m367 106c0 153.158.159 142.727-.39 149-4.57 53.7-49.74 96-104.61 96h-6v-351h6c57.893 0 105 47.543 105 106z" fill="#d9e6fc"/><path d="m367 161v30h-71c-8.28 0-15-6.72-15-15s6.72-15 15-15z" fill="#bed9fd"/><path d="m367 225c0 22.204.121 24.168-.39 30h-54.61c-8.28 0-15-6.72-15-15s6.72-15 15-15z" fill="#bed9fd"/><path d="m367 127h-55c-8.28 0-15-6.72-15-15s6.72-15 15-15h54.62c.51 6.039.38 8.295.38 30z" fill="#bed9fd"/><g fill="#d9e6fc"><path d="m231 176c0 8.28-6.72 15-15 15h-71v-30h71c8.28 0 15 6.72 15 15z"/><path d="m215 112c0 8.28-6.72 15-15 15h-55c0-22.211-.122-24.117.38-30h54.62c8.28 0 15 6.72 15 15z"/><path d="m215 240c0 8.28-6.72 15-15 15h-54.61c-.519-5.924-.39-8.101-.39-30h55c8.28 0 15 6.72 15 15z"/></g></g></svg>