<?xml version="1.0" encoding="iso-8859-1"?>
<!-- Generator: Adobe Illustrator 19.0.0, SVG Export Plug-In . SVG Version: 6.00 Build 0)  -->
<svg version="1.1" id="Capa_1" xmlns="http://www.w3.org/2000/svg" xmlns:xlink="http://www.w3.org/1999/xlink" x="0px" y="0px"
	 viewBox="0 0 512 512" style="enable-background:new 0 0 512 512;" xml:space="preserve">
<g>
	<path style="fill:#8BF2E6;" d="M142.776,418.781c-2.566,0-5.005-0.776-7.056-2.246c-5.615-4.029-6.742-12.101-2.517-17.997
		l0.152-0.213l0.166-0.202c0.821-1,2.744-3.343,12.354-7.556l7.085-3.105c2.371-1.039,4.99,0.839,4.766,3.418l-0.669,7.706
		c-0.901,10.381-2.487,12.963-3.164,14.065l-0.16,0.26l-0.179,0.248c-2.051,2.831-5.024,4.746-8.371,5.391
		C144.389,418.705,143.581,418.781,142.776,418.781L142.776,418.781z"/>
	<path style="fill:#8BF2E6;" d="M69.776,418.781c-2.566,0-5.006-0.777-7.057-2.247c-5.614-4.028-6.741-12.1-2.516-17.996
		l0.152-0.213l0.166-0.202c0.821-1,2.744-3.343,12.354-7.556l7.085-3.105c2.371-1.039,4.99,0.839,4.766,3.418l-0.669,7.706
		c-0.901,10.381-2.487,12.963-3.164,14.065l-0.16,0.26l-0.179,0.248c-2.051,2.831-5.024,4.746-8.371,5.391
		C71.388,418.705,70.58,418.781,69.776,418.781L69.776,418.781z"/>
	<path style="fill:#8BF2E6;" d="M87.775,471.781c-2.567,0-5.008-0.778-7.059-2.249c-5.611-4.026-6.738-12.098-2.513-17.994
		l0.152-0.213l0.166-0.202c0.821-1,2.744-3.343,12.354-7.556l7.085-3.105c2.371-1.039,4.99,0.839,4.766,3.418l-0.669,7.706
		c-0.901,10.381-2.487,12.963-3.164,14.065l-0.16,0.26l-0.179,0.248c-2.051,2.831-5.024,4.746-8.371,5.391
		C89.384,471.705,88.577,471.781,87.775,471.781L87.775,471.781z"/>
</g>
<path style="fill:#FFE44C;" d="M213.434,405.955H186.46c-1.841,0-3.213-1.699-2.824-3.499l10.558-48.957h72.618l-13.277,42.687
	c-0.578,1.86,0.811,3.748,2.759,3.748h13.263c2.516,0,3.83,2.993,2.127,4.845l-63.18,68.699c-1.984,2.158-5.55,0.33-4.956-2.541
	l12.717-61.509C216.634,407.636,215.265,405.955,213.434,405.955z"/>
<path style="fill:#C3FFF9;" d="M451.184,199.5l3.158-10.337c0.852-2.79,1.572-5.547,2.138-8.193
	c1.166-5.447,1.871-11.014,2.099-16.561c-13.776,8.655-28.686,13.225-43.176,13.226c-0.001,0-0.003,0-0.004,0
	c-9.21,0-18.042-1.824-26.25-5.421c-11.703-5.13-21.797-13.901-29.19-25.367l-1.712-2.655l0.564-3.109
	c4.269-23.514,24.745-40.581,48.688-40.581c23.07,0,43.268,16.202,48.296,38.625c5.042-3.028,10.801-4.625,16.704-4.625
	c17.92,0,32.5,14.58,32.5,32.5s-14.58,32.5-32.5,32.5h-21.315V199.5z"/>
<path style="fill:#8BF2E6;" d="M405.034,179.224c-5.836-8.272-9.27-18.352-9.27-29.224c0-0.736,0.016-1.469,0.047-2.197
	c0.136-3.169,2.809-5.639,5.981-5.639h14.514c5.328,0,9.933-4.122,10.098-9.448c0.172-5.529-4.257-10.066-9.747-10.069
	c-5.489-0.004-8.021-6.853-3.933-10.517c2.424-2.173,5.062-4.109,7.873-5.785c1.774-1.057,1.412-3.687-0.584-4.215
	c-4.018-1.063-8.215-1.63-12.514-1.63c-26.432,0-48.147,20.67-49.438,47.058l-0.14,2.847l1.692,2.293
	c7.15,9.693,16.078,16.931,26.536,21.515C392.143,176.839,398.471,178.51,405.034,179.224z"/>
<path style="fill:#FFE44C;" d="M407.491,240.198c-12.69-13-29.638-20.16-47.721-20.16c-10.631,0-20.739,2.395-30.041,7.119
	l-11.3,5.738l-0.32-12.669c-0.843-33.432-18.595-63.638-47.486-80.801l-5.489-3.261l1.962-6.075
	c10.774-33.371,38.751-58.679,73.011-66.048l5.351-1.151c3.149-0.677,5.951,2.113,5.287,5.264l-1.128,5.356
	c-4.033,19.155-3.169,38.136,2.5,54.893c6.784,20.053,20.078,35.287,37.434,42.894c8.109,3.555,16.814,5.357,25.873,5.357
	c10.467,0,21.046-2.38,31.443-7.074l6.181-2.79c3.27-1.476,6.852,1.328,6.204,4.856l-1.224,6.67
	c-0.176,0.958-0.366,1.914-0.57,2.866c-5.208,24.331-19.284,45.629-39.634,59.969l-5.572,3.926L407.491,240.198z"/>
<path style="fill:#FFC200;" d="M359.77,199.039c-7.65,0-15.192,0.984-22.461,2.903c-6.718-37.614-31.355-69.098-64.73-85.286
	c-2.137,4.306-3.982,8.788-5.481,13.434l-1.962,6.075l5.489,3.261c28.891,17.163,46.643,47.369,47.486,80.801l0.32,12.669
	l11.3-5.738c9.302-4.724,19.41-7.119,30.041-7.119c18.083,0,35.031,7.16,47.721,20.16l4.761,4.878l5.572-3.926
	c3.807-2.683,7.394-5.61,10.745-8.754C412.487,212.09,387.625,199.039,359.77,199.039z"/>
<path style="fill:#AFF2D8;" d="M362.866,354.5H133.019c-40.089,0-73.738-32.798-73.518-72.887
	c0.204-37.135,28.004-67.841,64.892-71.671c6.32-48.502,47.933-85.026,96.96-85.026c53.92,0,97.787,43.867,97.787,97.787
	c0,1.659-0.043,3.33-0.13,5.006c-0.106,2.058,2.191,3.355,3.917,2.229c10.959-7.15,23.572-10.9,36.842-10.9
	c37.347,0,67.73,30.384,67.73,67.731c0,35.405-27.646,65.073-62.939,67.543l-0.875,0.199L362.866,354.5z"/>
<g>
	<path style="fill:#FFC200;" d="M235.051,405.955h-21.617c1.831,0,3.2,1.681,2.83,3.474l-12.717,61.51
		c-0.594,2.871,2.972,4.699,4.956,2.541l20.815-22.634l8.563-41.417C238.251,407.636,236.882,405.955,235.051,405.955z"/>
	<path style="fill:#FFC200;" d="M215.811,353.5h-21.617l-4.262,19.76l0,0l-6.297,29.197c-0.388,1.8,0.983,3.499,2.824,3.499h21.618
		c-1.841,0-3.213-1.699-2.825-3.499l5.265-24.411c0.602-2.792,3.071-4.786,5.928-4.786h44.221l6.146-19.76L215.811,353.5
		L215.811,353.5z"/>
</g>
<path style="fill:#C3FFF9;" d="M56.5,124.5C29.206,124.5,7,102.294,7,75s22.206-49.5,49.5-49.5c23.07,0,43.268,16.202,48.296,38.625
	c5.04-3.027,10.8-4.625,16.704-4.625c17.92,0,32.5,14.58,32.5,32.5s-14.58,32.5-32.5,32.5H56.5z"/>
<path style="fill:#8BF2E6;" d="M74.066,124.5c2.025,0,2.651-2.782,0.803-3.609C57.323,113.045,45.064,95.432,45.064,75
	c0-0.706,0.015-1.408,0.044-2.107c0.132-3.157,2.755-5.639,5.915-5.639h14.346c5.288,0,9.849-4.11,9.983-9.396
	c0.137-5.44-4.231-9.893-9.639-9.895c-5.447-0.002-8.002-6.692-3.952-10.334c2.166-1.948,4.502-3.707,6.983-5.257
	c2.274-1.42,1.792-4.896-0.815-5.521C64.243,25.967,60.413,25.5,56.5,25.5c-27.613,0-50.017,22.726-49.491,50.457
	c0.514,27.1,23.217,48.543,50.321,48.543H74.066z"/>
<path style="fill:#87CEB7;" d="M108.001,283.07c0-36.807,26.46-67.525,62.272-73.291h47.692c8.521,0,15.428-6.907,15.428-15.428l0,0
	c0-8.521-6.907-15.428-15.428-15.428h-18.368c-7.452,0-11.842-8.42-7.527-14.496c9.986-14.061,23.494-25.374,39.146-32.753
	c3.084-1.454,2.314-6.058-1.082-6.364c-2.892-0.26-5.821-0.393-8.78-0.393c-49.027,0-90.641,36.523-96.96,85.026
	c-36.888,3.83-64.688,34.536-64.892,71.671c-0.22,40.089,33.429,72.887,73.518,72.887h16.45c2.428,0,3.194-3.301,1.001-4.344
	C125.386,338.224,108.001,312.646,108.001,283.07z"/>
<path d="M121.5,52.5c-4.225,0-8.391,0.673-12.354,1.979C100.814,33.177,79.958,18.5,56.5,18.5C25.346,18.5,0,43.846,0,75
	c0,21.509,12.086,40.239,29.821,49.778c4.943,2.659,10.938-0.931,10.938-6.543v-0.164c0-2.76-1.552-5.255-3.978-6.571
	C23.821,104.471,15,90.749,15,75c0-22.883,18.617-41.5,41.5-41.5c19.438,0,36.443,13.714,40.552,32.654
	c0.362,1.671,1.139,3.254,2.425,4.381c2.593,2.27,6.233,2.461,8.981,0.73c5.47-3.45,12.128-4.622,18.632-3.128
	c10.532,2.419,18.291,11.723,18.873,22.513c0.762,14.119-10.507,25.85-24.464,25.85H76.84c-4.099,0-7.421,3.323-7.421,7.421v0.158
	c0,4.099,3.323,7.421,7.421,7.421h43.919c21.57,0,39.72-16.984,40.23-38.548C161.514,70.739,143.597,52.5,121.5,52.5z"/>
<path d="M142.73,425.789c-3.979,0-7.819-1.22-11.092-3.568c-8.75-6.276-10.586-18.748-4.093-27.801
	c4.991-6.958,20.644-12.587,27.142-14.685c2.266-0.73,4.741-0.343,6.674,1.043c1.934,1.387,3.094,3.609,3.128,5.988
	c0.098,6.828-0.215,23.459-5.206,30.418c-3.101,4.323-7.637,7.25-12.773,8.24C145.246,425.668,143.981,425.789,142.73,425.789z
	 M149.088,397.896c-4.664,2.044-8.387,4.092-9.382,5.304c-1.645,2.295-1.355,5.377,0.674,6.833c1.242,0.89,2.595,0.797,3.289,0.664
	c1.344-0.259,2.553-1.051,3.408-2.23C147.906,407.116,148.649,402.946,149.088,397.896z"/>
<path d="M69.73,425.789c-3.979,0-7.819-1.22-11.092-3.568c-8.75-6.276-10.586-18.748-4.093-27.801
	c4.991-6.958,20.644-12.587,27.142-14.685c2.265-0.73,4.742-0.343,6.674,1.043c1.934,1.387,3.094,3.609,3.128,5.988
	c0.098,6.828-0.215,23.459-5.206,30.418c-3.101,4.323-7.637,7.25-12.773,8.24C72.246,425.668,70.981,425.789,69.73,425.789z
	 M76.088,397.896c-4.664,2.044-8.387,4.092-9.382,5.304c-1.645,2.295-1.355,5.377,0.674,6.833c1.242,0.89,2.595,0.797,3.289,0.664
	c1.344-0.259,2.553-1.051,3.408-2.23C74.906,407.116,75.649,402.946,76.088,397.896z"/>
<path d="M87.73,478.789c-3.979,0-7.819-1.22-11.092-3.568c-8.75-6.276-10.586-18.748-4.093-27.801
	c4.991-6.958,20.644-12.587,27.142-14.685c2.265-0.73,4.742-0.343,6.674,1.043c1.934,1.387,3.094,3.609,3.128,5.988
	c0.098,6.828-0.215,23.459-5.206,30.418c-3.101,4.323-7.637,7.25-12.773,8.24C90.246,478.668,88.981,478.789,87.73,478.789z
	 M94.088,450.896c-4.664,2.044-8.387,4.092-9.382,5.304c-1.645,2.295-1.355,5.377,0.674,6.833c1.241,0.891,2.595,0.796,3.289,0.664
	c1.344-0.259,2.553-1.051,3.408-2.23C92.906,460.116,93.649,455.946,94.088,450.896z"/>
<path d="M472.5,127.5c-4.225,0-8.391,0.673-12.354,1.979C451.814,108.177,430.958,93.5,407.5,93.5
	c-21.271,0-40.027,11.807-49.654,29.511c-5.1-17.238-5.069-37.528,1.138-57.814c0.51-1.668,0.554-3.476-0.071-5.105
	c-1.253-3.263-4.448-5.113-7.712-4.819c-41.414,3.832-76.473,31.4-90.029,70.506c-12.283-5.065-25.729-7.863-39.818-7.863
	c-17.902,0-34.873,4.559-49.745,12.614c-4.34,2.351-5.143,8.254-1.653,11.744c0.036,0.036,0.072,0.072,0.108,0.108
	c2.306,2.306,5.855,2.852,8.723,1.303c12.73-6.877,27.251-10.769,42.566-10.769c49.508,0,89.787,40.278,89.787,89.787
	c0,3.391-0.198,6.845-0.588,10.271c-0.28,2.455,0.479,4.97,2.295,6.645c2.807,2.589,6.946,2.646,9.789,0.385
	c10.667-8.482,23.507-12.965,37.133-12.965c32.936,0,59.73,26.795,59.73,59.731c0,31.222-24.377,57.385-55.498,59.563
	c-0.385,0.027-97.845,0.168-97.845,0.168h-133.2c-35.879,0-65.86-29.358-65.451-65.235c0.376-32.977,25.213-60.166,58.068-63.401
	c3.47-0.342,6.263-2.983,6.696-6.443c1.919-15.322,7.686-29.343,16.239-41.171c2.145-2.966,1.852-7.039-0.736-9.627l-0.118-0.118
	c-3.245-3.245-8.606-2.78-11.296,0.938c-8.902,12.304-15.216,26.648-18.075,42.284C101,206.733,85.172,215.397,73.227,228.5
	c-14.136,15.506-21.555,35.875-20.653,56.963C54.4,328.16,90.278,361.5,133.014,361.5h52.294l-9.139,42.374
	c-0.66,3.064,0.644,6.314,3.507,8.04c1.202,0.725,2.608,1.041,4.012,1.041h24.699l-13.388,64.755
	c-0.638,3.087,0.551,6.359,3.195,8.074c1.265,0.82,2.685,1.216,4.09,1.216c2.049,0,4.066-0.839,5.523-2.424l72.713-79.064
	c2.41-2.621,2.694-6.651,0.441-9.633c-1.445-1.914-3.783-2.944-6.182-2.944h-12.903l9.778-31.435c0,0,94.417-0.119,95.139-0.347
	c38.108-3.563,67.706-35.903,67.706-74.384c0-14.877-4.387-28.741-11.911-40.399c14.492-10.392,25.935-24.092,33.539-39.87h15.632
	c21.57,0,39.72-16.984,40.23-38.548C512.514,145.739,494.597,127.5,472.5,127.5z M215.122,454.465l9.818-47.491
	c0.457-2.209-0.105-4.506-1.529-6.255c-1.424-1.749-3.56-2.764-5.815-2.764H192.79l7.863-36.455h55.293l-11.417,36.708
	c-0.708,2.276-0.292,4.754,1.122,6.674c1.413,1.92,3.655,3.053,6.04,3.053h6.223L215.122,454.465z M449.635,179.503
	c-4.798,22.413-17.722,41.931-36.42,55.107c-13.58-13.912-32.516-22.572-53.446-22.572c-11.896,0-23.314,2.73-33.663,7.986
	c-0.938-37.191-21.35-69.628-51.397-87.478c10.021-31.036,35.709-53.938,67.08-60.685c-4.291,20.376-3.376,40.997,2.75,59.104
	c2.011,5.944,4.562,11.495,7.571,16.622c0.177,0.359,0.385,0.699,0.616,1.024c8.2,13.529,19.724,23.923,33.614,30.011
	c19.757,8.66,42.397,7.918,63.819-1.753C449.997,177.751,449.823,178.629,449.635,179.503z M472.5,191.5h-10.507
	c0.888-2.906,1.668-5.856,2.31-8.857c1.333-6.226,2.108-12.595,2.307-18.932c0.086-2.783-1.375-5.385-3.798-6.758
	c-2.423-1.375-5.407-1.291-7.75,0.212c-20.713,13.294-43.566,16.107-62.701,7.72c-10.628-4.658-19.293-12.473-25.678-22.375
	c3.552-19.564,20.645-34.01,40.817-34.01c19.542,0,36.623,13.86,40.616,32.956c0.503,2.405,2.152,4.411,4.414,5.37
	c2.261,0.958,4.85,0.749,6.928-0.562c3.905-2.463,8.415-3.765,13.042-3.765c13.509,0,24.5,10.991,24.5,24.5
	S486.009,191.5,472.5,191.5z"/>
<path d="M448.5,425.5h-100c-15.164,0-27.5-12.336-27.5-27.5s12.336-27.5,27.5-27.5S376,382.836,376,398c0,4.142-3.358,7.5-7.5,7.5
	s-7.5-3.358-7.5-7.5c0-6.893-5.607-12.5-12.5-12.5S336,391.107,336,398s5.607,12.5,12.5,12.5h100c4.142,0,7.5,3.358,7.5,7.5
	S452.642,425.5,448.5,425.5z"/>
<path d="M289.5,493.5c-15.164,0-27.5-12.336-27.5-27.5s12.336-27.5,27.5-27.5h100c4.142,0,7.5,3.358,7.5,7.5s-3.358,7.5-7.5,7.5
	h-100c-6.893,0-12.5,5.607-12.5,12.5s5.607,12.5,12.5,12.5S302,472.893,302,466c0-4.142,3.358-7.5,7.5-7.5s7.5,3.358,7.5,7.5
	C317,481.164,304.664,493.5,289.5,493.5z"/>
<g>
</g>
<g>
</g>
<g>
</g>
<g>
</g>
<g>
</g>
<g>
</g>
<g>
</g>
<g>
</g>
<g>
</g>
<g>
</g>
<g>
</g>
<g>
</g>
<g>
</g>
<g>
</g>
<g>
</g>
</svg>
