<svg xmlns="http://www.w3.org/2000/svg" width="1024" height="1024" viewBox="0 0 768 768" preserveAspectRatio="xMidYMid meet"><path d="M373.5 66.3L181 178.2l-28.1 16.6c-.4.4-.9 17.9-1.1 39l-.5 38.2 20.1 11.6 23.4 13.6 3.3 2-22.3 13-22.9 13.6c-.4.4-.9 17.9-1.1 39l-.5 38.2 26.6 15.4 205.5 118.2c1.4.5 24.3-12.6 198.1-113.6l33.6-19.8c.4-.4.9-17.9 1.1-39l.5-38.2-22.9-13.2c-12.5-7.3-22.8-13.5-22.8-13.9s9.3-6.1 20.8-12.8l22.4-13.3c1.4-1.2 1.6-5.5 2-39.6l.5-38.2-32.6-18.8-200-114.8c-.9-.2-5.6 2-10.6 4.9zm21.3 78.6L440 171l108 63.1c0 .8-43.3 25.9-44.7 25.9-.5 0-26.8-14.9-58.4-33.1l-59.5-34.1c-1.8-.9-8.6 2.7-44 23.3l-76 43.9-23.3-13.4-23.2-13.4 35.3-20.5 81.8-47.6 46.8-27.1c.2 0 5.6 3.1 12 6.9zm14.4 139.2l26.6 15.4c.2.1-45.5 26.9-50.1 29.3-.8.4-53.9-30-53.3-30.5.2-.3 49.9-29.2 50.3-29.3.1 0 12 6.8 26.5 15.1zm-132.7 60.2l107.4 62c.4.1 27-15 59.1-33.7l59.4-34c1.4-.1 45.6 25.3 45.6 26.3 0 .3-1.2 1.4-2.7 2.2l-160.2 93.1-62.8-36.3-103.4-59.7 22.3-13c12.3-7.2 22.8-13.1 23.3-13.1.6-.1 6 2.8 12 6.2zm17.6 313.4L270 714h15.7l4.5-11.3 4.6-11.2 18-.3 17.9-.2 8.8 23h18.3l-18-42.3-21.6-51c-2-4.8-3.8-8.7-4.2-8.7-.3 0-9.3 20.6-19.9 45.7zM325 677c0 .8-22.7.7-23.4-.1-.3-.3.7-3.6 2.3-7.5l6.1-14.8 3.3-7.8 5.8 14.8L325 677zm65-13.5V714h16l.2-32.1.3-32.2 34.4 33.4 35.2 33.7c.5.2.9-22.2.9-50.2V616h-16v65.2l-34.9-34.1-35.5-34.1c-.3 0-.6 22.7-.6 50.5zm162.8-46.9c-11.9 2.8-23.8 11.5-30.8 22.3-17.9 28-2.2 66.7 30.2 74.6 9 2.2 20.9 1.6 29.1-1.5 34.9-13.2 44.2-55.8 18-81.9-12.9-12.9-29.5-17.7-46.5-13.5zm25.8 16.9c7 3.4 14.7 11.9 17.4 19.3 1.8 4.7 2.1 7.3 1.8 14.2-.6 13.8-6.8 23.3-19.1 29.7-4.4 2.3-6.5 2.7-13.7 2.8-7.7 0-9.2-.3-15.2-3.3-7.3-3.6-12.3-8.6-16-16.1-1.9-3.9-2.3-6.2-2.3-15.1 0-9.5.3-11 2.7-15.6 5.2-9.8 11.7-15.3 21.7-18.1 6.6-1.9 16.4-.9 22.7 2.2zM58.8 659.2l-.3 43.3-2.5 4.9c-2.9 5.8-5.8 8.2-13.1 10.6l-5.4 1.9-.6 14.4 5.7-.6c11.8-1.2 23.2-9.4 28.4-20.3 3.4-7.3 4.1-18.3 3.8-58.9l-.3-38-15.4-.6-.3 43.3zM118 665v49h16v-98h-16v49zm60 0v49h64v-15h-48v-83h-16v49zm460.2-48.1c4.2 11.3 43.5 100.8 43.9 100.3.9-1 42.9-99.1 42.9-100.3 0-1.5-17.7-1.1-18.3.3-.2.7-5.7 15-12.2 31.8l-11.9 30.7c-.1.1-6-14.2-13.1-31.7l-12.9-32h-9.4c-5.1 0-9.2.4-9 .9z"/></svg>