<svg xmlns="http://www.w3.org/2000/svg" viewBox="0 0 511.999 511.999"><path d="M290.133 187.733c-37.64 0-68.267 30.626-68.267 68.267s30.626 68.267 68.267 68.267S358.4 293.64 358.4 256s-30.626-68.267-68.267-68.267zM330.3 284.1c3.337 3.336 3.337 8.73 0 12.066a8.51 8.51 0 0 1-12.066 0l-28.1-28.1-28.1 28.1a8.51 8.51 0 0 1-12.066 0c-3.336-3.337-3.336-8.73 0-12.066l28.1-28.1-28.1-28.1c-3.336-3.337-3.336-8.73 0-12.066s8.73-3.336 12.066 0l28.1 28.1 28.1-28.1c3.337-3.336 8.73-3.336 12.066 0s3.337 8.73 0 12.066L302.2 256l28.1 28.1zm179.643-144.6c-1.62-1.894-3.985-2.978-6.477-2.978H83.695l-15.522-67.38c.01-.3.094-.58.094-.887 0-18.825-15.3-34.133-34.133-34.133S0 49.442 0 68.266 15.3 102.4 34.133 102.4c8.533 0 16.247-3.26 22.238-8.448l12.1 52.6c.026.145-.034.3 0 .444l66.927 290.134a8.53 8.53 0 0 0 8.311 6.613h27.8c3.968 19.447 21.197 34.133 41.805 34.133s37.837-14.686 41.805-34.133h87.057c3.968 19.447 21.197 34.133 41.805 34.133 20.6 0 37.845-14.686 41.796-34.133h26.47a8.53 8.53 0 0 0 8.533-8.533c0-4.7-3.814-8.533-8.533-8.533h-26.47c-3.95-19.447-21.197-34.133-41.796-34.133-20.608 0-37.837 14.686-41.805 34.133H255.13c-3.968-19.447-21.197-34.133-41.805-34.133s-37.837 14.686-41.805 34.133H150.5l-11.793-51.2h330.615c4.207 0 7.8-3.072 8.43-7.236l34.133-221.867a8.5 8.5 0 0 0-1.953-6.854zm-219.8 201.822c-47.053 0-85.333-38.28-85.333-85.333s38.28-85.333 85.333-85.333 85.333 38.28 85.333 85.333-38.28 85.333-85.333 85.333z"/></svg>