<svg xmlns="http://www.w3.org/2000/svg" viewBox="0 0 448 512"><path d="M440.667 182.11l7.143-40c1.313-7.355-4.342-14.11-11.813-14.11h-74.8L375.8 46.11c1.313-7.355-4.342-14.11-11.813-14.11h-40.632a12 12 0 0 0-11.813 9.891L296.175 128H197.54l14.623-81.89c1.314-7.355-4.34-14.11-11.813-14.11h-40.632a12 12 0 0 0-11.813 9.891L132.528 128H53.432a12 12 0 0 0-11.813 9.891l-7.143 40C33.163 185.246 38.818 192 46.29 192h74.8L98.242 320H19.146a12 12 0 0 0-11.813 9.891l-7.143 40C-1.123 377.246 4.532 384 12.003 384h74.8L72.2 465.89C70.877 473.246 76.532 480 84.003 480h40.632a12 12 0 0 0 11.813-9.891L151.826 384h98.634l-14.623 81.89c-1.314 7.355 4.34 14.11 11.813 14.11h40.632a12 12 0 0 0 11.813-9.891L315.472 384h79.096a12 12 0 0 0 11.813-9.891l7.143-40c1.313-7.355-4.342-14.11-11.813-14.11h-74.8l22.857-128h79.096a12 12 0 0 0 11.813-9.891zM261.89 320h-98.634l22.857-128h98.634L261.89 320z"/></svg>