<svg xmlns="http://www.w3.org/2000/svg" height="682.667" viewBox="0 0 512 512" width="682.667"><path d="M483.738 0h-455.5C12.64.008-.004 12.66 0 28.262v455.5C.008 499.36 12.66 512.004 28.262 512h455.477c15.605.004 28.258-12.645 28.262-28.25V28.238C511.992 12.64 499.34-.004 483.738 0zm0 0" fill="#4267b2"/><path d="M353.5 512V314h66.75l10-77.5H353.5v-49.36c0-22.387 6.215-37.64 38.316-37.64H432.5V80.37c-7.078-.94-31.363-3.047-59.62-3.047-59 0-99.38 36-99.38 102.14V236.5H207V314h66.5v198zm0 0" fill="#fff"/></svg>