<svg xmlns="http://www.w3.org/2000/svg" viewBox="0 0 496 496"><path d="M0,304v65.6C0,396.8,21.6,416,48,416h400c26.4,0,48-19.2,48-46.4V304H0z" fill="#db2727"/><path d="M448,80H48C21.6,80,0,99.2,0,126.4V192h496v-65.6C496,99.2,474.4,80,448,80z" fill="#f3f4f5"/><path d="M0 192h496v112H0z" fill="#589f58"/><path d="M446.4,416c26.4,0,49.6-19.2,49.6-46.4V304H315.2L446.4,416z" fill="#c61a1a"/><path d="M448,80H48l132,112h316v-65.6C496,99.2,474.4,80,448,80z" fill="#d7dee2"/><path d="M315.2 304H496V192H180z" fill="#4d8c4d"/><path d="M448,80H48l367.2,112H496v-65.6C496,99.2,474.4,80,448,80z" fill="#bec8cc"/><path d="M496 214.4V192h-81.6z" fill="#3d7a3d"/><path d="M496,368.8c0,29.6-21.6,47.2-48,47.2H48c-26.4,0-48-20.8-48-48" fill="#af0e0e"/></svg>