<svg xmlns="http://www.w3.org/2000/svg" xmlns:xlink="http://www.w3.org/1999/xlink" viewBox="0 0 512 512"><path d="M494.347 114.764c-4.88 0-8.828 3.948-8.828 8.828v70.62h-35.3v-76.138c0-4.88-3.948-8.828-8.828-8.828s-8.828 3.948-8.828 8.828v76.138h-37.336v-82.388c0-4.88-3.948-8.828-8.828-8.828s-8.828 3.948-8.828 8.828v82.388h-37.698v-89.75c0-4.88-3.948-8.828-8.828-8.828s-8.828 3.948-8.828 8.828v89.75h-35.715l-4.018-97.034c-.2-4.88-4.552-8.63-9.18-8.457-4.87.2-8.664 4.3-8.457 9.18l3.988 96.3H231.58l-13.536-106.58c-.62-4.836-5.01-8.233-9.87-7.647-4.836.612-8.258 5.035-7.647 9.87l13.256 104.353H172.47L147.95 80.53c-1.035-4.767-5.732-7.8-10.492-6.767a8.83 8.83 0 0 0-6.767 10.492l23.715 109.957h-41.388L64.483 34.048c-2.836-9.354-10.552-16.362-20.156-18.293L10.56 9.005C5.732 7.996 1.12 11.15.172 15.927a8.83 8.83 0 0 0 6.922 10.388l33.76 6.75c3.207.647 5.784 2.983 6.733 6.103l84.14 277.676-46.03 85.498c-4.466 8.285-4.25 18.06.57 26.14 4.828 8.077 13.327 12.905 22.74 12.905H476.7c4.88 0 8.828-3.948 8.828-8.828s-3.948-8.828-8.828-8.828H109c-4.526 0-6.8-3.01-7.577-4.3-.776-1.293-2.336-4.733-.2-8.715l45.483-84.475 331.94-24.897c13.74-1.026 24.51-12.63 24.51-26.406V123.59c0-4.878-3.95-8.827-8.828-8.827zm-346.708 193.7l-29.27-96.595h39.846l20.333 94.277-30.908 2.318zm48.683-3.65l-20.046-92.944h39.75l11.51 90.603-31.213 2.34zm48.845-3.662l-11.34-89.28h35.73l3.61 87.183-27.998 2.098zm77.042-5.778l-31.43 2.357-3.555-85.862h34.985v83.505zm55.353-4.15l-37.698 2.828v-82.182h37.698v79.354zm54.992-4.125l-37.336 2.8v-78.03h37.336v75.23zm52.965-12.16c0 4.595-3.586 8.457-8.172 8.802l-27.138 2.035v-73.906h35.3v63.07z" fill="#a2aac2"/><g fill="#5b5d6e"><circle cx="132.414" cy="476.7" r="26.483"/><circle cx="450.208" cy="476.7" r="26.483"/></g><g fill="#c7cfe2"><use xlink:href="#B"/><use xlink:href="#B" x="317.795"/></g><path d="M504.243 114.833L72.96 62.023l5.596 18.464 423.55 51.863a7.58 7.58 0 0 0 1.078.07c4.396 0 8.207-3.276 8.75-7.758.593-4.838-2.846-9.243-7.69-9.83z" fill="#959cb3"/><defs ><path id="B" d="M132.415 485.523h0a10.77 10.77 0 0 1-10.559-8.657l-7.096-35.48h35.3l-7.096 35.48a10.77 10.77 0 0 1-10.559 8.657z"/></defs></svg>