<svg xmlns="http://www.w3.org/2000/svg" viewBox="0 0 409.6 409.6"><path d="M389.76 353.445H287.486c-10.957 0-19.84-8.883-19.84-19.84V73.652c0-10.957 8.883-19.84 19.84-19.84H389.76c10.957 0 19.84 8.883 19.84 19.84v259.953c0 10.958-8.883 19.84-19.84 19.84z" fill="#64798a"/><g fill="#d5d6db"><path d="M290.627 301.855h96v23.5h-96zm0-42.475h96v23.5h-96zm0-41.882h96v23.5h-96z"/><circle cx="338.637" cy="104.873" r="19.338"/></g><path d="M111.478 310.682h86.538v27.438h-86.538z" fill="#dc8744"/><path d="M309.487 91.513c0-4.768-3.865-8.633-8.633-8.633H8.633C3.865 82.88 0 86.745 0 91.513V271.12h309.487V91.513z" fill="#3a556a"/><path d="M16.88 99.763h275.727V271.12H16.88z" fill="#27a2db"/><path d="M0 271.12v33.845c0 4.768 3.865 8.633 8.633 8.633h292.22c4.768 0 8.633-3.865 8.633-8.633V271.12H0z" fill="#3a556a"/><circle cx="154.726" cy="292.352" r="11.735" fill="#d5d6db"/><path d="M208.508 336.143H100.98c-10.85 0-19.645 8.795-19.645 19.644h146.817c0-10.85-8.795-19.644-19.644-19.644z" fill="#2f4859"/></svg>