<svg xmlns="http://www.w3.org/2000/svg" height="512" viewBox="0 0 64 64" width="512"><path d="M35.804 3l-12 20.785 9.526 5.5-.732-2.732 2.732-.732-1.598-3.233 2.732-.732-1.598-3.232 2.732-.732L36 14.66l2.732-.732L38 11.196l2.732-.732L41 6z" fill="#d0d8da"/><path d="M34.866 18.624l.307-.082a4.99 4.99 0 0 1-.869-6.088l4.47-7.74L35.8 3l-12 20.785 9.526 5.5-.726-2.732 2.732-.733-1.6-3.232 2.732-.732zM8 61a1 1 0 0 1-.867-.5l-1-1.732A1 1 0 0 1 6.5 57.4l8.66-5a1 1 0 0 1 1 1.733l-7.794 4.5.5.866A1 1 0 0 1 8 61z" fill="#93999a"/><rect fill="#fcbc04" height="12" rx="2" transform="matrix(-.5 -.866 .866 -.5 -17.97 84.696)" width="12" x="9.464" y="41.536"/><path d="M14.07 41.413a6 6 0 0 1-2.605 7.319l-1.678.968 2.482 4.3a2 2 0 0 0 2.732.732l6.93-4A2 2 0 0 0 22.661 48l-4-6.93a2 2 0 0 0-2.732-.732z" fill="#e59730"/><circle cx="15.464" cy="47.536" fill="#f89c8d" r="2"/><path d="M15.037 48.01a1.989 1.989 0 0 1-1.446.212 2.052 2.052 0 0 0 .141.315 2 2 0 1 0 2.178-2.944 2 2 0 0 1-.873 2.417z" fill="#f8664f"/><path d="M7 27l17.32 10-4 6.928-17.32-10z" fill="#84d2f4"/><path d="M13.648 30.838a4.987 4.987 0 0 1-6.658 1.59l-2.343-1.353L3 33.928l17.32 10 4-6.928z" fill="#57b7eb"/><path d="M11.33 29.5l-2 3.464a1 1 0 1 1-1.732-1l2-3.464zm3.464 2l-2 3.464a1 1 0 1 1-1.732-1l2-3.464z" fill="#f9e109"/><path d="M9.23 33.1a.957.957 0 0 1-.77.37 1.009 1.009 0 0 1-.5-.13 1 1 0 0 1-.48-.66 4.536 4.536 0 0 0 1.75.42zm5.57-1.6l-2 3.46a.97.97 0 0 1-.86.5.983.983 0 0 1-.5-.13 1.01 1.01 0 0 1-.37-1.37l.9-1.53a4.958 4.958 0 0 0 1.7-1.59z" fill="#fcbc04"/><path d="M8.654 11.397L16.43 3.62l7.07 7.07-7.777 7.777zM2.998 17.05l2.828-2.828 7.07 7.07-2.828 2.828z" fill="#d0d8da"/><path d="M7.24 15.64l2.828-2.828 4.242 4.242-2.828 2.828z" fill="#656b76"/><path d="M27.042 4.325l-.065.018A6.934 6.934 0 0 0 22.11 9.21l-.018.065-4.243-4.243a6.937 6.937 0 0 1 8.008-1.3z" fill="#d0d8da"/><path d="M17.845 16.347l4.242-4.242 14.14 14.14-4.242 4.242z" fill="#57b7eb"/><g fill="#93999a"><path d="M18.556 11.64a4 4 0 0 1-5.657 0L10.657 9.4l-2 2 7.07 7.07 7.778-7.778-2-2zM7.95 20L4 16.053l-1 1 7.07 7.07L12.9 21.3l-1.03-1.034A2.991 2.991 0 0 1 7.95 20z"/><path d="M24.877 3.336a6.949 6.949 0 0 0-1.832 1.854 1.778 1.778 0 0 1-2.751.287l-1.33-1.33a6.892 6.892 0 0 0-1.116.884l4.243 4.243.017-.065a6.937 6.937 0 0 1 4.868-4.867l.065-.018-1.185-.592a6.959 6.959 0 0 0-.98-.397z"/></g><path d="M25.234 15.245l-1.268 1.268a1.379 1.379 0 0 1-1.949 0 1.38 1.38 0 0 1 0-1.95l1.267-1.263-1.192-1.2-4.243 4.243L31.99 30.488l4.243-4.243z" fill="#4891d3"/><path d="M34.652 29l-1.447-1.447L48.76 11.996l4.243 4.243-11.18 11.18z" fill="#93999a"/><path d="M47.675 13.082L42.76 18a7.845 7.845 0 0 0 .586.657 7.962 7.962 0 0 0 4.934 2.309L53 16.24l-1.5-1.5-1.086 1.086z" fill="#656b76"/><path d="M60.367 8.876l-5.95 5.95-4.243-4.243 5.95-5.95a8 8 0 1 0 4.243 4.243z" fill="#d0d8da"/><path d="M59.66 13.653a7.994 7.994 0 0 1-13.65-5.53 7.993 7.993 0 1 0 14.97 3.763 7.922 7.922 0 0 1-1.32 1.767z" fill="#93999a"/><path d="M59 44V34h-4.72a17.9 17.9 0 0 0-1.52-3.69l3.33-3.33-7.07-7.07-3.33 3.33a17.918 17.918 0 0 0-3.69-1.52V17H32v4.72a17.918 17.918 0 0 0-3.69 1.52l-3.33-3.33-7.07 7.07 3.33 3.33a17.9 17.9 0 0 0-1.52 3.69H15v10h4.72a17.918 17.918 0 0 0 1.52 3.69l-3.33 3.33 7.07 7.07 3.33-3.33a17.918 17.918 0 0 0 3.69 1.52V61h10v-4.72a17.918 17.918 0 0 0 3.69-1.52l3.33 3.33 7.07-7.07-3.33-3.33a17.918 17.918 0 0 0 1.52-3.69zm-22 4a9 9 0 1 1 9-9 9 9 0 0 1-9 9z" fill="#f9e109"/><path d="M49 54a26 26 0 0 1-25.01-33.1l-6.082 6.082 3.33 3.33A17.9 17.9 0 0 0 19.719 34H15v10h4.72a17.918 17.918 0 0 0 1.52 3.69l-3.33 3.33 7.07 7.07 3.33-3.33a17.918 17.918 0 0 0 3.69 1.52V61h10v-4.72a17.918 17.918 0 0 0 3.69-1.52l3.33 3.33 4.5-4.5A26.1 26.1 0 0 1 49 54z" fill="#fcbc04"/></svg>