<svg xmlns="http://www.w3.org/2000/svg" height="512" viewBox="0 0 58 59" width="512" fill-rule="nonzero"><path d="M37.9 40.9l-2.74 2.73c-.18.182-.424.285-.68.285s-.5-.103-.68-.285l-2.74-2.73 3.42-8.4z" fill="#f0c419"/><path d="M41.32 37.5L37.9 40.9l-3.42-3.42L37.9 30z" fill="#f3d55b"/><path d="m44.74 34.07-3.42 3.42-3.42-3.42 3.017-7.153z" fill="#f0c419"/><path d="M48.16 30.65l-3.42 3.42-3.42-3.42 2.93-6.5z" fill="#f3d55b"/><path d="m51.58 27.23-3.42 3.42-3.42-3.42 2.552-7.105z" fill="#f0c419"/><path d="m55 23.81-3.42 3.42-3.42-3.42 3.42-6.352z" fill="#f3d55b"/><path d="M57.73 21.07L55 23.8l-3.42-3.42 1.716-5.124L57.73 19.7c.182.18.285.424.285.68s-.103.5-.285.68z" fill="#f0c419"/><g fill="#f3d55b"><path d="M22.85 55.95l-2.73 2.74c-.18.182-.428.285-.685.285s-.504-.103-.685-.285l-2.73-2.73 4.563-8.835z"/><path d="M29 49.8l-2.74 2.73-8.145-2.655L26.27 45.7 29 48.43c.37.382.37.988 0 1.37z"/></g><path d="M55.68 16.3L15.33 56.64c-.382.37-.988.37-1.37 0l-7.6-7.6c-.316-.33-.366-.834-.12-1.22a2.91 2.91 0 0 0-3.96-3.96c-.386.246-.89.196-1.22-.12l-.77-.77c-.37-.382-.37-.988 0-1.37L40.64 1.24c.18-.182.424-.285.68-.285s.5.103.68.285l.78.77a1.02 1.02 0 0 1 .12 1.22 2.9 2.9 0 0 0 3.96 3.95c.386-.237.883-.184 1.2.13l7.6 7.6c.182.18.285.428.285.685s-.103.504-.285.685z" fill="#4c8056"/><g fill="#f0c419"><path d="M19.433 52.537l3.42-3.42 3.4 3.4-3.42 3.42zM16.02 55.96l-.01-.01"/><path d="M19.44 52.54l-.01-.01m3.43-3.4l-.01-.01"/></g><g fill="#393f4a"><rect height="11.607" rx="1" transform="matrix(.707 -.707 .707 .707 -25.262 22.879)" width="8.705" x="10.634" y="36.13"/><rect height="11.607" rx="1" transform="matrix(.707 -.707 .707 .707 -16.37 26.562)" width="8.705" x="19.526" y="27.239"/><rect height="11.607" rx="1" transform="matrix(.707 -.707 .707 .707 -7.479 30.245)" width="8.705" x="28.417" y="18.347"/><rect height="11.607" rx="1" transform="matrix(.707 -.707 .707 .707 1.412 33.928)" width="8.705" x="37.308" y="9.456"/></g></svg>