<?xml version="1.0" encoding="iso-8859-1"?>
<!-- Generator: Adobe Illustrator 19.0.0, SVG Export Plug-In . SVG Version: 6.00 Build 0)  -->
<svg version="1.1" id="Capa_1" xmlns="http://www.w3.org/2000/svg" xmlns:xlink="http://www.w3.org/1999/xlink" x="0px" y="0px"
	 viewBox="0 0 512 512" style="enable-background:new 0 0 512 512;" xml:space="preserve">
<path style="fill:#FEE9AB;" d="M53.129,102.4h405.743c15.206,0,27.529,12.322,27.529,27.529l0,0V409.6l0,0H25.6l0,0V129.929
	C25.6,114.722,37.922,102.4,53.129,102.4z"/>
<path style="fill:#FCCA75;" d="M290.133,418.133V435.2h-68.267v-17.067H8.533v34.133c0,9.429,7.637,17.067,17.067,17.067h460.8
	c9.429,0,17.067-7.637,17.067-17.067v-34.133L290.133,418.133L290.133,418.133z"/>
<rect x="221.87" y="418.13" style="fill:#FFF9E1;" width="68.27" height="17.07"/>
<path style="fill:#FCCA75;" d="M401.067,204.8v-51.2h-28.689c-2.722-11.503-7.279-22.494-13.5-32.546l20.301-20.292l-36.207-36.207
	l-20.292,20.3c-10.052-6.221-21.043-10.778-32.546-13.5V42.667h-51.2v28.689c-11.503,2.722-22.494,7.279-32.546,13.5l-20.292-20.301
	l-36.207,36.207l20.301,20.292c-6.221,10.052-10.778,21.043-13.5,32.546H128v51.2h28.689c2.722,11.503,7.279,22.485,13.5,32.538
	l-20.301,20.301l36.207,36.207l20.292-20.301c10.052,6.221,21.043,10.778,32.546,13.5v28.689h51.2v-28.689
	c11.503-2.722,22.494-7.279,32.546-13.5l20.292,20.301l36.207-36.207l-20.301-20.301c6.221-10.052,10.778-21.035,13.5-32.538
	L401.067,204.8L401.067,204.8z M264.533,238.933c-32.99,0-59.733-26.743-59.733-59.733s26.743-59.733,59.733-59.733
	s59.733,26.743,59.733,59.733S297.523,238.933,264.533,238.933z"/>
<circle style="fill:#FEE9AB;" cx="264.53" cy="179.2" r="59.733"/>
<g>
	<path style="fill:#231F20;" d="M503.467,409.6h-8.533V128c0-14.14-11.46-25.6-25.6-25.6H409.6v17.067h59.733
		c4.71,0,8.533,3.823,8.533,8.533v281.6H34.133V128c0-4.71,3.823-8.533,8.533-8.533h76.8V102.4h-76.8c-14.14,0-25.6,11.46-25.6,25.6
		v281.6H8.533c-4.71,0-8.533,3.823-8.533,8.533v34.133c0,14.14,11.46,25.6,25.6,25.6l0,0h460.8c14.14,0,25.6-11.46,25.6-25.6l0,0
		v-34.133C512,413.423,508.177,409.6,503.467,409.6z M494.933,452.267c0,4.71-3.823,8.533-8.533,8.533H25.6
		c-4.71,0-8.533-3.823-8.533-8.533v-25.6h196.267v8.533c0,4.71,3.823,8.533,8.533,8.533h68.267c4.71,0,8.533-3.823,8.533-8.533
		v-8.533h196.267L494.933,452.267L494.933,452.267z"/>
	<path style="fill:#231F20;" d="M68.267,153.6h25.6v-17.067H59.733c-4.71,0-8.533,3.823-8.533,8.533V179.2h17.067V153.6z"/>
	<path style="fill:#231F20;" d="M443.733,375.467h-25.6v17.067h34.133c4.71,0,8.533-3.823,8.533-8.533v-34.133h-17.067v25.599
		H443.733z"/>
	<path style="fill:#231F20;" d="M264.533,247.467c37.7,0,68.267-30.566,68.267-68.267s-30.566-68.267-68.267-68.267
		S196.267,141.5,196.267,179.2C196.309,216.883,226.85,247.424,264.533,247.467z M264.533,128c28.279,0,51.2,22.921,51.2,51.2
		s-22.921,51.2-51.2,51.2s-51.2-22.921-51.2-51.2C213.359,150.938,236.271,128.026,264.533,128z"/>
	<path style="fill:#231F20;" d="M119.467,204.8c0,4.71,3.823,8.533,8.533,8.533h22.135c2.338,7.842,5.487,15.411,9.387,22.605
		l-15.667,15.667c-3.328,3.328-3.328,8.738,0,12.066l36.198,36.207c3.328,3.328,8.738,3.328,12.066,0l15.667-15.659
		c7.194,3.9,14.771,7.04,22.613,9.378v22.135c0,4.71,3.823,8.533,8.533,8.533h51.2c4.71,0,8.533-3.823,8.533-8.533v-22.135
		c7.842-2.338,15.411-5.487,22.605-9.387l15.667,15.659c3.328,3.328,8.738,3.328,12.066,0l36.215-36.19
		c3.328-3.328,3.328-8.738,0-12.066l-15.667-15.667c3.9-7.194,7.04-14.771,9.378-22.613h22.135c4.71,0,8.533-3.823,8.533-8.533
		v-51.2c0-4.71-3.823-8.533-8.533-8.533h-22.135c-2.338-7.842-5.487-15.411-9.387-22.605l15.667-15.667
		c3.328-3.337,3.328-8.73,0-12.066l-36.198-36.215c-3.328-3.328-8.738-3.328-12.066,0L321.28,74.18
		c-7.194-3.9-14.771-7.04-22.613-9.378V42.667c0-4.71-3.823-8.533-8.533-8.533h-51.2c-4.71,0-8.533,3.823-8.533,8.533v22.135
		c-7.842,2.338-15.411,5.487-22.605,9.387l-15.667-15.676c-3.328-3.328-8.738-3.328-12.066,0L143.846,94.72
		c-3.328,3.337-3.328,8.73,0,12.066l15.667,15.667c-3.9,7.194-7.04,14.771-9.378,22.613H128c-4.71,0-8.533,3.823-8.533,8.533V204.8z
		 M136.533,162.133h20.147c3.959,0,7.39-2.722,8.303-6.571c2.526-10.607,6.724-20.745,12.459-30.02
		c2.082-3.371,1.57-7.723-1.229-10.522l-14.259-14.259l24.141-24.141l14.259,14.259c2.799,2.799,7.151,3.311,10.522,1.229
		c9.276-5.734,19.413-9.933,30.02-12.459c3.849-0.913,6.571-4.343,6.571-8.303V51.2H281.6v20.147c0,3.959,2.722,7.39,6.571,8.303
		c10.607,2.526,20.745,6.724,30.02,12.459c3.371,2.082,7.723,1.57,10.522-1.229l14.259-14.259l24.141,24.141l-14.259,14.259
		c-2.799,2.799-3.311,7.151-1.229,10.522c5.734,9.276,9.933,19.413,12.459,30.02c0.913,3.849,4.343,6.571,8.303,6.571h20.147v34.133
		h-20.147c-3.959,0-7.39,2.722-8.303,6.571c-2.526,10.607-6.724,20.745-12.459,30.02c-2.082,3.371-1.57,7.723,1.229,10.522
		l14.259,14.259l-24.141,24.141l-14.259-14.259c-2.799-2.799-7.151-3.311-10.522-1.229c-9.276,5.734-19.413,9.933-30.02,12.459
		c-3.849,0.913-6.571,4.343-6.571,8.303V307.2h-34.133v-20.147c0-3.959-2.722-7.39-6.571-8.303
		c-10.607-2.526-20.745-6.724-30.02-12.459c-3.371-2.082-7.723-1.57-10.522,1.229l-14.259,14.259l-24.141-24.141l14.259-14.259
		c2.799-2.799,3.311-7.151,1.229-10.522c-5.734-9.276-9.933-19.413-12.459-30.02c-0.913-3.849-4.343-6.571-8.303-6.571h-20.147
		V162.133z"/>
	<rect x="51.2" y="196.27" style="fill:#231F20;" width="17.07" height="17.07"/>
	<rect x="443.73" y="315.73" style="fill:#231F20;" width="17.07" height="17.07"/>
</g>
<g>
</g>
<g>
</g>
<g>
</g>
<g>
</g>
<g>
</g>
<g>
</g>
<g>
</g>
<g>
</g>
<g>
</g>
<g>
</g>
<g>
</g>
<g>
</g>
<g>
</g>
<g>
</g>
<g>
</g>
</svg>
