<svg xmlns="http://www.w3.org/2000/svg" viewBox="0 0 480 480"><path d="M53.698 95.106h372.604c8.332 0 15.04 6.707 15.04 15.04v237.15c0 8.332-6.707 15.04-15.04 15.04H53.698c-8.332 0-15.04-6.707-15.04-15.04v-237.15c0-8.332 6.707-15.04 15.04-15.04z" fill="#dadfe1"/><path d="M55.144 110.72h369.713v236.003H55.144V110.72z" fill="#606775"/><path d="M0 362.335c0 12.498 11.21 22.56 25.136 22.56h429.728c13.925 0 25.136-10.06 25.136-22.56H0z" fill="#bcbdbf"/><path d="M208.09 362.335c0 4.513 3.406 8.146 5.297 8.146H268.8c1.89 0 4.46-3.633 4.46-8.146h-65.17z" fill="#7c7e7f"/><path d="M238.715 110.72l128.88 236.004h57.264V110.72H238.715zm-88.293 0L279.3 346.723h65.102L215.523 110.72h-65.1z" fill="#676e7b"/></svg>