<svg xmlns="http://www.w3.org/2000/svg" viewBox="0 0 512 512"><path d="M37.926 208.592v28.444C37.926 357.475 135.56 455.1 256 455.1s218.074-97.636 218.074-218.074v-28.444H37.926z" fill="#5b5d6e"/><circle cx="256" cy="341.333" r="66.37" fill="#464655"/><circle cx="256" cy="341.333" r="37.926" fill="#5b5d6e"/><circle cx="256" cy="341.333" r="18.963" fill="#464655"/><g fill="#fff"><circle cx="277.333" cy="320" r="16.593"/><circle cx="230.151" cy="367.182" r="9.481"/></g><path d="M37.926 208.592v28.444c0 121.476 99.323 219.753 221.19 218.053.226-2.068-.123 1.12.104-.948-55.054-9.33-99.155-87.945-106.407-188.032-.396-5.46 4.03-10.1 9.504-10.1h310.884c.54-6.254.872-12.568.872-18.963v-28.444H37.926z" fill="#464655"/><path d="M493.037 56.89H18.963C8.49 56.89 0 65.378 0 75.852v105.922a18.96 18.96 0 0 0 5.555 13.408l32.37 32.373h436.148l32.37-32.372A18.96 18.96 0 0 0 512 181.775V75.852c0-10.474-8.49-18.963-18.963-18.963z" fill="#d5dced"/><g fill="#c7cfe2"><path d="M0 180.148v1.627a18.96 18.96 0 0 0 5.555 13.408l32.37 32.372h436.148l32.37-32.372A18.96 18.96 0 0 0 512 181.775v-1.627H0z"/><path d="M132.74 181.774V75.852c0-10.473 4.088-18.963 9.13-18.963H18.963C8.49 56.89 0 65.378 0 75.852v105.922a18.96 18.96 0 0 0 5.555 13.408l32.37 32.373H151l-15.586-32.372c-1.713-3.557-2.674-8.38-2.674-13.41z"/></g><path d="M0 180.148v1.627a18.96 18.96 0 0 0 5.555 13.408l32.37 32.372H151l-15.586-32.372c-1.713-3.556-2.674-8.38-2.674-13.408v-1.627H0z" fill="#afb9d2"/></svg>