<svg xmlns="http://www.w3.org/2000/svg" height="682.667" viewBox="0 -8 512 511" width="682.667"><path d="M369.836 465.113l-72.63 10.3-72.63-10.3 10.305-61.812 62.324-10.3 62.324 10.3zm0 0" fill="#afafaf"/><path d="M369.836 465.113H338.93l-10.3-61.812h30.902zm0 0" fill="#919191"/><path d="M512 356.94H82.414V79.824a20.61 20.61 0 0 1 20.605-20.605h388.375A20.61 20.61 0 0 1 512 79.824zm0 0" fill="#8175ba"/><path d="M512 79.824V346.64h-30.906V79.824c0-11.383-9.22-20.605-20.602-20.605h30.902C502.78 59.223 512 68.44 512 79.824zm0 0" fill="#575293"/><path d="M475.945 315.734H118.473a5.15 5.15 0 0 1-5.152-5.148V95.277c0-2.844 2.305-5.152 5.152-5.152h357.473c2.844 0 5.148 2.31 5.148 5.152v215.31a5.15 5.15 0 0 1-5.148 5.148zm0 0" fill="#fff"/><path d="M169.98 315.734V189.54h-56.66v121.047a5.15 5.15 0 0 0 5.152 5.148zm0 0" fill="#e8e8e8"/><path d="M481.094 121.03H221.488V90.125h254.457c2.844 0 5.148 2.3 5.148 5.152zm-90.656 375h-186.46c-8.535 0-15.453-6.918-15.453-15.453s6.918-15.453 15.453-15.453h186.46c8.535 0 15.453 6.918 15.453 15.453s-6.918 15.453-15.453 15.453zm0 0" fill="#d8d8d8"/><path d="M405.89 480.566c0 4.262-1.73 8.125-4.53 10.918a15.38 15.38 0 0 1-10.922 4.535H359.53a15.38 15.38 0 0 0 10.922-4.535c2.8-2.793 4.53-6.656 4.53-10.918 0-6.852-4.46-12.664-10.63-14.68-1.516-.508-3.145-.773-4.824-.773h30.906a15.46 15.46 0 0 1 15.453 15.453zm0 0" fill="#afafaf"/><path d="M491.395 403.3H103.02a20.61 20.61 0 0 1-20.605-20.605V346.64H512v36.055c0 11.383-9.227 20.605-20.605 20.605zm0 0" fill="#d8d8d8"/><path d="M512 346.64v36.055c0 11.383-9.22 20.605-20.605 20.605h-30.902a20.6 20.6 0 0 0 20.602-20.605V346.64zm0 0" fill="#afafaf"/><path d="M180.28 221.988H41.207C18.45 221.988 0 203.54 0 180.78V41.707C0 18.95 18.45.5 41.207.5H180.28c22.758 0 41.207 18.45 41.207 41.207V180.78c0 22.758-18.45 41.207-41.207 41.207zm0 0" fill="#f2d67c"/><path d="M221.488 41.707V180.78c0 22.758-18.45 41.207-41.207 41.207H149.38c22.754 0 41.207-18.45 41.207-41.207V41.707C190.586 18.95 172.133.5 149.38.5h30.902c22.758 0 41.207 18.45 41.207 41.207zm0 0" fill="#e2b061"/><path d="M185.434 115.672v-8.855c0-3.262-2.645-5.902-5.906-5.902h-1.57c-6.172 0-11.672-3.848-13.836-9.63a58.38 58.38 0 0 0-1.492-3.609c-2.566-5.64-1.434-12.27 2.945-16.648l1.113-1.113a5.91 5.91 0 0 0 0-8.352l-6.262-6.262a5.91 5.91 0 0 0-8.352 0l-1.11 1.113c-4.383 4.383-11.012 5.516-16.652 2.95a55.19 55.19 0 0 0-3.609-1.496c-5.78-2.164-9.625-7.664-9.625-13.836v-1.57c0-3.262-2.645-5.902-5.906-5.902h-8.855a5.9 5.9 0 0 0-5.902 5.902v1.57c0 6.172-3.848 11.672-9.63 13.836a56.1 56.1 0 0 0-3.609 1.496c-5.64 2.566-12.27 1.434-16.648-2.95L69.414 55.3a5.91 5.91 0 0 0-8.352 0L54.8 61.563a5.91 5.91 0 0 0 0 8.352l1.113 1.113c4.383 4.38 5.516 11.008 2.95 16.648a56.1 56.1 0 0 0-1.496 3.609c-2.164 5.78-7.664 9.63-13.836 9.63h-1.57a5.9 5.9 0 0 0-5.902 5.902v8.855c0 3.262 2.64 5.906 5.902 5.906h1.57c6.172 0 11.672 3.848 13.836 9.625a55.19 55.19 0 0 0 1.496 3.609c2.566 5.64 1.434 12.27-2.95 16.652l-1.113 1.11a5.91 5.91 0 0 0 0 8.352l6.262 6.262a5.91 5.91 0 0 0 8.352 0l1.113-1.113c4.38-4.38 11.008-5.512 16.648-2.945a58.38 58.38 0 0 0 3.609 1.492c5.78 2.164 9.63 7.664 9.63 13.836v1.57c0 3.262 2.64 5.906 5.902 5.906h8.855a5.91 5.91 0 0 0 5.906-5.906v-1.57c0-6.172 3.848-11.672 9.625-13.836 1.223-.457 2.43-.957 3.61-1.492 5.64-2.566 12.27-1.434 16.652 2.945l1.11 1.113a5.91 5.91 0 0 0 8.352 0l6.262-6.262a5.91 5.91 0 0 0 0-8.352l-1.113-1.11c-4.38-4.383-5.512-11.012-2.945-16.652.535-1.18 1.035-2.387 1.492-3.61 2.164-5.78 7.664-9.625 13.836-9.625h1.57a5.91 5.91 0 0 0 5.906-5.906zm0 0" fill="#fafeff"/><path d="M110.742 136.484c-13.937 0-25.238-11.3-25.238-25.238s11.3-25.238 25.238-25.238 25.242 11.297 25.242 25.238-11.3 25.238-25.242 25.238zm0 0" fill="#e2b061"/><path d="M355.93 180.266h-74.176a7.73 7.73 0 0 1-7.727-7.727c0-4.266 3.46-7.723 7.727-7.723h74.176c4.266 0 7.723 3.457 7.723 7.723s-3.457 7.727-7.723 7.727zm69.02 0h-38.117a7.73 7.73 0 0 1-7.727-7.727c0-4.266 3.46-7.723 7.727-7.723h38.117c4.27 0 7.727 3.457 7.727 7.723a7.73 7.73 0 0 1-7.727 7.727zm0 0" fill="#747a89"/><path d="M355.93 211.172h-30.906c-4.27 0-7.727-3.457-7.727-7.727a7.73 7.73 0 0 1 7.727-7.727h30.906c4.266 0 7.723 3.46 7.723 7.727s-3.457 7.727-7.723 7.727zm69.02 0h-38.117a7.73 7.73 0 0 1-7.727-7.727 7.73 7.73 0 0 1 7.727-7.727h38.117a7.73 7.73 0 0 1 7.727 7.727c0 4.27-3.457 7.727-7.727 7.727zm-69.02 30.906h-30.906a7.73 7.73 0 0 1-7.727-7.727 7.73 7.73 0 0 1 7.727-7.727h30.906c4.266 0 7.723 3.46 7.723 7.727s-3.457 7.727-7.723 7.727zm69.02 0h-38.117a7.73 7.73 0 0 1-7.727-7.727 7.73 7.73 0 0 1 7.727-7.727h38.117a7.73 7.73 0 0 1 7.727 7.727 7.73 7.73 0 0 1-7.727 7.727zm0 0" fill="#f2d67c"/><path d="M355.93 272.984h-74.176a7.73 7.73 0 0 1-7.727-7.727 7.73 7.73 0 0 1 7.727-7.727h74.176c4.266 0 7.723 3.457 7.723 7.727s-3.457 7.727-7.723 7.727zm69.02 0h-38.117a7.73 7.73 0 0 1-7.727-7.727 7.73 7.73 0 0 1 7.727-7.727h38.117c4.27 0 7.727 3.457 7.727 7.727a7.73 7.73 0 0 1-7.727 7.727zm0 0" fill="#747a89"/></svg>